SeanSans-NormalLight.ufo
<glyph name="exclam" format="1">
  <advance width="248"/>
  <unicode hex="0021"/>
  <outline>
    <contour>
      <point x="150" y="229" type="line"/>
      <point x="157" y="722" type="line"/>
      <point x="89" y="722" type="line"/>
      <point x="96" y="229" type="line"/>
    </contour>
    <contour>
      <point x="161" y="27" type="curve"/>
      <point x="161" y="49"/>
      <point x="146" y="60"/>
      <point x="123" y="60" type="curve"/>
      <point x="101" y="60"/>
      <point x="87" y="48"/>
      <point x="87" y="27" type="curve"/>
      <point x="152" y="27"/>
      <point x="96" y="27"/>
      <point x="161" y="27" type="curve"/>
      <point x="161" y="4"/>
      <point x="146" y="-7"/>
      <point x="123" y="-7" type="curve"/>
      <point x="101" y="-7"/>
      <point x="87" y="5"/>
      <point x="87" y="27" type="curve"/>
      <point x="152" y="27"/>
      <point x="96" y="27"/>
    </contour>
  </outline>
</glyph>
<glyph name="quotedbl" format="1">
  <advance width="393"/>
  <unicode hex="0022"/>
  <outline>
    <contour>
      <point x="129" y="613" type="line"/>
      <point x="134" y="813" type="line"/>
      <point x="67" y="813" type="line"/>
      <point x="72" y="613" type="line"/>
    </contour>
    <contour>
      <point x="322" y="613" type="line"/>
      <point x="327" y="813" type="line"/>
      <point x="259" y="813" type="line"/>
      <point x="264" y="613" type="line"/>
    </contour>
  </outline>
</glyph>
<glyph name="numbersign" format="1">
  <advance width="697"/>
  <unicode hex="0023"/>
  <outline>
    <contour>
      <point x="42" y="238" type="curve"/>
      <point x="565" y="238" type="curve"/>
      <point x="580" y="286" type="curve"/>
      <point x="58" y="286" type="curve"/>
    </contour>
    <contour>
      <point x="116" y="474" type="curve"/>
      <point x="640" y="474" type="curve"/>
      <point x="655" y="521" type="curve"/>
      <point x="131" y="521" type="curve"/>
    </contour>
    <contour>
      <point x="415" y="39" type="curve"/>
      <point x="641" y="722" type="curve"/>
      <point x="581" y="722" type="curve"/>
      <point x="355" y="39" type="curve"/>
    </contour>
    <contour>
      <point x="133" y="46" type="curve"/>
      <point x="355" y="722" type="curve"/>
      <point x="295" y="722" type="curve"/>
      <point x="75" y="46" type="curve"/>
    </contour>
  </outline>
</glyph>
<glyph name="dollar" format="1">
  <advance width="568"/>
  <unicode hex="0024"/>
  <outline>
    <contour>
      <point x="294" y="-42" type="curve"/>
      <point x="294" y="-9"/>
      <point x="294" y="37"/>
      <point x="294" y="70" type="curve"/>
      <point x="233" y="70"/>
      <point x="294" y="70"/>
      <point x="233" y="70" type="curve"/>
      <point x="233" y="37"/>
      <point x="233" y="-9"/>
      <point x="233" y="-42" type="curve"/>
      <point x="294" y="-42"/>
      <point x="233" y="-42"/>
    </contour>
    <contour>
      <point x="306" y="660" type="curve"/>
      <point x="306" y="692"/>
      <point x="306" y="740"/>
      <point x="306" y="773" type="curve"/>
      <point x="246" y="773"/>
      <point x="306" y="773"/>
      <point x="246" y="773" type="curve"/>
      <point x="246" y="740"/>
      <point x="246" y="692"/>
      <point x="246" y="660" type="curve"/>
      <point x="306" y="660"/>
      <point x="246" y="660"/>
    </contour>
    <contour>
      <point x="50" y="97" type="curve"/>
      <point x="108" y="70"/>
      <point x="179" y="46"/>
      <point x="260" y="46" type="curve"/>
      <point x="402" y="46"/>
      <point x="518" y="91"/>
      <point x="518" y="205" type="curve"/>
      <point x="518" y="311"/>
      <point x="409" y="351"/>
      <point x="296" y="396" type="curve"/>
      <point x="206" y="433"/>
      <point x="128" y="458"/>
      <point x="128" y="536" type="curve"/>
      <point x="128" y="605"/>
      <point x="194" y="637"/>
      <point x="280" y="637" type="curve"/>
      <point x="351" y="637"/>
      <point x="400" y="622"/>
      <point x="464" y="592" type="curve"/>
      <point x="492" y="632"/>
      <point x="464" y="592"/>
      <point x="492" y="632" type="curve"/>
      <point x="421" y="666"/>
      <point x="364" y="684"/>
      <point x="283" y="684" type="curve"/>
      <point x="160" y="684"/>
      <point x="67" y="638"/>
      <point x="67" y="536" type="curve"/>
      <point x="67" y="434"/>
      <point x="153" y="396"/>
      <point x="261" y="353" type="curve"/>
      <point x="357" y="315"/>
      <point x="457" y="287"/>
      <point x="457" y="203" type="curve"/>
      <point x="457" y="125"/>
      <point x="371" y="93"/>
      <point x="266" y="93" type="curve"/>
      <point x="195" y="93"/>
      <point x="134" y="117"/>
      <point x="80" y="140" type="curve"/>
      <point x="50" y="97"/>
      <point x="80" y="140"/>
    </contour>
  </outline>
</glyph>
<glyph name="percent" format="1">
  <advance width="1097"/>
  <unicode hex="0025"/>
  <outline>
    <contour>
      <point x="369" y="-76" type="line"/>
      <point x="814" y="742" type="line"/>
      <point x="755" y="742" type="line"/>
      <point x="311" y="-76" type="line"/>
    </contour>
    <contour>
      <point x="93" y="535" type="curve"/>
      <point x="93" y="632"/>
      <point x="136" y="700"/>
      <point x="228" y="700" type="curve"/>
      <point x="321" y="701"/>
      <point x="363" y="633"/>
      <point x="363" y="535" type="curve"/>
      <point x="363" y="438"/>
      <point x="324" y="367"/>
      <point x="232" y="367" type="curve"/>
      <point x="137" y="367"/>
      <point x="93" y="436"/>
      <point x="93" y="535" type="curve"/>
      <point x="72" y="535"/>
      <point x="59" y="535"/>
      <point x="38" y="535" type="curve"/>
      <point x="38" y="407"/>
      <point x="104" y="322"/>
      <point x="229" y="322" type="curve"/>
      <point x="354" y="322"/>
      <point x="421" y="408"/>
      <point x="421" y="537" type="curve"/>
      <point x="421" y="664"/>
      <point x="354" y="747"/>
      <point x="231" y="747" type="curve"/>
      <point x="106" y="747"/>
      <point x="38" y="663"/>
      <point x="38" y="535" type="curve"/>
      <point x="59" y="535"/>
      <point x="72" y="535"/>
    </contour>
    <contour>
      <point x="732" y="131" type="curve"/>
      <point x="732" y="229"/>
      <point x="775" y="297"/>
      <point x="867" y="297" type="curve"/>
      <point x="960" y="298"/>
      <point x="1002" y="229"/>
      <point x="1002" y="132" type="curve"/>
      <point x="1002" y="34"/>
      <point x="963" y="-36"/>
      <point x="871" y="-36" type="curve"/>
      <point x="776" y="-36"/>
      <point x="732" y="32"/>
      <point x="732" y="131" type="curve"/>
      <point x="711" y="131"/>
      <point x="698" y="131"/>
      <point x="677" y="131" type="curve"/>
      <point x="677" y="3"/>
      <point x="743" y="-82"/>
      <point x="868" y="-82" type="curve"/>
      <point x="993" y="-82"/>
      <point x="1060" y="4"/>
      <point x="1060" y="134" type="curve"/>
      <point x="1060" y="260"/>
      <point x="993" y="343"/>
      <point x="869" y="343" type="curve"/>
      <point x="744" y="343"/>
      <point x="677" y="259"/>
      <point x="677" y="131" type="curve"/>
      <point x="698" y="131"/>
      <point x="711" y="131"/>
    </contour>
  </outline>
</glyph>
<glyph name="ampersand" format="1">
  <advance width="702"/>
  <unicode hex="0026"/>
  <outline>
    <contour>
      <point x="684" y="25" type="line"/>
      <point x="570" y="133"/>
      <point x="456" y="247"/>
      <point x="340" y="358" type="curve"/>
      <point x="275" y="424"/>
      <point x="194" y="473"/>
      <point x="194" y="569" type="curve"/>
      <point x="194" y="634"/>
      <point x="235" y="679"/>
      <point x="299" y="679" type="curve"/>
      <point x="369" y="679"/>
      <point x="417" y="639"/>
      <point x="417" y="571" type="curve"/>
      <point x="416" y="479"/>
      <point x="343" y="441"/>
      <point x="260" y="397" type="curve"/>
      <point x="158" y="341"/>
      <point x="64" y="298"/>
      <point x="64" y="184" type="curve"/>
      <point x="64" y="61"/>
      <point x="162" y="-5"/>
      <point x="292" y="-5" type="curve"/>
      <point x="485" y="-5"/>
      <point x="590" y="129"/>
      <point x="654" y="316" type="curve"/>
      <point x="602" y="328"/>
      <point x="654" y="316"/>
      <point x="602" y="328" type="curve"/>
      <point x="546" y="164"/>
      <point x="458" y="43"/>
      <point x="295" y="43" type="curve"/>
      <point x="197" y="43"/>
      <point x="124" y="90"/>
      <point x="124" y="184" type="curve"/>
      <point x="124" y="278"/>
      <point x="202" y="312"/>
      <point x="286" y="358" type="curve"/>
      <point x="386" y="413"/>
      <point x="476" y="460"/>
      <point x="477" y="571" type="curve"/>
      <point x="477" y="670"/>
      <point x="404" y="727"/>
      <point x="301" y="727" type="curve"/>
      <point x="202" y="727"/>
      <point x="135" y="666"/>
      <point x="135" y="569" type="curve"/>
      <point x="135" y="461"/>
      <point x="222" y="403"/>
      <point x="298" y="329" type="curve"/>
      <point x="410" y="220"/>
      <point x="536" y="98"/>
      <point x="648" y="-9" type="curve"/>
    </contour>
  </outline>
</glyph>
<glyph name="parenright" format="1">
  <advance width="369"/>
  <unicode hex="0029"/>
  <outline>
    <contour>
      <point x="38" y="-275" type="curve"/>
      <point x="218" y="-94"/>
      <point x="316" y="69"/>
      <point x="316" y="328" type="curve"/>
      <point x="316" y="580"/>
      <point x="225" y="742"/>
      <point x="42" y="912" type="curve"/>
      <point x="5" y="879"/>
      <point x="42" y="912"/>
      <point x="5" y="879" type="curve"/>
      <point x="175" y="716"/>
      <point x="255" y="561"/>
      <point x="255" y="325" type="curve"/>
      <point x="255" y="84"/>
      <point x="166" y="-71"/>
      <point x="0" y="-244" type="curve"/>
      <point x="38" y="-275"/>
      <point x="0" y="-244"/>
    </contour>
  </outline>
</glyph>
<glyph name="asterisk" format="1">
  <advance width="638"/>
  <unicode hex="002A"/>
  <outline>
    <contour>
      <point x="339" y="598" type="line"/>
      <point x="343" y="797" type="line"/>
      <point x="289" y="797" type="line"/>
      <point x="293" y="598" type="line"/>
    </contour>
    <contour>
      <point x="379" y="541" type="line"/>
      <point x="569" y="601" type="line"/>
      <point x="552" y="651" type="line"/>
      <point x="364" y="584" type="line"/>
    </contour>
    <contour>
      <point x="338" y="485" type="line"/>
      <point x="455" y="324" type="line"/>
      <point x="497" y="357" type="line"/>
      <point x="373" y="513" type="line"/>
    </contour>
    <contour>
      <point x="272" y="509" type="line"/>
      <point x="148" y="353" type="line"/>
      <point x="190" y="320" type="line"/>
      <point x="307" y="481" type="line"/>
    </contour>
    <contour>
      <point x="273" y="577" type="line"/>
      <point x="86" y="645" type="line"/>
      <point x="68" y="594" type="line"/>
      <point x="258" y="534" type="line"/>
    </contour>
  </outline>
</glyph>
<glyph name="plus" format="1">
  <advance width="647"/>
  <unicode hex="002B"/>
  <outline>
    <contour>
      <point x="43" y="284" type="curve"/>
      <point x="604" y="284" type="line"/>
      <point x="604" y="337"/>
      <point x="604" y="284"/>
      <point x="604" y="337" type="curve"/>
      <point x="43" y="337" type="line"/>
      <point x="43" y="284"/>
      <point x="43" y="337"/>
    </contour>
    <contour>
      <point x="351" y="23" type="curve"/>
      <point x="351" y="587" type="line"/>
      <point x="291" y="587"/>
      <point x="354" y="587"/>
      <point x="293" y="587" type="curve"/>
      <point x="293" y="23" type="line"/>
      <point x="354" y="23"/>
      <point x="291" y="23"/>
    </contour>
  </outline>
</glyph>
<glyph name="comma" format="1">
  <advance width="160"/>
  <unicode hex="002C"/>
  <outline>
    <contour>
      <point x="26" y="-115" type="line"/>
      <point x="78" y="-97"/>
      <point x="117" y="-54"/>
      <point x="117" y="13" type="curve"/>
      <point x="117" y="52"/>
      <point x="103" y="81"/>
      <point x="73" y="81" type="curve"/>
      <point x="50" y="81"/>
      <point x="35" y="69"/>
      <point x="35" y="47" type="curve"/>
      <point x="35" y="27"/>
      <point x="47" y="14"/>
      <point x="69" y="11" type="curve"/>
      <point x="69" y="-17"/>
      <point x="57" y="-58"/>
      <point x="15" y="-79" type="curve"/>
    </contour>
  </outline>
</glyph>
<glyph name="hyphen" format="1">
  <advance width="461"/>
  <unicode hex="002D"/>
  <outline>
    <contour>
      <point x="79" y="249" type="curve"/>
      <point x="180" y="249"/>
      <point x="281" y="249"/>
      <point x="382" y="249" type="curve"/>
      <point x="382" y="302"/>
      <point x="382" y="249"/>
      <point x="382" y="302" type="curve"/>
      <point x="281" y="302"/>
      <point x="180" y="302"/>
      <point x="79" y="302" type="curve"/>
      <point x="79" y="249"/>
      <point x="79" y="302"/>
    </contour>
  </outline>
</glyph>
<glyph name="period" format="1">
  <advance width="206"/>
  <unicode hex="002E"/>
  <outline>
    <contour>
      <point x="140" y="27" type="curve"/>
      <point x="140" y="49"/>
      <point x="125" y="60"/>
      <point x="102" y="60" type="curve"/>
      <point x="80" y="60"/>
      <point x="66" y="48"/>
      <point x="66" y="27" type="curve"/>
      <point x="131" y="27"/>
      <point x="75" y="27"/>
      <point x="140" y="27" type="curve"/>
      <point x="140" y="4"/>
      <point x="125" y="-7"/>
      <point x="102" y="-7" type="curve"/>
      <point x="80" y="-7"/>
      <point x="66" y="5"/>
      <point x="66" y="27" type="curve"/>
      <point x="131" y="27"/>
      <point x="75" y="27"/>
    </contour>
  </outline>
</glyph>
<glyph name="slash" format="1">
  <advance width="558"/>
  <unicode hex="002F"/>
  <outline>
    <contour>
      <point x="87" y="-51" type="curve"/>
      <point x="235" y="241"/>
      <point x="384" y="533"/>
      <point x="532" y="825" type="curve"/>
      <point x="472" y="825"/>
      <point x="532" y="825"/>
      <point x="472" y="825" type="curve"/>
      <point x="323" y="533"/>
      <point x="175" y="241"/>
      <point x="27" y="-51" type="curve"/>
      <point x="87" y="-51"/>
      <point x="27" y="-51"/>
    </contour>
  </outline>
</glyph>
<glyph name="zero" format="1">
  <advance width="739"/>
  <unicode hex="0030"/>
  <outline>
    <contour>
      <point x="126" y="360" type="curve"/>
      <point x="126" y="547"/>
      <point x="200" y="676"/>
      <point x="369" y="676" type="curve"/>
      <point x="539" y="676"/>
      <point x="613" y="547"/>
      <point x="613" y="363" type="curve"/>
      <point x="613" y="177"/>
      <point x="540" y="46"/>
      <point x="374" y="46" type="curve"/>
      <point x="205" y="46"/>
      <point x="126" y="174"/>
      <point x="126" y="360" type="curve"/>
      <point x="66" y="360"/>
      <point x="125" y="360"/>
      <point x="65" y="360" type="curve"/>
      <point x="65" y="141"/>
      <point x="164" y="-5"/>
      <point x="372" y="-5" type="curve"/>
      <point x="578" y="-5"/>
      <point x="674" y="143"/>
      <point x="674" y="363" type="curve"/>
      <point x="674" y="581"/>
      <point x="578" y="727"/>
      <point x="374" y="727" type="curve"/>
      <point x="165" y="727"/>
      <point x="65" y="580"/>
      <point x="65" y="360" type="curve"/>
      <point x="125" y="360"/>
      <point x="66" y="360"/>
    </contour>
  </outline>
</glyph>
<glyph name="one" format="1">
  <advance width="377"/>
  <unicode hex="0031"/>
  <outline>
    <contour>
      <point x="54" y="515" type="curve"/>
      <point x="275" y="691"/>
      <point x="54" y="515"/>
      <point x="275" y="691" type="curve"/>
      <point x="229" y="722"/>
      <point x="275" y="691"/>
      <point x="229" y="722" type="curve"/>
      <point x="21" y="557"/>
      <point x="229" y="722"/>
      <point x="21" y="557" type="curve"/>
      <point x="54" y="515"/>
      <point x="21" y="557"/>
    </contour>
    <contour>
      <point x="288" y="0" type="curve"/>
      <point x="288" y="241"/>
      <point x="288" y="481"/>
      <point x="288" y="722" type="curve"/>
      <point x="229" y="722"/>
      <point x="288" y="722"/>
      <point x="229" y="722" type="curve"/>
      <point x="229" y="481"/>
      <point x="229" y="241"/>
      <point x="229" y="0" type="curve"/>
      <point x="288" y="0"/>
      <point x="229" y="0"/>
    </contour>
  </outline>
</glyph>
<glyph name="two" format="1">
  <advance width="584"/>
  <unicode hex="0032"/>
  <outline>
    <contour>
      <point x="43" y="0" type="curve"/>
      <point x="222" y="0"/>
      <point x="374" y="0"/>
      <point x="530" y="0" type="curve"/>
      <point x="530" y="48"/>
      <point x="530" y="0"/>
      <point x="530" y="48" type="curve"/>
      <point x="364" y="48"/>
      <point x="208" y="48"/>
      <point x="43" y="48" type="curve"/>
      <point x="43" y="0"/>
      <point x="43" y="48"/>
    </contour>
    <contour>
      <point x="102" y="548" type="curve"/>
      <point x="152" y="626"/>
      <point x="201" y="676"/>
      <point x="289" y="676" type="curve"/>
      <point x="388" y="676"/>
      <point x="447" y="621"/>
      <point x="447" y="519" type="curve"/>
      <point x="447" y="400"/>
      <point x="362" y="319"/>
      <point x="278" y="251" type="curve"/>
      <point x="199" y="183"/>
      <point x="121" y="116"/>
      <point x="43" y="48" type="curve"/>
      <point x="51" y="0"/>
      <point x="43" y="48"/>
      <point x="51" y="0" type="curve"/>
      <point x="154" y="70"/>
      <point x="235" y="143"/>
      <point x="316" y="214" type="curve"/>
      <point x="414" y="291"/>
      <point x="505" y="378"/>
      <point x="505" y="521" type="curve"/>
      <point x="505" y="655"/>
      <point x="425" y="727"/>
      <point x="292" y="727" type="curve"/>
      <point x="183" y="727"/>
      <point x="110" y="669"/>
      <point x="59" y="575" type="curve"/>
      <point x="102" y="548"/>
      <point x="59" y="575"/>
    </contour>
  </outline>
</glyph>
<glyph name="three" format="1">
  <advance width="562"/>
  <unicode hex="0033"/>
  <outline>
    <contour>
      <point x="51" y="56" type="curve"/>
      <point x="112" y="18"/>
      <point x="170" y="-5"/>
      <point x="249" y="-5" type="curve"/>
      <point x="399" y="-5"/>
      <point x="500" y="54"/>
      <point x="500" y="202" type="curve"/>
      <point x="500" y="338"/>
      <point x="356" y="397"/>
      <point x="158" y="397" type="curve"/>
      <point x="158" y="360"/>
      <point x="158" y="393"/>
      <point x="158" y="356" type="curve"/>
      <point x="306" y="356"/>
      <point x="442" y="310"/>
      <point x="442" y="200" type="curve"/>
      <point x="442" y="87"/>
      <point x="353" y="47"/>
      <point x="251" y="47" type="curve"/>
      <point x="189" y="47"/>
      <point x="141" y="64"/>
      <point x="81" y="96" type="curve"/>
      <point x="51" y="56"/>
      <point x="81" y="96"/>
    </contour>
    <contour>
      <point x="92" y="607" type="curve"/>
      <point x="126" y="642"/>
      <point x="182" y="675"/>
      <point x="246" y="675" type="curve"/>
      <point x="343" y="675"/>
      <point x="407" y="637"/>
      <point x="407" y="545" type="curve"/>
      <point x="407" y="448"/>
      <point x="291" y="404"/>
      <point x="158" y="404" type="curve"/>
      <point x="158" y="367"/>
      <point x="158" y="400"/>
      <point x="158" y="363" type="curve"/>
      <point x="329" y="363"/>
      <point x="466" y="417"/>
      <point x="466" y="547" type="curve"/>
      <point x="466" y="669"/>
      <point x="379" y="727"/>
      <point x="251" y="727" type="curve"/>
      <point x="167" y="727"/>
      <point x="96" y="685"/>
      <point x="56" y="640" type="curve"/>
      <point x="92" y="607"/>
      <point x="56" y="640"/>
    </contour>
  </outline>
</glyph>
<glyph name="four" format="1">
  <advance width="630"/>
  <unicode hex="0034"/>
  <outline>
    <contour>
      <point x="51" y="263" type="line"/>
      <point x="405" y="700" type="line"/>
      <point x="356" y="714" type="line"/>
      <point x="23" y="305" type="line"/>
    </contour>
    <contour>
      <point x="591" y="305" type="line"/>
      <point x="23" y="305" type="line"/>
      <point x="23" y="253" type="line"/>
      <point x="591" y="253" type="line"/>
    </contour>
    <contour>
      <point x="417" y="0" type="line"/>
      <point x="417" y="714" type="line"/>
      <point x="357" y="714" type="line"/>
      <point x="357" y="0" type="line"/>
    </contour>
  </outline>
</glyph>
<glyph name="five" format="1">
  <advance width="550"/>
  <unicode hex="0035"/>
  <outline>
    <contour>
      <point x="96" y="722" type="curve"/>
      <point x="96" y="621"/>
      <point x="96" y="512"/>
      <point x="96" y="395" type="curve"/>
      <point x="154" y="379"/>
      <point x="96" y="395"/>
      <point x="154" y="379" type="curve"/>
      <point x="154" y="476"/>
      <point x="154" y="577"/>
      <point x="154" y="674" type="curve"/>
      <point x="96" y="722"/>
      <point x="154" y="674"/>
    </contour>
    <contour>
      <point x="154" y="379" type="curve"/>
      <point x="177" y="392"/>
      <point x="225" y="404"/>
      <point x="261" y="404" type="curve"/>
      <point x="369" y="404"/>
      <point x="434" y="336"/>
      <point x="434" y="229" type="curve"/>
      <point x="434" y="120"/>
      <point x="357" y="47"/>
      <point x="246" y="47" type="curve"/>
      <point x="185" y="47"/>
      <point x="138" y="60"/>
      <point x="81" y="88" type="curve"/>
      <point x="52" y="44"/>
      <point x="81" y="88"/>
      <point x="52" y="44" type="curve"/>
      <point x="112" y="12"/>
      <point x="173" y="-5"/>
      <point x="246" y="-5" type="curve"/>
      <point x="390" y="-5"/>
      <point x="494" y="87"/>
      <point x="494" y="229" type="curve"/>
      <point x="494" y="366"/>
      <point x="405" y="455"/>
      <point x="266" y="455" type="curve"/>
      <point x="209" y="455"/>
      <point x="142" y="437"/>
      <point x="101" y="399" type="curve"/>
      <point x="154" y="380"/>
      <point x="101" y="398"/>
    </contour>
    <contour>
      <point x="469" y="722" type="curve"/>
      <point x="341" y="722"/>
      <point x="220" y="722"/>
      <point x="96" y="722" type="curve"/>
      <point x="154" y="674"/>
      <point x="96" y="722"/>
      <point x="154" y="674" type="curve"/>
      <point x="259" y="674"/>
      <point x="360" y="674"/>
      <point x="469" y="674" type="curve"/>
      <point x="469" y="722"/>
      <point x="469" y="674"/>
    </contour>
  </outline>
</glyph>
<glyph name="six" format="1">
  <advance width="609"/>
  <unicode hex="0036"/>
  <outline>
    <contour>
      <point x="111" y="226" type="curve"/>
      <point x="149" y="315"/>
      <point x="219" y="371"/>
      <point x="318" y="371" type="curve"/>
      <point x="424" y="371"/>
      <point x="488" y="314"/>
      <point x="488" y="209" type="curve"/>
      <point x="488" y="110"/>
      <point x="424" y="49"/>
      <point x="321" y="49" type="curve"/>
      <point x="195" y="49"/>
      <point x="120" y="122"/>
      <point x="120" y="247" type="curve"/>
      <point x="120" y="497"/>
      <point x="300" y="616"/>
      <point x="547" y="687" type="curve"/>
      <point x="532" y="733"/>
      <point x="547" y="687"/>
      <point x="532" y="733" type="curve"/>
      <point x="262" y="661"/>
      <point x="61" y="525"/>
      <point x="61" y="245" type="curve"/>
      <point x="61" y="86"/>
      <point x="159" y="-7"/>
      <point x="319" y="-7" type="curve"/>
      <point x="461" y="-7"/>
      <point x="549" y="72"/>
      <point x="549" y="210" type="curve"/>
      <point x="549" y="347"/>
      <point x="461" y="421"/>
      <point x="324" y="421" type="curve"/>
      <point x="199" y="421"/>
      <point x="114" y="347"/>
      <point x="73" y="247" type="curve"/>
      <point x="111" y="226"/>
      <point x="74" y="247"/>
    </contour>
  </outline>
</glyph>
<glyph name="seven" format="1">
  <advance width="554"/>
  <unicode hex="0037"/>
  <outline>
    <contour>
      <point x="36" y="674" type="curve"/>
      <point x="539" y="674" type="curve"/>
      <point x="539" y="722" type="curve"/>
      <point x="36" y="722" type="curve"/>
    </contour>
    <contour>
      <point x="502" y="722" type="curve"/>
      <point x="70" y="0" type="curve"/>
      <point x="139" y="0" type="curve"/>
      <point x="539" y="674" type="curve"/>
    </contour>
  </outline>
</glyph>
<glyph name="eight" format="1">
  <advance width="592"/>
  <unicode hex="0038"/>
  <outline>
    <contour>
      <point x="85" y="555" type="curve"/>
      <point x="85" y="441"/>
      <point x="172" y="410"/>
      <point x="278" y="360" type="curve"/>
      <point x="381" y="312"/>
      <point x="466" y="281"/>
      <point x="466" y="177" type="curve"/>
      <point x="466" y="83"/>
      <point x="397" y="45"/>
      <point x="295" y="45" type="curve"/>
      <point x="192" y="45"/>
      <point x="125" y="83"/>
      <point x="125" y="177" type="curve"/>
      <point x="125" y="283"/>
      <point x="212" y="311"/>
      <point x="316" y="360" type="curve"/>
      <point x="419" y="411"/>
      <point x="506" y="441"/>
      <point x="506" y="554" type="curve"/>
      <point x="506" y="675"/>
      <point x="425" y="727"/>
      <point x="295" y="727" type="curve"/>
      <point x="169" y="727"/>
      <point x="85" y="673"/>
      <point x="85" y="555" type="curve"/>
      <point x="145" y="555"/>
      <point x="85" y="555"/>
      <point x="145" y="555" type="curve"/>
      <point x="145" y="638"/>
      <point x="203" y="677"/>
      <point x="292" y="677" type="curve"/>
      <point x="387" y="677"/>
      <point x="447" y="641"/>
      <point x="447" y="554" type="curve"/>
      <point x="447" y="462"/>
      <point x="368" y="437"/>
      <point x="278" y="396" type="curve"/>
      <point x="160" y="339"/>
      <point x="65" y="304"/>
      <point x="65" y="177" type="curve"/>
      <point x="65" y="50"/>
      <point x="155" y="-5"/>
      <point x="292" y="-5" type="curve"/>
      <point x="431" y="-5"/>
      <point x="527" y="47"/>
      <point x="527" y="177" type="curve"/>
      <point x="527" y="302"/>
      <point x="432" y="340"/>
      <point x="316" y="395" type="curve"/>
      <point x="225" y="440"/>
      <point x="145" y="462"/>
      <point x="145" y="555" type="curve"/>
      <point x="85" y="555"/>
      <point x="145" y="555"/>
    </contour>
  </outline>
</glyph>
<glyph name="nine" format="1">
  <advance width="608"/>
  <unicode hex="0039"/>
  <outline>
    <contour>
      <point x="500" y="490" type="curve"/>
      <point x="457" y="403"/>
      <point x="397" y="351"/>
      <point x="295" y="351" type="curve"/>
      <point x="187" y="351"/>
      <point x="120" y="409"/>
      <point x="120" y="515" type="curve"/>
      <point x="120" y="616"/>
      <point x="185" y="673"/>
      <point x="287" y="673" type="curve"/>
      <point x="414" y="673"/>
      <point x="488" y="599"/>
      <point x="488" y="475" type="curve"/>
      <point x="488" y="225"/>
      <point x="318" y="99"/>
      <point x="65" y="36" type="curve"/>
      <point x="82" y="-14"/>
      <point x="65" y="36"/>
      <point x="82" y="-14" type="curve"/>
      <point x="357" y="50"/>
      <point x="547" y="197"/>
      <point x="547" y="477" type="curve"/>
      <point x="547" y="636"/>
      <point x="451" y="729"/>
      <point x="290" y="729" type="curve"/>
      <point x="148" y="729"/>
      <point x="60" y="650"/>
      <point x="60" y="512" type="curve"/>
      <point x="60" y="375"/>
      <point x="149" y="301"/>
      <point x="290" y="301" type="curve"/>
      <point x="413" y="301"/>
      <point x="488" y="367"/>
      <point x="530" y="475" type="curve"/>
      <point x="500" y="490"/>
      <point x="530" y="475"/>
    </contour>
  </outline>
</glyph>
<glyph name="colon" format="1">
  <advance width="225"/>
  <unicode hex="003A"/>
  <outline>
    <contour>
      <point x="147" y="410" type="curve"/>
      <point x="147" y="432"/>
      <point x="131" y="444"/>
      <point x="109" y="444" type="curve"/>
      <point x="87" y="444"/>
      <point x="72" y="431"/>
      <point x="72" y="410" type="curve"/>
      <point x="137" y="410"/>
      <point x="81" y="410"/>
      <point x="147" y="410" type="curve"/>
      <point x="147" y="388"/>
      <point x="131" y="377"/>
      <point x="108" y="377" type="curve"/>
      <point x="86" y="377"/>
      <point x="72" y="388"/>
      <point x="72" y="410" type="curve"/>
      <point x="137" y="410"/>
      <point x="81" y="410"/>
    </contour>
    <contour>
      <point x="146" y="27" type="curve"/>
      <point x="146" y="50"/>
      <point x="131" y="61"/>
      <point x="108" y="61" type="curve"/>
      <point x="86" y="61"/>
      <point x="72" y="48"/>
      <point x="72" y="27" type="curve"/>
      <point x="137" y="27"/>
      <point x="81" y="27"/>
      <point x="146" y="27" type="curve"/>
      <point x="146" y="5"/>
      <point x="131" y="-6"/>
      <point x="108" y="-6" type="curve"/>
      <point x="86" y="-6"/>
      <point x="72" y="6"/>
      <point x="72" y="27" type="curve"/>
      <point x="137" y="27"/>
      <point x="81" y="27"/>
    </contour>
  </outline>
</glyph>
<glyph name="semicolon" format="1">
  <advance width="195"/>
  <unicode hex="003B"/>
  <outline>
    <contour>
      <point x="43" y="-116" type="line"/>
      <point x="96" y="-98"/>
      <point x="136" y="-55"/>
      <point x="136" y="13" type="curve"/>
      <point x="136" y="51"/>
      <point x="122" y="80"/>
      <point x="91" y="80" type="curve"/>
      <point x="67" y="80"/>
      <point x="52" y="68"/>
      <point x="52" y="46" type="curve"/>
      <point x="52" y="26"/>
      <point x="64" y="14"/>
      <point x="87" y="10" type="curve"/>
      <point x="86" y="-18"/>
      <point x="75" y="-59"/>
      <point x="32" y="-80" type="curve"/>
    </contour>
    <contour>
      <point x="129" y="413" type="curve"/>
      <point x="129" y="435"/>
      <point x="113" y="447"/>
      <point x="91" y="447" type="curve"/>
      <point x="69" y="447"/>
      <point x="55" y="434"/>
      <point x="55" y="413" type="curve"/>
      <point x="120" y="413"/>
      <point x="64" y="413"/>
      <point x="129" y="413" type="curve"/>
      <point x="129" y="391"/>
      <point x="113" y="380"/>
      <point x="91" y="380" type="curve"/>
      <point x="69" y="380"/>
      <point x="55" y="391"/>
      <point x="55" y="413" type="curve"/>
      <point x="120" y="413"/>
      <point x="64" y="413"/>
    </contour>
  </outline>
</glyph>
<glyph name="less" format="1">
  <advance width="736"/>
  <unicode hex="003C"/>
  <outline>
    <contour>
      <point x="672" y="596" type="curve"/>
      <point x="460" y="506"/>
      <point x="248" y="416"/>
      <point x="37" y="326" type="curve"/>
      <point x="37" y="274"/>
      <point x="37" y="326"/>
      <point x="37" y="274" type="curve"/>
      <point x="248" y="364"/>
      <point x="460" y="454"/>
      <point x="672" y="544" type="curve"/>
      <point x="672" y="596"/>
      <point x="672" y="544"/>
    </contour>
    <contour>
      <point x="683" y="62" type="curve"/>
      <point x="467" y="150"/>
      <point x="252" y="238"/>
      <point x="37" y="326" type="curve"/>
      <point x="37" y="274"/>
      <point x="37" y="326"/>
      <point x="37" y="274" type="curve"/>
      <point x="252" y="186"/>
      <point x="467" y="98"/>
      <point x="683" y="10" type="curve"/>
      <point x="683" y="62"/>
      <point x="683" y="10"/>
    </contour>
  </outline>
</glyph>
<glyph name="equal" format="1">
  <advance width="764"/>
  <unicode hex="003D"/>
  <outline>
    <contour>
      <point x="63" y="192" type="curve"/>
      <point x="281" y="192"/>
      <point x="500" y="192"/>
      <point x="719" y="192" type="curve"/>
      <point x="719" y="243"/>
      <point x="719" y="192"/>
      <point x="719" y="243" type="curve"/>
      <point x="500" y="243"/>
      <point x="281" y="243"/>
      <point x="63" y="243" type="curve"/>
      <point x="63" y="192"/>
      <point x="63" y="243"/>
    </contour>
    <contour>
      <point x="63" y="414" type="curve"/>
      <point x="281" y="414"/>
      <point x="500" y="414"/>
      <point x="719" y="414" type="curve"/>
      <point x="719" y="465"/>
      <point x="719" y="414"/>
      <point x="719" y="465" type="curve"/>
      <point x="500" y="465"/>
      <point x="281" y="465"/>
      <point x="63" y="465" type="curve"/>
      <point x="63" y="414"/>
      <point x="63" y="465"/>
    </contour>
  </outline>
</glyph>
<glyph name="greater" format="1">
  <advance width="736"/>
  <unicode hex="003E"/>
  <outline>
    <contour>
      <point x="63" y="10" type="curve"/>
      <point x="275" y="100"/>
      <point x="487" y="190"/>
      <point x="699" y="280" type="curve"/>
      <point x="699" y="332"/>
      <point x="699" y="280"/>
      <point x="699" y="332" type="curve"/>
      <point x="487" y="242"/>
      <point x="275" y="152"/>
      <point x="63" y="62" type="curve"/>
      <point x="63" y="10"/>
      <point x="63" y="62"/>
    </contour>
    <contour>
      <point x="53" y="544" type="curve"/>
      <point x="268" y="456"/>
      <point x="484" y="368"/>
      <point x="699" y="280" type="curve"/>
      <point x="699" y="332"/>
      <point x="699" y="280"/>
      <point x="699" y="332" type="curve"/>
      <point x="484" y="420"/>
      <point x="268" y="508"/>
      <point x="53" y="596" type="curve"/>
      <point x="53" y="544"/>
      <point x="53" y="596"/>
    </contour>
  </outline>
</glyph>
<glyph name="question" format="1">
  <advance width="510"/>
  <unicode hex="003F"/>
  <outline>
    <contour>
      <point x="195" y="348" type="curve"/>
      <point x="195" y="311"/>
      <point x="195" y="258"/>
      <point x="195" y="221" type="curve"/>
      <point x="254" y="221"/>
      <point x="195" y="221"/>
      <point x="254" y="221" type="curve"/>
      <point x="254" y="258"/>
      <point x="254" y="311"/>
      <point x="254" y="348" type="curve"/>
      <point x="195" y="348"/>
      <point x="254" y="348"/>
    </contour>
    <contour>
      <point x="86" y="610" type="line"/>
      <point x="120" y="645"/>
      <point x="169" y="673"/>
      <point x="230" y="673" type="curve"/>
      <point x="330" y="673"/>
      <point x="398" y="617"/>
      <point x="398" y="519" type="curve"/>
      <point x="398" y="410"/>
      <point x="318" y="348"/>
      <point x="201" y="348" type="curve"/>
      <point x="201" y="325"/>
      <point x="201" y="322"/>
      <point x="201" y="299" type="curve"/>
      <point x="351" y="299"/>
      <point x="456" y="380"/>
      <point x="456" y="519" type="curve"/>
      <point x="456" y="648"/>
      <point x="365" y="723"/>
      <point x="234" y="723" type="curve"/>
      <point x="155" y="723"/>
      <point x="97" y="692"/>
      <point x="52" y="646" type="curve"/>
    </contour>
    <contour>
      <point x="260" y="19" type="curve"/>
      <point x="260" y="40"/>
      <point x="246" y="51"/>
      <point x="225" y="51" type="curve"/>
      <point x="203" y="51"/>
      <point x="190" y="39"/>
      <point x="190" y="19" type="curve"/>
      <point x="260" y="19"/>
      <point x="190" y="19"/>
      <point x="260" y="19" type="curve"/>
      <point x="260" y="-2"/>
      <point x="246" y="-12"/>
      <point x="224" y="-12" type="curve"/>
      <point x="203" y="-12"/>
      <point x="190" y="-1"/>
      <point x="190" y="19" type="curve"/>
      <point x="260" y="19"/>
      <point x="190" y="19"/>
    </contour>
  </outline>
</glyph>
<glyph name="at" format="1">
  <advance width="865"/>
  <unicode hex="0040"/>
  <outline>
    <contour>
      <point x="604" y="-63" type="curve"/>
      <point x="549" y="-90"/>
      <point x="508" y="-97"/>
      <point x="446" y="-97" type="curve"/>
      <point x="241" y="-97"/>
      <point x="116" y="9"/>
      <point x="116" y="208" type="curve"/>
      <point x="116" y="403"/>
      <point x="241" y="506"/>
      <point x="441" y="506" type="curve"/>
      <point x="630" y="506"/>
      <point x="745" y="401"/>
      <point x="745" y="216" type="curve"/>
      <point x="745" y="141"/>
      <point x="731" y="79"/>
      <point x="675" y="79" type="curve"/>
      <point x="615" y="79"/>
      <point x="598" y="138"/>
      <point x="598" y="212" type="curve"/>
      <point x="598" y="323"/>
      <point x="538" y="392"/>
      <point x="429" y="392" type="curve"/>
      <point x="312" y="392"/>
      <point x="247" y="326"/>
      <point x="247" y="212" type="curve"/>
      <point x="247" y="94"/>
      <point x="307" y="22"/>
      <point x="422" y="22" type="curve"/>
      <point x="525" y="22"/>
      <point x="571" y="93"/>
      <point x="589" y="199" type="curve"/>
      <point x="551" y="208"/>
      <point x="589" y="199"/>
      <point x="551" y="208" type="curve"/>
      <point x="531" y="130"/>
      <point x="504" y="70"/>
      <point x="430" y="70" type="curve"/>
      <point x="345" y="70"/>
      <point x="304" y="126"/>
      <point x="304" y="214" type="curve"/>
      <point x="304" y="296"/>
      <point x="345" y="343"/>
      <point x="424" y="343" type="curve"/>
      <point x="504" y="343"/>
      <point x="543" y="292"/>
      <point x="543" y="210" type="curve"/>
      <point x="543" y="109"/>
      <point x="576" y="34"/>
      <point x="670" y="34" type="curve"/>
      <point x="767" y="34"/>
      <point x="801" y="111"/>
      <point x="801" y="218" type="curve"/>
      <point x="801" y="436"/>
      <point x="667" y="556"/>
      <point x="444" y="556" type="curve"/>
      <point x="207" y="556"/>
      <point x="59" y="436"/>
      <point x="59" y="205" type="curve"/>
      <point x="59" y="-24"/>
      <point x="206" y="-146"/>
      <point x="442" y="-146" type="curve"/>
      <point x="516" y="-146"/>
      <point x="566" y="-135"/>
      <point x="627" y="-104" type="curve"/>
      <point x="604" y="-63"/>
      <point x="627" y="-104"/>
    </contour>
  </outline>
</glyph>
<glyph name="A" format="1">
  <advance width="683"/>
  <unicode hex="0041"/>
  <outline>
    <contour>
      <point x="519" y="285" type="curve"/>
      <point x="401" y="285"/>
      <point x="284" y="285"/>
      <point x="166" y="285" type="curve"/>
      <point x="141" y="235"/>
      <point x="166" y="285"/>
      <point x="141" y="235" type="curve"/>
      <point x="274" y="235"/>
      <point x="406" y="235"/>
      <point x="538" y="235" type="curve"/>
      <point x="519" y="285"/>
      <point x="538" y="235"/>
    </contour>
    <contour>
      <point x="662" y="0" type="curve"/>
      <point x="568" y="241"/>
      <point x="472" y="481"/>
      <point x="378" y="722" type="curve"/>
      <point x="323" y="722"/>
      <point x="378" y="722"/>
      <point x="323" y="722" type="curve"/>
      <point x="416" y="481"/>
      <point x="506" y="241"/>
      <point x="599" y="0" type="curve"/>
      <point x="662" y="0"/>
      <point x="599" y="0"/>
    </contour>
    <contour>
      <point x="69" y="0" type="curve"/>
      <point x="172" y="241"/>
      <point x="272" y="481"/>
      <point x="376" y="722" type="curve"/>
      <point x="321" y="722"/>
      <point x="376" y="722"/>
      <point x="321" y="722" type="curve"/>
      <point x="216" y="481"/>
      <point x="108" y="241"/>
      <point x="3" y="0" type="curve"/>
      <point x="69" y="0"/>
      <point x="3" y="0"/>
    </contour>
    <contour>
      <point x="349" y="812" type="move" name="top"/>
    </contour>
    <contour>
      <point x="651" y="2" type="move" name="bottom"/>
    </contour>
  </outline>
</glyph>
<glyph name="B" format="1">
  <advance width="646"/>
  <unicode hex="0042"/>
  <outline>
    <contour>
      <point x="132" y="674" type="curve"/>
      <point x="204" y="674"/>
      <point x="269" y="674"/>
      <point x="342" y="674" type="curve"/>
      <point x="425" y="674"/>
      <point x="480" y="631"/>
      <point x="480" y="548" type="curve"/>
      <point x="480" y="466"/>
      <point x="407" y="432"/>
      <point x="319" y="432" type="curve"/>
      <point x="254" y="432"/>
      <point x="197" y="432"/>
      <point x="132" y="432" type="curve"/>
      <point x="132" y="398"/>
      <point x="132" y="418"/>
      <point x="132" y="384" type="curve"/>
      <point x="187" y="384"/>
      <point x="238" y="384"/>
      <point x="293" y="384" type="curve"/>
      <point x="416" y="384"/>
      <point x="541" y="426"/>
      <point x="541" y="548" type="curve"/>
      <point x="541" y="662"/>
      <point x="462" y="722"/>
      <point x="343" y="722" type="curve"/>
      <point x="270" y="722"/>
      <point x="205" y="722"/>
      <point x="132" y="722" type="curve"/>
      <point x="132" y="688"/>
      <point x="132" y="708"/>
    </contour>
    <contour>
      <point x="173" y="0" type="curve"/>
      <point x="173" y="241"/>
      <point x="173" y="481"/>
      <point x="173" y="722" type="curve"/>
      <point x="110" y="722"/>
      <point x="173" y="722"/>
      <point x="110" y="722" type="curve"/>
      <point x="110" y="481"/>
      <point x="110" y="241"/>
      <point x="110" y="0" type="curve"/>
      <point x="173" y="0"/>
      <point x="110" y="0"/>
    </contour>
    <contour>
      <point x="132" y="384" type="curve"/>
      <point x="197" y="384"/>
      <point x="254" y="384"/>
      <point x="319" y="384" type="curve"/>
      <point x="442" y="384"/>
      <point x="529" y="330"/>
      <point x="529" y="210" type="curve"/>
      <point x="529" y="102"/>
      <point x="456" y="48"/>
      <point x="341" y="48" type="curve"/>
      <point x="269" y="48"/>
      <point x="204" y="48"/>
      <point x="132" y="48" type="curve"/>
      <point x="132" y="14"/>
      <point x="132" y="34"/>
      <point x="132" y="0" type="curve"/>
      <point x="205" y="0"/>
      <point x="269" y="0"/>
      <point x="343" y="0" type="curve"/>
      <point x="492" y="0"/>
      <point x="590" y="69"/>
      <point x="590" y="210" type="curve"/>
      <point x="590" y="369"/>
      <point x="452" y="432"/>
      <point x="294" y="432" type="curve"/>
      <point x="238" y="432"/>
      <point x="187" y="432"/>
      <point x="132" y="432" type="curve"/>
      <point x="132" y="398"/>
      <point x="132" y="418"/>
    </contour>
  </outline>
</glyph>
<glyph name="C" format="1">
  <advance width="704"/>
  <unicode hex="0043"/>
  <outline>
    <contour>
      <point x="661" y="655" type="curve"/>
      <point x="588" y="696"/>
      <point x="507" y="727"/>
      <point x="416" y="727" type="curve"/>
      <point x="186" y="727"/>
      <point x="62" y="581"/>
      <point x="62" y="344" type="curve"/>
      <point x="62" y="127"/>
      <point x="179" y="-5"/>
      <point x="393" y="-5" type="curve"/>
      <point x="512" y="-5"/>
      <point x="588" y="28"/>
      <point x="676" y="95" type="curve"/>
      <point x="646" y="134"/>
      <point x="676" y="95"/>
      <point x="645" y="134" type="curve"/>
      <point x="565" y="74"/>
      <point x="497" y="47"/>
      <point x="395" y="47" type="curve"/>
      <point x="216" y="47"/>
      <point x="122" y="162"/>
      <point x="122" y="346" type="curve"/>
      <point x="122" y="547"/>
      <point x="221" y="677"/>
      <point x="413" y="677" type="curve"/>
      <point x="493" y="677"/>
      <point x="565" y="653"/>
      <point x="632" y="616" type="curve"/>
      <point x="661" y="655"/>
      <point x="632" y="616"/>
    </contour>
    <contour>
      <point x="409" y="812" type="move" name="top"/>
    </contour>
    <contour>
      <point x="402" y="4" type="move" name="bottom"/>
    </contour>
  </outline>
</glyph>
<glyph name="D" format="1">
  <advance width="760"/>
  <unicode hex="0044"/>
  <outline>
    <contour>
      <point x="110" y="722" type="curve"/>
      <point x="110" y="481"/>
      <point x="110" y="241"/>
      <point x="110" y="0" type="curve"/>
      <point x="170" y="0"/>
      <point x="110" y="0"/>
      <point x="170" y="0" type="curve"/>
      <point x="170" y="241"/>
      <point x="170" y="481"/>
      <point x="170" y="722" type="curve"/>
      <point x="110" y="722"/>
      <point x="170" y="722"/>
    </contour>
    <contour>
      <point x="142" y="0" type="curve"/>
      <point x="210" y="0"/>
      <point x="273" y="0"/>
      <point x="342" y="0" type="curve"/>
      <point x="573" y="0"/>
      <point x="697" y="123"/>
      <point x="697" y="353" type="curve"/>
      <point x="697" y="592"/>
      <point x="570" y="722"/>
      <point x="331" y="722" type="curve"/>
      <point x="266" y="722"/>
      <point x="207" y="722"/>
      <point x="142" y="722" type="curve"/>
      <point x="142" y="679"/>
      <point x="142" y="717"/>
      <point x="142" y="674" type="curve"/>
      <point x="206" y="674"/>
      <point x="265" y="674"/>
      <point x="328" y="674" type="curve"/>
      <point x="533" y="674"/>
      <point x="637" y="558"/>
      <point x="637" y="352" type="curve"/>
      <point x="637" y="157"/>
      <point x="540" y="48"/>
      <point x="347" y="48" type="curve"/>
      <point x="277" y="48"/>
      <point x="212" y="48"/>
      <point x="142" y="48" type="curve"/>
      <point x="142" y="5"/>
      <point x="142" y="43"/>
    </contour>
    <contour>
      <point x="313" y="812" type="move" name="top"/>
    </contour>
  </outline>
</glyph>
<glyph name="E" format="1">
  <advance width="614"/>
  <unicode hex="0045"/>
  <outline>
    <contour>
      <point x="146" y="350" type="curve"/>
      <point x="260" y="350"/>
      <point x="374" y="350"/>
      <point x="489" y="350" type="curve"/>
      <point x="489" y="398"/>
      <point x="489" y="350"/>
      <point x="489" y="398" type="curve"/>
      <point x="374" y="398"/>
      <point x="260" y="398"/>
      <point x="146" y="398" type="curve"/>
      <point x="146" y="350"/>
      <point x="146" y="398"/>
    </contour>
    <contour>
      <point x="130" y="674" type="curve"/>
      <point x="272" y="674"/>
      <point x="413" y="674"/>
      <point x="554" y="674" type="curve"/>
      <point x="554" y="722"/>
      <point x="554" y="674"/>
      <point x="554" y="722" type="curve"/>
      <point x="413" y="722"/>
      <point x="272" y="722"/>
      <point x="130" y="722" type="curve"/>
      <point x="130" y="674"/>
      <point x="130" y="722"/>
    </contour>
    <contour>
      <point x="170" y="0" type="curve"/>
      <point x="170" y="722" type="line"/>
      <point x="110" y="722"/>
      <point x="170" y="722"/>
      <point x="110" y="722" type="curve"/>
      <point x="110" y="481"/>
      <point x="110" y="241"/>
      <point x="110" y="0" type="curve"/>
      <point x="170" y="0"/>
      <point x="110" y="0"/>
    </contour>
    <contour>
      <point x="130" y="0" type="curve"/>
      <point x="283" y="0"/>
      <point x="436" y="0"/>
      <point x="589" y="0" type="curve"/>
      <point x="589" y="48"/>
      <point x="589" y="0"/>
      <point x="589" y="48" type="curve"/>
      <point x="436" y="48"/>
      <point x="283" y="48"/>
      <point x="130" y="48" type="curve"/>
      <point x="130" y="0"/>
      <point x="130" y="48"/>
    </contour>
    <contour>
      <point x="305" y="812" type="move" name="top"/>
    </contour>
    <contour>
      <point x="569" y="5" type="move" name="bottom"/>
    </contour>
  </outline>
</glyph>
<glyph name="F" format="1">
  <advance width="579"/>
  <unicode hex="0046"/>
  <outline>
    <contour>
      <point x="145" y="350" type="curve"/>
      <point x="257" y="350"/>
      <point x="369" y="350"/>
      <point x="481" y="350" type="curve"/>
      <point x="481" y="398"/>
      <point x="481" y="350"/>
      <point x="481" y="398" type="curve"/>
      <point x="369" y="398"/>
      <point x="257" y="398"/>
      <point x="145" y="398" type="curve"/>
      <point x="145" y="350"/>
      <point x="145" y="398"/>
    </contour>
    <contour>
      <point x="171" y="0" type="curve"/>
      <point x="171" y="722" type="line"/>
      <point x="111" y="722"/>
      <point x="171" y="722"/>
      <point x="111" y="722" type="curve"/>
      <point x="111" y="481"/>
      <point x="111" y="241"/>
      <point x="111" y="0" type="curve"/>
      <point x="171" y="0"/>
      <point x="111" y="0"/>
    </contour>
    <contour>
      <point x="130" y="674" type="curve"/>
      <point x="272" y="674"/>
      <point x="415" y="674"/>
      <point x="558" y="674" type="curve"/>
      <point x="558" y="722"/>
      <point x="558" y="674"/>
      <point x="558" y="722" type="curve"/>
      <point x="415" y="722"/>
      <point x="272" y="722"/>
      <point x="130" y="722" type="curve"/>
      <point x="130" y="674"/>
      <point x="130" y="722"/>
    </contour>
  </outline>
</glyph>
<glyph name="G" format="1">
  <advance width="804"/>
  <unicode hex="0047"/>
  <outline>
    <contour>
      <point x="720" y="334" type="curve"/>
      <point x="644" y="334"/>
      <point x="567" y="334"/>
      <point x="491" y="334" type="curve"/>
      <point x="491" y="286"/>
      <point x="491" y="334"/>
      <point x="491" y="286" type="curve"/>
      <point x="567" y="286"/>
      <point x="644" y="286"/>
      <point x="720" y="286" type="curve"/>
      <point x="720" y="334"/>
      <point x="720" y="286"/>
    </contour>
    <contour>
      <point x="738" y="78" type="curve"/>
      <point x="738" y="163"/>
      <point x="738" y="248"/>
      <point x="738" y="334" type="curve"/>
      <point x="683" y="334"/>
      <point x="738" y="334"/>
      <point x="683" y="334" type="curve"/>
      <point x="683" y="248"/>
      <point x="683" y="163"/>
      <point x="683" y="78" type="curve"/>
      <point x="738" y="78"/>
      <point x="683" y="78"/>
    </contour>
    <contour>
      <point x="720" y="643" type="curve"/>
      <point x="624" y="701"/>
      <point x="536" y="727"/>
      <point x="423" y="727" type="curve"/>
      <point x="193" y="727"/>
      <point x="61" y="595"/>
      <point x="61" y="363" type="curve"/>
      <point x="61" y="127"/>
      <point x="199" y="-5"/>
      <point x="434" y="-5" type="curve"/>
      <point x="555" y="-5"/>
      <point x="632" y="22"/>
      <point x="738" y="78" type="curve"/>
      <point x="707" y="114"/>
      <point x="738" y="78"/>
      <point x="707" y="114" type="curve"/>
      <point x="618" y="68"/>
      <point x="541" y="46"/>
      <point x="435" y="46" type="curve"/>
      <point x="233" y="46"/>
      <point x="122" y="164"/>
      <point x="122" y="368" type="curve"/>
      <point x="122" y="562"/>
      <point x="231" y="677"/>
      <point x="423" y="677" type="curve"/>
      <point x="524" y="677"/>
      <point x="603" y="653"/>
      <point x="693" y="602" type="curve"/>
      <point x="720" y="643"/>
      <point x="693" y="602"/>
    </contour>
    <contour>
      <point x="422" y="812" type="move" name="top"/>
    </contour>
    <contour>
      <point x="451" y="-23" type="move" name="bottom"/>
    </contour>
  </outline>
</glyph>
<glyph name="H" format="1">
  <advance width="806"/>
  <unicode hex="0048"/>
  <outline>
    <contour>
      <point x="170" y="0" type="curve"/>
      <point x="170" y="722" type="line"/>
      <point x="110" y="722"/>
      <point x="170" y="722"/>
      <point x="110" y="722" type="curve"/>
      <point x="110" y="481"/>
      <point x="110" y="241"/>
      <point x="110" y="0" type="curve"/>
      <point x="170" y="0"/>
      <point x="110" y="0"/>
    </contour>
    <contour>
      <point x="664" y="387" type="curve"/>
      <point x="489" y="387"/>
      <point x="314" y="387"/>
      <point x="140" y="387" type="curve"/>
      <point x="140" y="339"/>
      <point x="140" y="387"/>
      <point x="140" y="339" type="curve"/>
      <point x="314" y="339"/>
      <point x="489" y="339"/>
      <point x="664" y="339" type="curve"/>
      <point x="664" y="387"/>
      <point x="664" y="339"/>
    </contour>
    <contour>
      <point x="696" y="1" type="curve"/>
      <point x="696" y="232"/>
      <point x="696" y="490"/>
      <point x="696" y="721" type="curve"/>
      <point x="636" y="721"/>
      <point x="696" y="721"/>
      <point x="636" y="721" type="curve"/>
      <point x="636" y="1" type="line"/>
      <point x="696" y="1"/>
      <point x="636" y="1"/>
    </contour>
  </outline>
</glyph>
<glyph name="I" format="1">
  <advance width="280"/>
  <unicode hex="0049"/>
  <outline>
    <contour>
      <point x="170" y="0" type="curve"/>
      <point x="170" y="241"/>
      <point x="170" y="481"/>
      <point x="170" y="722" type="curve"/>
      <point x="110" y="722"/>
      <point x="170" y="722"/>
      <point x="110" y="722" type="curve"/>
      <point x="110" y="481"/>
      <point x="110" y="241"/>
      <point x="110" y="0" type="curve"/>
      <point x="170" y="0"/>
      <point x="110" y="0"/>
    </contour>
    <contour>
      <point x="141" y="812" type="move" name="top"/>
    </contour>
    <contour>
      <point x="169" y="1" type="move" name="bottom"/>
    </contour>
  </outline>
</glyph>
<glyph name="J" format="1">
  <advance width="455"/>
  <unicode hex="004A"/>
  <outline>
    <contour>
      <point x="11" y="42" type="curve"/>
      <point x="44" y="20"/>
      <point x="88" y="-3"/>
      <point x="144" y="-3" type="curve"/>
      <point x="283" y="-3"/>
      <point x="353" y="79"/>
      <point x="353" y="225" type="curve"/>
      <point x="353" y="398"/>
      <point x="353" y="549"/>
      <point x="353" y="722" type="curve"/>
      <point x="298" y="722"/>
      <point x="348" y="722"/>
      <point x="293" y="722" type="curve"/>
      <point x="293" y="549"/>
      <point x="293" y="398"/>
      <point x="293" y="225" type="curve"/>
      <point x="293" y="117"/>
      <point x="248" y="45"/>
      <point x="144" y="45" type="curve"/>
      <point x="101" y="45"/>
      <point x="73" y="61"/>
      <point x="39" y="80" type="curve"/>
      <point x="14" y="46"/>
      <point x="36" y="76"/>
    </contour>
  </outline>
</glyph>
<glyph name="K" format="1">
  <advance width="604"/>
  <unicode hex="004B"/>
  <outline>
    <contour>
      <point x="493" y="722" type="curve"/>
      <point x="150" y="380" type="line"/>
      <point x="227" y="380"/>
      <point x="151" y="380"/>
      <point x="228" y="380" type="curve"/>
      <point x="573" y="722" type="line"/>
      <point x="497" y="722"/>
      <point x="569" y="722"/>
    </contour>
    <contour>
      <point x="170" y="0" type="curve"/>
      <point x="170" y="722" type="line"/>
      <point x="110" y="722"/>
      <point x="170" y="722"/>
      <point x="110" y="722" type="curve"/>
      <point x="110" y="481"/>
      <point x="110" y="241"/>
      <point x="110" y="0" type="curve"/>
      <point x="170" y="0"/>
      <point x="110" y="0"/>
    </contour>
    <contour>
      <point x="599" y="0" type="curve"/>
      <point x="228" y="380" type="line"/>
      <point x="151" y="380"/>
      <point x="227" y="380"/>
      <point x="150" y="380" type="curve"/>
      <point x="516" y="0" type="line"/>
      <point x="596" y="0"/>
      <point x="519" y="0"/>
    </contour>
    <contour>
      <point x="380" y="-25" type="move" name="bottom"/>
    </contour>
  </outline>
</glyph>
<glyph name="L" format="1">
  <advance width="590"/>
  <unicode hex="004C"/>
  <outline>
    <contour>
      <point x="170" y="0" type="curve"/>
      <point x="170" y="241"/>
      <point x="170" y="481"/>
      <point x="170" y="722" type="curve"/>
      <point x="110" y="722"/>
      <point x="170" y="722"/>
      <point x="110" y="722" type="curve"/>
      <point x="110" y="481"/>
      <point x="110" y="241"/>
      <point x="110" y="0" type="curve"/>
      <point x="170" y="0"/>
      <point x="110" y="0"/>
    </contour>
    <contour>
      <point x="139" y="0" type="curve"/>
      <point x="286" y="0"/>
      <point x="433" y="0"/>
      <point x="580" y="0" type="curve"/>
      <point x="580" y="48"/>
      <point x="580" y="0"/>
      <point x="580" y="48" type="curve"/>
      <point x="433" y="48"/>
      <point x="286" y="48"/>
      <point x="139" y="48" type="curve"/>
      <point x="139" y="0"/>
      <point x="139" y="48"/>
    </contour>
    <contour>
      <point x="141" y="812" type="move" name="top"/>
    </contour>
    <contour>
      <point x="324" y="-23" type="move" name="bottom"/>
    </contour>
  </outline>
</glyph>
<glyph name="M" format="1">
  <advance width="933"/>
  <unicode hex="004D"/>
  <outline>
    <contour>
      <point x="857" y="0" type="curve"/>
      <point x="835" y="241"/>
      <point x="812" y="481"/>
      <point x="791" y="722" type="curve"/>
      <point x="736" y="722"/>
      <point x="791" y="722"/>
      <point x="736" y="722" type="curve"/>
      <point x="757" y="481"/>
      <point x="776" y="241"/>
      <point x="797" y="0" type="curve"/>
      <point x="857" y="0"/>
      <point x="797" y="0"/>
    </contour>
    <contour>
      <point x="136" y="0" type="curve"/>
      <point x="155" y="241"/>
      <point x="175" y="481"/>
      <point x="195" y="722" type="curve"/>
      <point x="139" y="722"/>
      <point x="195" y="722"/>
      <point x="139" y="722" type="curve"/>
      <point x="119" y="481"/>
      <point x="98" y="241"/>
      <point x="78" y="0" type="curve"/>
      <point x="136" y="0"/>
      <point x="78" y="0"/>
    </contour>
    <contour>
      <point x="492" y="0" type="curve"/>
      <point x="394" y="241"/>
      <point x="297" y="481"/>
      <point x="198" y="722" type="curve"/>
      <point x="142" y="722"/>
      <point x="197" y="722"/>
      <point x="141" y="722" type="curve"/>
      <point x="239" y="481"/>
      <point x="336" y="241"/>
      <point x="434" y="0" type="curve"/>
      <point x="491" y="0"/>
      <point x="434" y="0"/>
    </contour>
    <contour>
      <point x="501" y="0" type="curve"/>
      <point x="596" y="241"/>
      <point x="692" y="481"/>
      <point x="788" y="722" type="curve"/>
      <point x="732" y="722"/>
      <point x="787" y="722"/>
      <point x="731" y="722" type="curve"/>
      <point x="634" y="481"/>
      <point x="538" y="241"/>
      <point x="441" y="0" type="curve"/>
      <point x="500" y="0"/>
      <point x="442" y="0"/>
    </contour>
  </outline>
</glyph>
<glyph name="N" format="1">
  <advance width="849"/>
  <unicode hex="004E"/>
  <outline>
    <contour>
      <point x="738" y="0" type="curve"/>
      <point x="552" y="241"/>
      <point x="367" y="481"/>
      <point x="181" y="722" type="curve"/>
      <point x="111" y="722"/>
      <point x="180" y="722"/>
      <point x="110" y="722" type="curve"/>
      <point x="296" y="481"/>
      <point x="481" y="241"/>
      <point x="667" y="0" type="curve"/>
      <point x="737" y="0"/>
      <point x="668" y="0"/>
    </contour>
    <contour>
      <point x="679" y="722" type="curve"/>
      <point x="679" y="481"/>
      <point x="679" y="241"/>
      <point x="679" y="0" type="curve"/>
      <point x="739" y="0"/>
      <point x="679" y="0"/>
      <point x="739" y="0" type="curve"/>
      <point x="739" y="241"/>
      <point x="739" y="481"/>
      <point x="739" y="722" type="curve"/>
      <point x="679" y="722"/>
      <point x="739" y="722"/>
    </contour>
    <contour>
      <point x="171" y="0" type="curve"/>
      <point x="171" y="241"/>
      <point x="171" y="481"/>
      <point x="171" y="722" type="curve"/>
      <point x="110" y="722"/>
      <point x="171" y="722"/>
      <point x="110" y="722" type="curve"/>
      <point x="110" y="481"/>
      <point x="110" y="241"/>
      <point x="110" y="0" type="curve"/>
      <point x="171" y="0"/>
      <point x="110" y="0"/>
    </contour>
    <contour>
      <point x="425" y="812" type="move" name="top"/>
    </contour>
    <contour>
      <point x="441" y="-24" type="move" name="bottom"/>
    </contour>
  </outline>
</glyph>
<glyph name="P" format="1">
  <advance width="598"/>
  <unicode hex="0050"/>
  <outline>
    <contour>
      <point x="133" y="316" type="curve"/>
      <point x="189" y="290"/>
      <point x="247" y="271"/>
      <point x="310" y="271" type="curve"/>
      <point x="454" y="273"/>
      <point x="549" y="347"/>
      <point x="549" y="490" type="curve"/>
      <point x="549" y="639"/>
      <point x="437" y="722"/>
      <point x="280" y="722" type="curve"/>
      <point x="235" y="722"/>
      <point x="190" y="722"/>
      <point x="145" y="722" type="curve"/>
      <point x="145" y="674"/>
      <point x="145" y="722"/>
      <point x="145" y="674" type="curve"/>
      <point x="187" y="674"/>
      <point x="230" y="674"/>
      <point x="272" y="674" type="curve"/>
      <point x="400" y="674"/>
      <point x="489" y="610"/>
      <point x="489" y="490" type="curve"/>
      <point x="489" y="381"/>
      <point x="415" y="318"/>
      <point x="307" y="318" type="curve"/>
      <point x="247" y="318"/>
      <point x="206" y="333"/>
      <point x="153" y="359" type="curve"/>
      <point x="133" y="317"/>
      <point x="153" y="358"/>
    </contour>
    <contour>
      <point x="170" y="0" type="curve"/>
      <point x="170" y="241"/>
      <point x="170" y="481"/>
      <point x="170" y="722" type="curve"/>
      <point x="110" y="722"/>
      <point x="170" y="722"/>
      <point x="110" y="722" type="curve"/>
      <point x="110" y="481"/>
      <point x="110" y="241"/>
      <point x="110" y="0" type="curve"/>
      <point x="170" y="0"/>
      <point x="110" y="0"/>
    </contour>
  </outline>
</glyph>
<glyph name="Q" format="1">
  <advance width="871"/>
  <unicode hex="0051"/>
  <outline>
    <contour>
      <point x="376" y="11" type="curve"/>
      <point x="487" y="-170"/>
      <point x="613" y="-231"/>
      <point x="815" y="-231" type="curve"/>
      <point x="815" y="-181"/>
      <point x="815" y="-231"/>
      <point x="815" y="-181" type="curve"/>
      <point x="638" y="-181"/>
      <point x="528" y="-126"/>
      <point x="428" y="35" type="curve"/>
      <point x="376" y="11"/>
      <point x="428" y="35"/>
    </contour>
    <contour>
      <point x="122" y="360" type="curve"/>
      <point x="122" y="545"/>
      <point x="214" y="675"/>
      <point x="392" y="675" type="curve"/>
      <point x="571" y="675"/>
      <point x="664" y="547"/>
      <point x="664" y="362" type="curve"/>
      <point x="664" y="177"/>
      <point x="574" y="46"/>
      <point x="397" y="46" type="curve"/>
      <point x="216" y="46"/>
      <point x="122" y="174"/>
      <point x="122" y="360" type="curve"/>
      <point x="62" y="360"/>
      <point x="122" y="360"/>
      <point x="62" y="360" type="curve"/>
      <point x="62" y="141"/>
      <point x="181" y="-5"/>
      <point x="394" y="-5" type="curve"/>
      <point x="607" y="-5"/>
      <point x="725" y="144"/>
      <point x="725" y="365" type="curve"/>
      <point x="725" y="582"/>
      <point x="608" y="728"/>
      <point x="396" y="728" type="curve"/>
      <point x="182" y="728"/>
      <point x="62" y="580"/>
      <point x="62" y="360" type="curve"/>
      <point x="122" y="360"/>
      <point x="62" y="360"/>
    </contour>
  </outline>
</glyph>
<glyph name="V" format="1">
  <advance width="680"/>
  <unicode hex="0056"/>
  <outline>
    <contour>
      <point x="603" y="722" type="curve"/>
      <point x="506" y="481"/>
      <point x="410" y="241"/>
      <point x="315" y="0" type="curve"/>
      <point x="378" y="0"/>
      <point x="312" y="0"/>
      <point x="376" y="0" type="curve"/>
      <point x="472" y="241"/>
      <point x="569" y="481"/>
      <point x="665" y="722" type="curve"/>
      <point x="603" y="722"/>
      <point x="665" y="722"/>
    </contour>
    <contour>
      <point x="12" y="722" type="curve"/>
      <point x="110" y="481"/>
      <point x="208" y="241"/>
      <point x="306" y="0" type="curve"/>
      <point x="369" y="0"/>
      <point x="305" y="0"/>
      <point x="368" y="0" type="curve"/>
      <point x="271" y="241"/>
      <point x="173" y="481"/>
      <point x="76" y="722" type="curve"/>
      <point x="12" y="722"/>
      <point x="76" y="722"/>
    </contour>
  </outline>
</glyph>
<glyph name="W" format="1">
  <advance width="908"/>
  <unicode hex="0057"/>
  <outline>
    <contour>
      <point x="278" y="0" type="curve"/>
      <point x="348" y="241"/>
      <point x="417" y="481"/>
      <point x="486" y="722" type="curve"/>
      <point x="430" y="722"/>
      <point x="487" y="722"/>
      <point x="431" y="722" type="curve"/>
      <point x="363" y="481"/>
      <point x="295" y="241"/>
      <point x="227" y="0" type="curve"/>
      <point x="279" y="0"/>
      <point x="226" y="0"/>
    </contour>
    <contour>
      <point x="439" y="722" type="curve"/>
      <point x="502" y="481"/>
      <point x="563" y="241"/>
      <point x="627" y="0" type="curve"/>
      <point x="679" y="0"/>
      <point x="625" y="0"/>
      <point x="677" y="0" type="curve"/>
      <point x="616" y="242"/>
      <point x="556" y="481"/>
      <point x="494" y="722" type="curve"/>
      <point x="438" y="722"/>
      <point x="496" y="722"/>
    </contour>
    <contour>
      <point x="30" y="722" type="curve"/>
      <point x="93" y="481"/>
      <point x="156" y="241"/>
      <point x="220" y="0" type="curve"/>
      <point x="271" y="0"/>
      <point x="221" y="0"/>
      <point x="273" y="0" type="curve"/>
      <point x="211" y="241"/>
      <point x="150" y="481"/>
      <point x="88" y="722" type="curve"/>
      <point x="30" y="722"/>
      <point x="88" y="722"/>
    </contour>
    <contour>
      <point x="824" y="722" type="curve"/>
      <point x="760" y="481"/>
      <point x="696" y="241"/>
      <point x="633" y="0" type="curve"/>
      <point x="685" y="0"/>
      <point x="633" y="0"/>
      <point x="685" y="0" type="curve"/>
      <point x="751" y="241"/>
      <point x="817" y="481"/>
      <point x="883" y="722" type="curve"/>
      <point x="824" y="722"/>
      <point x="883" y="722"/>
    </contour>
  </outline>
</glyph>
<glyph name="X" format="1">
  <advance width="629"/>
  <unicode hex="0058"/>
  <outline>
    <contour>
      <point x="528" y="722" type="curve"/>
      <point x="357" y="483"/>
      <point x="177" y="239"/>
      <point x="5" y="0" type="curve"/>
      <point x="71" y="0"/>
      <point x="13" y="0"/>
      <point x="79" y="0" type="curve"/>
      <point x="249" y="239"/>
      <point x="426" y="483"/>
      <point x="597" y="722" type="curve"/>
      <point x="535" y="722"/>
      <point x="590" y="722"/>
    </contour>
    <contour>
      <point x="38" y="722" type="curve"/>
      <point x="207" y="483"/>
      <point x="381" y="239"/>
      <point x="550" y="0" type="curve"/>
      <point x="616" y="0"/>
      <point x="555" y="0"/>
      <point x="620" y="0" type="curve"/>
      <point x="450" y="239"/>
      <point x="275" y="483"/>
      <point x="105" y="722" type="curve"/>
      <point x="43" y="722"/>
      <point x="99" y="722"/>
    </contour>
  </outline>
</glyph>
<glyph name="Y" format="1">
  <advance width="600"/>
  <unicode hex="0059"/>
  <outline>
    <contour>
      <point x="21" y="722" type="curve"/>
      <point x="101" y="596"/>
      <point x="188" y="463"/>
      <point x="268" y="337" type="curve"/>
      <point x="331" y="337"/>
      <point x="265" y="339"/>
      <point x="328" y="339" type="curve"/>
      <point x="248" y="467"/>
      <point x="168" y="594"/>
      <point x="88" y="722" type="curve"/>
      <point x="29" y="722"/>
      <point x="80" y="722"/>
    </contour>
    <contour>
      <point x="526" y="722" type="curve"/>
      <point x="441" y="594"/>
      <point x="357" y="467"/>
      <point x="271" y="339" type="curve"/>
      <point x="334" y="339"/>
      <point x="270" y="337"/>
      <point x="332" y="337" type="curve"/>
      <point x="417" y="463"/>
      <point x="506" y="596"/>
      <point x="591" y="722" type="curve"/>
      <point x="532" y="722"/>
      <point x="586" y="722"/>
    </contour>
    <contour>
      <point x="333" y="0" type="curve"/>
      <point x="333" y="115"/>
      <point x="333" y="230"/>
      <point x="333" y="345" type="curve"/>
      <point x="267" y="345"/>
      <point x="333" y="345"/>
      <point x="267" y="345" type="curve"/>
      <point x="267" y="230"/>
      <point x="267" y="115"/>
      <point x="267" y="0" type="curve"/>
      <point x="333" y="0"/>
      <point x="267" y="0"/>
    </contour>
    <contour>
      <point x="303" y="812" type="move" name="top"/>
    </contour>
  </outline>
</glyph>
<glyph name="bracketleft" format="1">
  <advance width="298"/>
  <unicode hex="005B"/>
  <outline>
    <contour>
      <point x="267" y="770" type="curve"/>
      <point x="214" y="770"/>
      <point x="161" y="770"/>
      <point x="107" y="770" type="curve"/>
      <point x="101" y="770"/>
      <point x="91" y="770"/>
      <point x="84" y="770" type="curve"/>
      <point x="84" y="764"/>
      <point x="84" y="756"/>
      <point x="84" y="750" type="curve"/>
      <point x="84" y="466"/>
      <point x="84" y="182"/>
      <point x="84" y="-102" type="curve"/>
      <point x="84" y="-108"/>
      <point x="84" y="-114"/>
      <point x="84" y="-121" type="curve"/>
      <point x="90" y="-121"/>
      <point x="100" y="-121"/>
      <point x="106" y="-121" type="curve"/>
      <point x="160" y="-121"/>
      <point x="213" y="-121"/>
      <point x="267" y="-121" type="curve"/>
      <point x="267" y="-68"/>
      <point x="267" y="-121"/>
      <point x="267" y="-68" type="curve"/>
      <point x="213" y="-68"/>
      <point x="160" y="-68"/>
      <point x="106" y="-68" type="curve"/>
      <point x="145" y="-68"/>
      <point x="106" y="-68"/>
      <point x="145" y="-68" type="curve"/>
      <point x="145" y="-102"/>
      <point x="145" y="-68"/>
      <point x="145" y="-102" type="curve"/>
      <point x="145" y="182"/>
      <point x="145" y="466"/>
      <point x="145" y="750" type="curve"/>
      <point x="145" y="718"/>
      <point x="145" y="750"/>
      <point x="145" y="718" type="curve"/>
      <point x="107" y="718"/>
      <point x="145" y="718"/>
      <point x="107" y="718" type="curve"/>
      <point x="161" y="718"/>
      <point x="214" y="718"/>
      <point x="267" y="718" type="curve"/>
      <point x="267" y="770"/>
      <point x="267" y="718"/>
    </contour>
  </outline>
</glyph>
<glyph name="bracketright" format="1">
  <advance width="298"/>
  <unicode hex="005D"/>
  <outline>
    <contour>
      <point x="31" y="718" type="curve"/>
      <point x="84" y="718"/>
      <point x="137" y="718"/>
      <point x="191" y="718" type="curve"/>
      <point x="184" y="723"/>
      <point x="176" y="726"/>
      <point x="170" y="732" type="curve"/>
      <point x="164" y="737"/>
      <point x="159" y="744"/>
      <point x="153" y="750" type="curve"/>
      <point x="153" y="466"/>
      <point x="153" y="182"/>
      <point x="153" y="-102" type="curve"/>
      <point x="159" y="-96"/>
      <point x="165" y="-89"/>
      <point x="172" y="-83" type="curve"/>
      <point x="178" y="-78"/>
      <point x="185" y="-74"/>
      <point x="192" y="-68" type="curve"/>
      <point x="138" y="-68"/>
      <point x="84" y="-68"/>
      <point x="31" y="-68" type="curve"/>
      <point x="31" y="-121"/>
      <point x="31" y="-68"/>
      <point x="31" y="-121" type="curve"/>
      <point x="84" y="-121"/>
      <point x="138" y="-121"/>
      <point x="192" y="-121" type="curve"/>
      <point x="214" y="-121"/>
      <point x="192" y="-121"/>
      <point x="214" y="-121" type="curve"/>
      <point x="214" y="-102"/>
      <point x="214" y="-121"/>
      <point x="214" y="-102" type="curve"/>
      <point x="213" y="182"/>
      <point x="214" y="466"/>
      <point x="214" y="750" type="curve"/>
      <point x="214" y="770"/>
      <point x="214" y="750"/>
      <point x="214" y="770" type="curve"/>
      <point x="191" y="770"/>
      <point x="214" y="770"/>
      <point x="191" y="770" type="curve"/>
      <point x="137" y="770"/>
      <point x="84" y="770"/>
      <point x="31" y="770" type="curve"/>
      <point x="31" y="718"/>
      <point x="31" y="770"/>
    </contour>
  </outline>
</glyph>
<glyph name="asciicircum" format="1">
  <advance width="531"/>
  <unicode hex="005E"/>
  <outline>
    <contour>
      <point x="113" y="462" type="curve"/>
      <point x="173" y="573"/>
      <point x="234" y="683"/>
      <point x="295" y="793" type="curve"/>
      <point x="235" y="793"/>
      <point x="294" y="793"/>
      <point x="234" y="793" type="curve"/>
      <point x="173" y="683"/>
      <point x="113" y="573"/>
      <point x="52" y="462" type="curve"/>
      <point x="112" y="462"/>
      <point x="53" y="462"/>
    </contour>
    <contour>
      <point x="479" y="462" type="curve"/>
      <point x="419" y="570"/>
      <point x="355" y="686"/>
      <point x="295" y="793" type="curve"/>
      <point x="236" y="793"/>
      <point x="295" y="793"/>
      <point x="235" y="793" type="curve"/>
      <point x="294" y="686"/>
      <point x="359" y="570"/>
      <point x="418" y="462" type="curve"/>
      <point x="478" y="462"/>
      <point x="419" y="462"/>
    </contour>
  </outline>
</glyph>
<glyph name="underscore" format="1">
  <advance width="711"/>
  <unicode hex="005F"/>
  <outline>
    <contour>
      <point x="0" y="-202" type="curve"/>
      <point x="237" y="-202"/>
      <point x="474" y="-202"/>
      <point x="711" y="-202" type="curve"/>
      <point x="711" y="-154"/>
      <point x="711" y="-202"/>
      <point x="711" y="-154" type="curve"/>
      <point x="474" y="-154"/>
      <point x="237" y="-154"/>
      <point x="0" y="-154" type="curve"/>
      <point x="0" y="-202"/>
      <point x="0" y="-154"/>
    </contour>
  </outline>
</glyph>
<glyph name="grave" format="1">
  <advance width="343"/>
  <unicode hex="0060"/>
  <outline>
    <contour>
      <point x="306" y="582" type="line"/>
      <point x="179" y="748" type="line"/>
      <point x="98" y="748" type="line"/>
      <point x="244" y="582" type="line"/>
    </contour>
    <contour>
      <point x="271" y="582" type="move" name="_top"/>
    </contour>
  </outline>
</glyph>
<glyph name="b" format="1">
  <advance width="648"/>
  <unicode hex="0062"/>
  <outline>
    <contour>
      <point x="138" y="384" type="curve"/>
      <point x="178" y="434"/>
      <point x="250" y="489"/>
      <point x="342" y="489" type="curve"/>
      <point x="464" y="489"/>
      <point x="531" y="395"/>
      <point x="531" y="265" type="curve"/>
      <point x="532" y="139"/>
      <point x="461" y="43"/>
      <point x="342" y="44" type="curve"/>
      <point x="260" y="44"/>
      <point x="196" y="81"/>
      <point x="143" y="141" type="curve"/>
      <point x="116" y="121"/>
      <point x="135" y="134"/>
      <point x="108" y="114" type="curve"/>
      <point x="173" y="39"/>
      <point x="245" y="-5"/>
      <point x="349" y="-5" type="curve"/>
      <point x="502" y="-5"/>
      <point x="592" y="105"/>
      <point x="592" y="266" type="curve"/>
      <point x="592" y="427"/>
      <point x="503" y="538"/>
      <point x="350" y="538" type="curve"/>
      <point x="242" y="538"/>
      <point x="160" y="480"/>
      <point x="111" y="417" type="curve"/>
      <point x="132" y="394"/>
      <point x="117" y="406"/>
    </contour>
    <contour>
      <point x="154" y="0" type="curve"/>
      <point x="154" y="273"/>
      <point x="154" y="527"/>
      <point x="154" y="800" type="curve"/>
      <point x="108" y="800"/>
      <point x="139" y="800"/>
      <point x="93" y="800" type="curve"/>
      <point x="93" y="527"/>
      <point x="93" y="273"/>
      <point x="93" y="0" type="curve"/>
      <point x="139" y="0"/>
      <point x="108" y="0"/>
    </contour>
  </outline>
</glyph>
<glyph name="d" format="1">
  <advance width="651"/>
  <unicode hex="0064"/>
  <outline>
    <contour>
      <point x="537" y="437" type="curve"/>
      <point x="481" y="501"/>
      <point x="405" y="537"/>
      <point x="314" y="537" type="curve"/>
      <point x="154" y="537"/>
      <point x="56" y="429"/>
      <point x="56" y="263" type="curve"/>
      <point x="56" y="100"/>
      <point x="156" y="-4"/>
      <point x="316" y="-4" type="curve"/>
      <point x="416" y="-4"/>
      <point x="484" y="43"/>
      <point x="537" y="128" type="curve"/>
      <point x="509" y="158"/>
      <point x="535" y="128"/>
      <point x="507" y="158" type="curve"/>
      <point x="459" y="85"/>
      <point x="403" y="44"/>
      <point x="322" y="44" type="curve"/>
      <point x="195" y="44"/>
      <point x="117" y="132"/>
      <point x="117" y="266" type="curve"/>
      <point x="117" y="400"/>
      <point x="195" y="489"/>
      <point x="323" y="489" type="curve"/>
      <point x="397" y="489"/>
      <point x="465" y="457"/>
      <point x="509" y="402" type="curve"/>
      <point x="538" y="435"/>
      <point x="508" y="404"/>
    </contour>
    <contour>
      <point x="558" y="0" type="curve"/>
      <point x="558" y="267"/>
      <point x="558" y="533"/>
      <point x="558" y="800" type="curve"/>
      <point x="494" y="800"/>
      <point x="558" y="800"/>
      <point x="494" y="800" type="curve"/>
      <point x="494" y="533"/>
      <point x="494" y="267"/>
      <point x="494" y="0" type="curve"/>
      <point x="558" y="0"/>
      <point x="494" y="0"/>
    </contour>
  </outline>
</glyph>
<glyph name="f" format="1">
  <advance width="470"/>
  <unicode hex="0066"/>
  <outline>
    <contour>
      <point x="22" y="485" type="curve"/>
      <point x="444" y="485" type="line"/>
      <point x="444" y="533"/>
      <point x="444" y="485"/>
      <point x="444" y="533" type="curve"/>
      <point x="22" y="533" type="line"/>
      <point x="22" y="485"/>
      <point x="22" y="533"/>
    </contour>
    <contour>
      <point x="243" y="0" type="curve"/>
      <point x="243" y="630" type="line"/>
      <point x="243" y="707"/>
      <point x="282" y="758"/>
      <point x="357" y="758" type="curve"/>
      <point x="390" y="758"/>
      <point x="422" y="748"/>
      <point x="451" y="734" type="curve"/>
      <point x="476" y="772"/>
      <point x="451" y="734"/>
      <point x="476" y="772" type="curve"/>
      <point x="439" y="790"/>
      <point x="398" y="804"/>
      <point x="357" y="804" type="curve"/>
      <point x="249" y="804"/>
      <point x="182" y="737"/>
      <point x="182" y="630" type="curve"/>
      <point x="182" y="0" type="line"/>
      <point x="243" y="0"/>
      <point x="182" y="0"/>
    </contour>
  </outline>
</glyph>
<glyph name="g" format="1">
  <advance width="545"/>
  <unicode hex="0067"/>
  <outline>
    <contour>
      <point x="372" y="481" type="curve"/>
      <point x="531" y="556" type="line"/>
      <point x="527" y="562"/>
      <point x="510" y="595"/>
      <point x="505" y="602" type="curve"/>
      <point x="341" y="517" type="line"/>
      <point x="372" y="481"/>
      <point x="341" y="517"/>
    </contour>
    <contour>
      <point x="117" y="352" type="curve"/>
      <point x="117" y="437"/>
      <point x="180" y="491"/>
      <point x="270" y="491" type="curve"/>
      <point x="359" y="491"/>
      <point x="418" y="439"/>
      <point x="418" y="353" type="curve"/>
      <point x="418" y="272"/>
      <point x="358" y="222"/>
      <point x="269" y="222" type="curve"/>
      <point x="182" y="222"/>
      <point x="117" y="268"/>
      <point x="117" y="352" type="curve"/>
      <point x="56" y="349"/>
      <point x="117" y="352"/>
      <point x="56" y="349" type="curve"/>
      <point x="56" y="236"/>
      <point x="145" y="175"/>
      <point x="265" y="175" type="curve"/>
      <point x="388" y="175"/>
      <point x="479" y="238"/>
      <point x="479" y="355" type="curve"/>
      <point x="479" y="472"/>
      <point x="391" y="538"/>
      <point x="270" y="538" type="curve"/>
      <point x="145" y="538"/>
      <point x="56" y="469"/>
      <point x="56" y="349" type="curve"/>
      <point x="117" y="352"/>
      <point x="56" y="349"/>
    </contour>
    <contour>
      <point x="150" y="233" type="curve"/>
      <point x="97" y="205"/>
      <point x="60" y="170"/>
      <point x="60" y="110" type="curve"/>
      <point x="60" y="15"/>
      <point x="154" y="-10"/>
      <point x="259" y="-19" type="curve"/>
      <point x="370" y="-28"/>
      <point x="478" y="-39"/>
      <point x="478" y="-136" type="curve"/>
      <point x="478" y="-228"/>
      <point x="378" y="-257"/>
      <point x="267" y="-257" type="curve"/>
      <point x="162" y="-257"/>
      <point x="73" y="-218"/>
      <point x="73" y="-125" type="curve"/>
      <point x="73" y="-57"/>
      <point x="115" y="-17"/>
      <point x="175" y="8" type="curve"/>
      <point x="146" y="37"/>
      <point x="175" y="8"/>
      <point x="146" y="37" type="curve"/>
      <point x="68" y="7"/>
      <point x="13" y="-42"/>
      <point x="13" y="-127" type="curve"/>
      <point x="13" y="-254"/>
      <point x="126" y="-304"/>
      <point x="264" y="-304" type="curve"/>
      <point x="409" y="-304"/>
      <point x="535" y="-264"/>
      <point x="533" y="-132" type="curve"/>
      <point x="533" y="-6"/>
      <point x="407" y="16"/>
      <point x="270" y="27" type="curve"/>
      <point x="192" y="32"/>
      <point x="121" y="47"/>
      <point x="121" y="115" type="curve"/>
      <point x="121" y="157"/>
      <point x="143" y="182"/>
      <point x="179" y="203" type="curve"/>
      <point x="150" y="233"/>
      <point x="179" y="203"/>
    </contour>
    <contour>
      <point x="268" y="654" type="move" name="top"/>
    </contour>
  </outline>
</glyph>
<glyph name="h" format="1">
  <advance width="628"/>
  <unicode hex="0068"/>
  <outline>
    <contour>
      <point x="140" y="333" type="curve"/>
      <point x="172" y="421"/>
      <point x="249" y="489"/>
      <point x="340" y="489" type="curve"/>
      <point x="436" y="489"/>
      <point x="482" y="428"/>
      <point x="482" y="329" type="curve"/>
      <point x="482" y="219"/>
      <point x="482" y="111"/>
      <point x="482" y="0" type="curve"/>
      <point x="542" y="0"/>
      <point x="482" y="0"/>
      <point x="542" y="0" type="curve"/>
      <point x="542" y="112"/>
      <point x="542" y="224"/>
      <point x="542" y="337" type="curve"/>
      <point x="542" y="465"/>
      <point x="478" y="537"/>
      <point x="351" y="537" type="curve"/>
      <point x="242" y="537"/>
      <point x="149" y="465"/>
      <point x="114" y="359" type="curve"/>
      <point x="141" y="334"/>
      <point x="113" y="358"/>
    </contour>
    <contour>
      <point x="154" y="0" type="curve"/>
      <point x="154" y="267"/>
      <point x="154" y="533"/>
      <point x="154" y="800" type="curve"/>
      <point x="93" y="800"/>
      <point x="154" y="800"/>
      <point x="93" y="800" type="curve"/>
      <point x="93" y="533"/>
      <point x="93" y="267"/>
      <point x="93" y="0" type="curve"/>
      <point x="154" y="0"/>
      <point x="93" y="0"/>
    </contour>
  </outline>
</glyph>
<glyph name="i" format="1">
  <advance width="256"/>
  <unicode hex="0069"/>
  <outline>
    <contour>
      <point x="159" y="0" type="curve"/>
      <point x="159" y="178"/>
      <point x="159" y="355"/>
      <point x="159" y="533" type="curve"/>
      <point x="95" y="533"/>
      <point x="159" y="533"/>
      <point x="95" y="533" type="curve"/>
      <point x="95" y="355"/>
      <point x="95" y="178"/>
      <point x="95" y="0" type="curve"/>
      <point x="159" y="0"/>
      <point x="95" y="0"/>
    </contour>
    <contour>
      <point x="165" y="685" type="curve"/>
      <point x="165" y="708"/>
      <point x="148" y="720"/>
      <point x="125" y="720" type="curve"/>
      <point x="103" y="720"/>
      <point x="88" y="707"/>
      <point x="88" y="685" type="curve"/>
      <point x="155" y="685"/>
      <point x="98" y="685"/>
      <point x="165" y="685" type="curve"/>
      <point x="165" y="662"/>
      <point x="149" y="651"/>
      <point x="125" y="651" type="curve"/>
      <point x="103" y="651"/>
      <point x="88" y="663"/>
      <point x="88" y="685" type="curve"/>
      <point x="155" y="685"/>
      <point x="98" y="685"/>
    </contour>
    <contour>
      <point x="125" y="653" type="move" name="top"/>
    </contour>
    <contour>
      <point x="156" y="3" type="move" name="bottom"/>
    </contour>
  </outline>
</glyph>
<glyph name="j" format="1">
  <advance width="251"/>
  <unicode hex="006A"/>
  <outline>
    <contour>
      <point x="-54" y="-302" type="curve"/>
      <point x="-45" y="-302"/>
      <point x="-33" y="-304"/>
      <point x="-21" y="-304" type="curve"/>
      <point x="86" y="-304"/>
      <point x="163" y="-241"/>
      <point x="163" y="-135" type="curve"/>
      <point x="163" y="87"/>
      <point x="163" y="310"/>
      <point x="163" y="533" type="curve"/>
      <point x="103" y="533"/>
      <point x="163" y="533"/>
      <point x="103" y="533" type="curve"/>
      <point x="103" y="310"/>
      <point x="103" y="87"/>
      <point x="103" y="-135" type="curve"/>
      <point x="103" y="-207"/>
      <point x="53" y="-256"/>
      <point x="-19" y="-256" type="curve"/>
      <point x="-28" y="-256"/>
      <point x="-39" y="-255"/>
      <point x="-45" y="-254" type="curve"/>
      <point x="-53" y="-300"/>
      <point x="-45" y="-255"/>
    </contour>
    <contour>
      <point x="173" y="684" type="curve"/>
      <point x="173" y="707"/>
      <point x="157" y="719"/>
      <point x="134" y="719" type="curve"/>
      <point x="111" y="719"/>
      <point x="97" y="706"/>
      <point x="97" y="684" type="curve"/>
      <point x="163" y="684"/>
      <point x="106" y="684"/>
      <point x="173" y="684" type="curve"/>
      <point x="173" y="661"/>
      <point x="157" y="650"/>
      <point x="134" y="650" type="curve"/>
      <point x="111" y="650"/>
      <point x="97" y="662"/>
      <point x="97" y="684" type="curve"/>
      <point x="163" y="684"/>
      <point x="106" y="684"/>
    </contour>
  </outline>
</glyph>
<glyph name="k" format="1">
  <advance width="535"/>
  <unicode hex="006B"/>
  <outline>
    <contour>
      <point x="154" y="0" type="curve"/>
      <point x="154" y="800" type="line"/>
      <point x="93" y="800"/>
      <point x="154" y="800"/>
      <point x="93" y="800" type="curve"/>
      <point x="93" y="533"/>
      <point x="93" y="267"/>
      <point x="93" y="0" type="curve"/>
      <point x="154" y="0"/>
      <point x="93" y="0"/>
    </contour>
    <contour>
      <point x="413" y="533" type="curve"/>
      <point x="135" y="275" type="line"/>
      <point x="211" y="275"/>
      <point x="136" y="275"/>
      <point x="212" y="275" type="curve"/>
      <point x="493" y="533" type="line"/>
      <point x="415" y="533"/>
      <point x="491" y="533"/>
    </contour>
    <contour>
      <point x="520" y="0" type="curve"/>
      <point x="212" y="275" type="line"/>
      <point x="136" y="275"/>
      <point x="211" y="275"/>
      <point x="135" y="275" type="curve"/>
      <point x="439" y="0" type="line"/>
      <point x="517" y="0"/>
      <point x="442" y="0"/>
    </contour>
    <contour>
      <point x="344" y="-26" type="move" name="bottom"/>
    </contour>
  </outline>
</glyph>
<glyph name="m" format="1">
  <advance width="934"/>
  <unicode hex="006D"/>
  <outline>
    <contour>
      <point x="486" y="328" type="curve"/>
      <point x="523" y="419"/>
      <point x="577" y="489"/>
      <point x="664" y="489" type="curve"/>
      <point x="759" y="489"/>
      <point x="786" y="433"/>
      <point x="786" y="331" type="curve"/>
      <point x="786" y="221"/>
      <point x="786" y="111"/>
      <point x="786" y="0" type="curve"/>
      <point x="847" y="0"/>
      <point x="786" y="0"/>
      <point x="847" y="0" type="curve"/>
      <point x="847" y="112"/>
      <point x="847" y="224"/>
      <point x="847" y="337" type="curve"/>
      <point x="847" y="467"/>
      <point x="805" y="538"/>
      <point x="679" y="538" type="curve"/>
      <point x="570" y="538"/>
      <point x="499" y="464"/>
      <point x="461" y="354" type="curve"/>
      <point x="487" y="329"/>
      <point x="460" y="353"/>
    </contour>
    <contour>
      <point x="140" y="329" type="curve"/>
      <point x="175" y="419"/>
      <point x="229" y="489"/>
      <point x="316" y="489" type="curve"/>
      <point x="411" y="489"/>
      <point x="440" y="433"/>
      <point x="440" y="331" type="curve"/>
      <point x="440" y="221"/>
      <point x="440" y="111"/>
      <point x="440" y="0" type="curve"/>
      <point x="500" y="0"/>
      <point x="440" y="0"/>
      <point x="500" y="0" type="curve"/>
      <point x="500" y="112"/>
      <point x="500" y="224"/>
      <point x="500" y="337" type="curve"/>
      <point x="500" y="467"/>
      <point x="459" y="538"/>
      <point x="333" y="538" type="curve"/>
      <point x="222" y="538"/>
      <point x="156" y="466"/>
      <point x="114" y="355" type="curve"/>
      <point x="141" y="330"/>
      <point x="114" y="354"/>
    </contour>
    <contour>
      <point x="154" y="0" type="curve"/>
      <point x="154" y="178"/>
      <point x="154" y="355"/>
      <point x="154" y="533" type="curve"/>
      <point x="93" y="533"/>
      <point x="154" y="533"/>
      <point x="93" y="533" type="curve"/>
      <point x="93" y="355"/>
      <point x="93" y="178"/>
      <point x="93" y="0" type="curve"/>
      <point x="154" y="0"/>
      <point x="93" y="0"/>
    </contour>
  </outline>
</glyph>
<glyph name="p" format="1">
  <advance width="649"/>
  <unicode hex="0070"/>
  <outline>
    <contour>
      <point x="136" y="379" type="curve"/>
      <point x="177" y="438"/>
      <point x="253" y="491"/>
      <point x="344" y="491" type="curve"/>
      <point x="468" y="491"/>
      <point x="533" y="399"/>
      <point x="533" y="272" type="curve"/>
      <point x="536" y="139"/>
      <point x="469" y="42"/>
      <point x="343" y="43" type="curve"/>
      <point x="258" y="43"/>
      <point x="198" y="80"/>
      <point x="139" y="139" type="curve"/>
      <point x="116" y="119"/>
      <point x="132" y="130"/>
      <point x="110" y="110" type="curve"/>
      <point x="176" y="38"/>
      <point x="249" y="-5"/>
      <point x="350" y="-5" type="curve"/>
      <point x="510" y="-5"/>
      <point x="593" y="112"/>
      <point x="593" y="275" type="curve"/>
      <point x="593" y="429"/>
      <point x="508" y="538"/>
      <point x="353" y="538" type="curve"/>
      <point x="246" y="538"/>
      <point x="162" y="484"/>
      <point x="113" y="416" type="curve"/>
      <point x="132" y="387"/>
      <point x="117" y="407"/>
    </contour>
    <contour>
      <point x="153" y="-300" type="curve"/>
      <point x="153" y="-22"/>
      <point x="153" y="255"/>
      <point x="153" y="533" type="curve"/>
      <point x="93" y="533"/>
      <point x="153" y="533"/>
      <point x="93" y="533" type="curve"/>
      <point x="93" y="255"/>
      <point x="93" y="-22"/>
      <point x="93" y="-300" type="curve"/>
      <point x="153" y="-300"/>
      <point x="93" y="-300"/>
    </contour>
  </outline>
</glyph>
<glyph name="q" format="1">
  <advance width="654"/>
  <unicode hex="0071"/>
  <outline>
    <contour>
      <point x="541" y="424" type="curve"/>
      <point x="480" y="496"/>
      <point x="394" y="538"/>
      <point x="300" y="538" type="curve"/>
      <point x="141" y="538"/>
      <point x="57" y="425"/>
      <point x="57" y="264" type="curve"/>
      <point x="57" y="103"/>
      <point x="146" y="-5"/>
      <point x="305" y="-5" type="curve"/>
      <point x="404" y="-5"/>
      <point x="486" y="50"/>
      <point x="544" y="127" type="curve"/>
      <point x="523" y="149"/>
      <point x="538" y="137"/>
      <point x="516" y="159" type="curve"/>
      <point x="467" y="88"/>
      <point x="395" y="43"/>
      <point x="311" y="43" type="curve"/>
      <point x="186" y="43"/>
      <point x="118" y="135"/>
      <point x="118" y="266" type="curve"/>
      <point x="118" y="397"/>
      <point x="184" y="490"/>
      <point x="309" y="490" type="curve"/>
      <point x="388" y="490"/>
      <point x="463" y="453"/>
      <point x="519" y="390" type="curve"/>
      <point x="536" y="413"/>
      <point x="524" y="400"/>
    </contour>
    <contour>
      <point x="561" y="-300" type="curve"/>
      <point x="561" y="-18"/>
      <point x="561" y="251"/>
      <point x="561" y="533" type="curve"/>
      <point x="514" y="533"/>
      <point x="545" y="533"/>
      <point x="498" y="533" type="curve"/>
      <point x="498" y="251"/>
      <point x="498" y="-18"/>
      <point x="498" y="-300" type="curve"/>
      <point x="545" y="-300"/>
      <point x="514" y="-300"/>
    </contour>
  </outline>
</glyph>
<glyph name="r" format="1">
  <advance width="398"/>
  <unicode hex="0072"/>
  <outline>
    <contour>
      <point x="154" y="0" type="curve"/>
      <point x="154" y="182"/>
      <point x="154" y="351"/>
      <point x="154" y="533" type="curve"/>
      <point x="108" y="533"/>
      <point x="139" y="533"/>
      <point x="93" y="533" type="curve"/>
      <point x="93" y="351"/>
      <point x="93" y="182"/>
      <point x="93" y="0" type="curve"/>
      <point x="139" y="0"/>
      <point x="108" y="0"/>
    </contour>
    <contour>
      <point x="139" y="333" type="curve"/>
      <point x="186" y="444"/>
      <point x="279" y="486"/>
      <point x="386" y="486" type="curve"/>
      <point x="386" y="527"/>
      <point x="386" y="497"/>
      <point x="386" y="538" type="curve"/>
      <point x="267" y="538"/>
      <point x="164" y="480"/>
      <point x="118" y="370" type="curve"/>
      <point x="137" y="346"/>
      <point x="122" y="356"/>
    </contour>
    <contour>
      <point x="140" y="654" type="move" name="top"/>
    </contour>
    <contour>
      <point x="147" y="-20" type="move" name="bottom"/>
    </contour>
  </outline>
</glyph>
<glyph name="s" format="1">
  <advance width="486"/>
  <unicode hex="0073"/>
  <outline>
    <contour>
      <point x="43" y="49" type="curve"/>
      <point x="112" y="17"/>
      <point x="174" y="-5"/>
      <point x="247" y="-5" type="curve"/>
      <point x="361" y="-5"/>
      <point x="440" y="39"/>
      <point x="440" y="143" type="curve"/>
      <point x="439" y="247"/>
      <point x="353" y="269"/>
      <point x="248" y="299" type="curve" smooth="yes"/>
      <point x="176" y="321"/>
      <point x="119" y="344"/>
      <point x="119" y="409" type="curve"/>
      <point x="119" y="464"/>
      <point x="165" y="489"/>
      <point x="231" y="489" type="curve"/>
      <point x="283" y="489"/>
      <point x="339" y="471"/>
      <point x="377" y="449" type="curve"/>
      <point x="400" y="487"/>
      <point x="379" y="453"/>
      <point x="403" y="492" type="curve"/>
      <point x="360" y="517"/>
      <point x="294" y="538"/>
      <point x="233" y="538" type="curve"/>
      <point x="134" y="538"/>
      <point x="64" y="499"/>
      <point x="64" y="409" type="curve"/>
      <point x="64" y="315"/>
      <point x="133" y="281"/>
      <point x="229" y="253" type="curve" smooth="yes"/>
      <point x="309" y="229"/>
      <point x="382" y="215"/>
      <point x="382" y="142" type="curve"/>
      <point x="382" y="75"/>
      <point x="328" y="44"/>
      <point x="254" y="44" type="curve"/>
      <point x="188" y="44"/>
      <point x="135" y="64"/>
      <point x="71" y="93" type="curve"/>
      <point x="43" y="49"/>
      <point x="71" y="93"/>
    </contour>
    <contour>
      <point x="236" y="654" type="move" name="top"/>
    </contour>
    <contour>
      <point x="265" y="-25" type="move" name="bottom"/>
    </contour>
  </outline>
</glyph>
<glyph name="t" format="1">
  <advance width="430"/>
  <unicode hex="0074"/>
  <outline>
    <contour>
      <point x="17" y="485" type="curve"/>
      <point x="418" y="485" type="line"/>
      <point x="418" y="533"/>
      <point x="418" y="485"/>
      <point x="418" y="533" type="curve"/>
      <point x="17" y="533" type="line"/>
      <point x="17" y="485"/>
      <point x="17" y="533"/>
    </contour>
    <contour>
      <point x="393" y="70" type="curve"/>
      <point x="361" y="54"/>
      <point x="337" y="45"/>
      <point x="301" y="45" type="curve"/>
      <point x="236" y="45"/>
      <point x="208" y="83"/>
      <point x="208" y="154" type="curve"/>
      <point x="208" y="679" type="line"/>
      <point x="180" y="662"/>
      <point x="176" y="659"/>
      <point x="148" y="641" type="curve"/>
      <point x="148" y="151" type="line"/>
      <point x="148" y="50"/>
      <point x="198" y="-5"/>
      <point x="294" y="-5" type="curve"/>
      <point x="342" y="-5"/>
      <point x="374" y="8"/>
      <point x="414" y="27" type="curve"/>
      <point x="393" y="70"/>
      <point x="414" y="27"/>
    </contour>
    <contour>
      <point x="308" y="-24" type="move" name="bottom"/>
    </contour>
  </outline>
</glyph>
<glyph name="v" format="1">
  <advance width="562"/>
  <unicode hex="0076"/>
  <outline>
    <contour>
      <point x="27" y="533" type="curve"/>
      <point x="100" y="355"/>
      <point x="172" y="178"/>
      <point x="244" y="0" type="curve"/>
      <point x="304" y="0"/>
      <point x="244" y="0"/>
      <point x="304" y="0" type="curve"/>
      <point x="232" y="178"/>
      <point x="162" y="355"/>
      <point x="91" y="533" type="curve"/>
      <point x="27" y="533"/>
      <point x="91" y="533"/>
    </contour>
    <contour>
      <point x="479" y="533" type="curve"/>
      <point x="253" y="0" type="line"/>
      <point x="313" y="0"/>
      <point x="253" y="0"/>
      <point x="313" y="0" type="curve"/>
      <point x="389" y="178"/>
      <point x="465" y="355"/>
      <point x="541" y="533" type="curve"/>
      <point x="479" y="533"/>
      <point x="541" y="533"/>
    </contour>
  </outline>
</glyph>
<glyph name="w" format="1">
  <advance width="908"/>
  <unicode hex="0077"/>
  <outline>
    <contour>
      <point x="278" y="0" type="curve"/>
      <point x="349" y="178"/>
      <point x="419" y="355"/>
      <point x="490" y="533" type="curve"/>
      <point x="429" y="533"/>
      <point x="490" y="533"/>
      <point x="429" y="533" type="curve"/>
      <point x="360" y="355"/>
      <point x="290" y="178"/>
      <point x="220" y="0" type="curve"/>
      <point x="278" y="0"/>
      <point x="220" y="0"/>
    </contour>
    <contour>
      <point x="823" y="533" type="curve"/>
      <point x="758" y="355"/>
      <point x="692" y="178"/>
      <point x="628" y="0" type="curve"/>
      <point x="685" y="0"/>
      <point x="628" y="0"/>
      <point x="685" y="0" type="curve"/>
      <point x="751" y="178"/>
      <point x="817" y="355"/>
      <point x="883" y="533" type="curve"/>
      <point x="823" y="533"/>
      <point x="883" y="533"/>
    </contour>
    <contour>
      <point x="436" y="533" type="curve"/>
      <point x="499" y="355"/>
      <point x="563" y="178"/>
      <point x="626" y="0" type="curve"/>
      <point x="684" y="0"/>
      <point x="626" y="0"/>
      <point x="684" y="0" type="curve"/>
      <point x="621" y="178"/>
      <point x="558" y="355"/>
      <point x="495" y="533" type="curve"/>
      <point x="436" y="533"/>
      <point x="495" y="533"/>
    </contour>
    <contour>
      <point x="29" y="533" type="curve"/>
      <point x="93" y="355"/>
      <point x="156" y="178"/>
      <point x="219" y="0" type="curve"/>
      <point x="277" y="0"/>
      <point x="219" y="0"/>
      <point x="277" y="0" type="curve"/>
      <point x="214" y="178"/>
      <point x="152" y="355"/>
      <point x="89" y="533" type="curve"/>
      <point x="29" y="533"/>
      <point x="89" y="533"/>
    </contour>
  </outline>
</glyph>
<glyph name="x" format="1">
  <advance width="562"/>
  <unicode hex="0078"/>
  <outline>
    <contour>
      <point x="546" y="0" type="curve"/>
      <point x="441" y="128"/>
      <point x="201" y="405"/>
      <point x="97" y="533" type="curve"/>
      <point x="16" y="533"/>
      <point x="111" y="533"/>
      <point x="30" y="533" type="curve"/>
      <point x="134" y="405"/>
      <point x="371" y="128"/>
      <point x="474" y="0" type="curve"/>
      <point x="546" y="0"/>
      <point x="474" y="0"/>
    </contour>
    <contour>
      <point x="468" y="533" type="curve"/>
      <point x="363" y="405"/>
      <point x="119" y="128"/>
      <point x="14" y="0" type="curve"/>
      <point x="86" y="0"/>
      <point x="14" y="0"/>
      <point x="86" y="0" type="curve"/>
      <point x="191" y="128"/>
      <point x="431" y="405"/>
      <point x="536" y="533" type="curve"/>
      <point x="449" y="533"/>
      <point x="555" y="533"/>
    </contour>
  </outline>
</glyph>
<glyph name="z" format="1">
  <advance width="525"/>
  <unicode hex="007A"/>
  <outline>
    <contour>
      <point x="52" y="485" type="curve"/>
      <point x="185" y="485"/>
      <point x="314" y="485"/>
      <point x="446" y="485" type="curve"/>
      <point x="442" y="491"/>
      <point x="434" y="490"/>
      <point x="429" y="496" type="curve"/>
      <point x="425" y="500"/>
      <point x="424" y="506"/>
      <point x="420" y="510" type="curve"/>
      <point x="415" y="505"/>
      <point x="409" y="505"/>
      <point x="404" y="500" type="curve"/>
      <point x="36" y="48" type="line"/>
      <point x="36" y="23"/>
      <point x="36" y="48"/>
      <point x="36" y="23" type="curve"/>
      <point x="36" y="0"/>
      <point x="36" y="23"/>
      <point x="36" y="0" type="curve"/>
      <point x="56" y="0"/>
      <point x="36" y="0"/>
      <point x="56" y="0" type="curve"/>
      <point x="493" y="0"/>
      <point x="345" y="0"/>
      <point x="491" y="0" type="curve"/>
      <point x="491" y="48"/>
      <point x="491" y="0"/>
      <point x="491" y="48" type="curve"/>
      <point x="345" y="48"/>
      <point x="202" y="48"/>
      <point x="56" y="48" type="curve"/>
      <point x="61" y="44"/>
      <point x="67" y="43"/>
      <point x="72" y="39" type="curve"/>
      <point x="76" y="35"/>
      <point x="79" y="28"/>
      <point x="83" y="23" type="curve"/>
      <point x="87" y="28"/>
      <point x="90" y="29"/>
      <point x="94" y="33" type="curve"/>
      <point x="464" y="485" type="line"/>
      <point x="464" y="510"/>
      <point x="464" y="485"/>
      <point x="464" y="510" type="curve"/>
      <point x="464" y="533"/>
      <point x="464" y="510"/>
      <point x="464" y="533" type="curve"/>
      <point x="446" y="533"/>
      <point x="464" y="533"/>
      <point x="446" y="533" type="curve"/>
      <point x="314" y="533"/>
      <point x="185" y="533"/>
      <point x="52" y="533" type="curve"/>
      <point x="52" y="485"/>
      <point x="52" y="533"/>
    </contour>
    <contour>
      <point x="260" y="653" type="move" name="top"/>
    </contour>
  </outline>
</glyph>
<glyph name="braceleft" format="1">
  <advance width="290"/>
  <unicode hex="007B"/>
  <outline>
    <contour>
      <point x="260" y="-71" type="curve"/>
      <point x="196" y="-71"/>
      <point x="166" y="-27"/>
      <point x="166" y="38" type="curve"/>
      <point x="166" y="94"/>
      <point x="166" y="151"/>
      <point x="166" y="208" type="curve"/>
      <point x="166" y="302"/>
      <point x="112" y="364"/>
      <point x="18" y="364" type="curve"/>
      <point x="18" y="314"/>
      <point x="18" y="364"/>
      <point x="18" y="314" type="curve"/>
      <point x="79" y="314"/>
      <point x="111" y="275"/>
      <point x="111" y="212" type="curve"/>
      <point x="111" y="155"/>
      <point x="111" y="97"/>
      <point x="111" y="40" type="curve"/>
      <point x="111" y="-57"/>
      <point x="165" y="-119"/>
      <point x="260" y="-119" type="curve"/>
      <point x="260" y="-71"/>
      <point x="260" y="-119"/>
    </contour>
    <contour>
      <point x="260" y="797" type="curve"/>
      <point x="164" y="797"/>
      <point x="111" y="736"/>
      <point x="111" y="639" type="curve"/>
      <point x="111" y="581"/>
      <point x="111" y="522"/>
      <point x="111" y="464" type="curve"/>
      <point x="111" y="402"/>
      <point x="79" y="364"/>
      <point x="18" y="364" type="curve"/>
      <point x="18" y="314"/>
      <point x="18" y="364"/>
      <point x="18" y="314" type="curve"/>
      <point x="112" y="314"/>
      <point x="166" y="375"/>
      <point x="166" y="471" type="curve"/>
      <point x="166" y="527"/>
      <point x="166" y="583"/>
      <point x="166" y="639" type="curve"/>
      <point x="166" y="705"/>
      <point x="195" y="749"/>
      <point x="260" y="749" type="curve"/>
      <point x="260" y="797"/>
      <point x="260" y="749"/>
    </contour>
  </outline>
</glyph>
<glyph name="asciitilde" format="1">
  <advance width="706"/>
  <unicode hex="007E"/>
  <outline>
    <contour>
      <point x="578" y="354" type="curve"/>
      <point x="560" y="307"/>
      <point x="537" y="260"/>
      <point x="483" y="260" type="curve"/>
      <point x="436" y="260"/>
      <point x="407" y="274"/>
      <point x="370" y="303" type="curve"/>
      <point x="325" y="338"/>
      <point x="290" y="359"/>
      <point x="233" y="359" type="curve"/>
      <point x="145" y="359"/>
      <point x="104" y="313"/>
      <point x="80" y="232" type="curve"/>
      <point x="106" y="222"/>
      <point x="99" y="223"/>
      <point x="126" y="214" type="curve"/>
      <point x="142" y="269"/>
      <point x="169" y="310"/>
      <point x="230" y="310" type="curve"/>
      <point x="271" y="310"/>
      <point x="296" y="297"/>
      <point x="328" y="272" type="curve"/>
      <point x="379" y="234"/>
      <point x="416" y="212"/>
      <point x="479" y="212" type="curve"/>
      <point x="563" y="212"/>
      <point x="599" y="263"/>
      <point x="626" y="337" type="curve"/>
      <point x="599" y="346"/>
      <point x="606" y="345"/>
    </contour>
  </outline>
</glyph>
<glyph name="exclamdown" format="1">
  <advance width="247"/>
  <unicode hex="00A1"/>
  <outline>
    <contour>
      <point x="98" y="306" type="line"/>
      <point x="90" y="-187" type="line"/>
      <point x="159" y="-187" type="line"/>
      <point x="152" y="306" type="line"/>
    </contour>
    <contour>
      <point x="86" y="508" type="curve"/>
      <point x="86" y="486"/>
      <point x="102" y="475"/>
      <point x="124" y="474" type="curve"/>
      <point x="146" y="474"/>
      <point x="161" y="487"/>
      <point x="161" y="508" type="curve"/>
      <point x="96" y="508"/>
      <point x="152" y="508"/>
      <point x="86" y="508" type="curve"/>
      <point x="86" y="530"/>
      <point x="102" y="541"/>
      <point x="125" y="541" type="curve"/>
      <point x="147" y="541"/>
      <point x="161" y="530"/>
      <point x="161" y="508" type="curve"/>
      <point x="96" y="508"/>
      <point x="152" y="508"/>
    </contour>
  </outline>
</glyph>
<glyph name="cent" format="1">
  <advance width="657"/>
  <unicode hex="00A2"/>
  <outline>
    <contour>
      <point x="375" y="-53" type="curve"/>
      <point x="375" y="-13"/>
      <point x="375" y="27"/>
      <point x="375" y="67" type="curve"/>
      <point x="314" y="67"/>
      <point x="375" y="67"/>
      <point x="314" y="67" type="curve"/>
      <point x="314" y="27"/>
      <point x="314" y="-13"/>
      <point x="314" y="-53" type="curve"/>
      <point x="375" y="-53"/>
      <point x="314" y="-53"/>
    </contour>
    <contour>
      <point x="336" y="778" type="curve"/>
      <point x="336" y="742"/>
      <point x="336" y="706"/>
      <point x="336" y="670" type="curve"/>
      <point x="396" y="670"/>
      <point x="336" y="670"/>
      <point x="396" y="670" type="curve"/>
      <point x="396" y="706"/>
      <point x="396" y="742"/>
      <point x="396" y="778" type="curve"/>
      <point x="336" y="778"/>
      <point x="396" y="778"/>
    </contour>
    <contour>
      <point x="604" y="609" type="curve"/>
      <point x="527" y="661"/>
      <point x="464" y="681"/>
      <point x="372" y="681" type="curve"/>
      <point x="174" y="681"/>
      <point x="52" y="562"/>
      <point x="52" y="365" type="curve"/>
      <point x="52" y="176"/>
      <point x="155" y="51"/>
      <point x="341" y="51" type="curve"/>
      <point x="446" y="51"/>
      <point x="519" y="81"/>
      <point x="603" y="145" type="curve"/>
      <point x="567" y="183"/>
      <point x="603" y="145"/>
      <point x="567" y="183" type="curve"/>
      <point x="495" y="129"/>
      <point x="435" y="101"/>
      <point x="346" y="101" type="curve"/>
      <point x="194" y="101"/>
      <point x="112" y="209"/>
      <point x="112" y="368" type="curve"/>
      <point x="112" y="530"/>
      <point x="208" y="631"/>
      <point x="366" y="631" type="curve"/>
      <point x="448" y="631"/>
      <point x="504" y="613"/>
      <point x="572" y="569" type="curve"/>
      <point x="604" y="609"/>
      <point x="572" y="569"/>
    </contour>
  </outline>
</glyph>
<glyph name="sterling" format="1">
  <advance width="533"/>
  <unicode hex="00A3"/>
  <outline>
    <contour>
      <point x="463" y="48" type="curve"/>
      <point x="321" y="48"/>
      <point x="181" y="48"/>
      <point x="41" y="48" type="curve"/>
      <point x="41" y="0"/>
      <point x="41" y="48"/>
      <point x="41" y="0" type="curve"/>
      <point x="181" y="0"/>
      <point x="322" y="0"/>
      <point x="463" y="0" type="curve"/>
      <point x="463" y="48"/>
      <point x="463" y="0"/>
    </contour>
    <contour>
      <point x="412" y="400" type="curve"/>
      <point x="301" y="400"/>
      <point x="188" y="400"/>
      <point x="76" y="400" type="curve"/>
      <point x="76" y="353"/>
      <point x="76" y="400"/>
      <point x="76" y="353" type="curve"/>
      <point x="188" y="353"/>
      <point x="301" y="353"/>
      <point x="412" y="353" type="curve"/>
      <point x="412" y="400"/>
      <point x="412" y="353"/>
    </contour>
    <contour>
      <point x="481" y="671" type="curve"/>
      <point x="432" y="707"/>
      <point x="392" y="723"/>
      <point x="333" y="723" type="curve"/>
      <point x="170" y="723"/>
      <point x="118" y="562"/>
      <point x="160" y="371" type="curve"/>
      <point x="198" y="201"/>
      <point x="175" y="48"/>
      <point x="41" y="48" type="curve"/>
      <point x="41" y="0"/>
      <point x="41" y="48"/>
      <point x="41" y="0" type="curve"/>
      <point x="221" y="0"/>
      <point x="262" y="177"/>
      <point x="218" y="381" type="curve"/>
      <point x="184" y="538"/>
      <point x="214" y="677"/>
      <point x="330" y="677" type="curve"/>
      <point x="379" y="677"/>
      <point x="411" y="663"/>
      <point x="451" y="635" type="curve"/>
      <point x="481" y="671"/>
      <point x="451" y="635"/>
    </contour>
  </outline>
</glyph>
<glyph name="currency" format="1">
  <advance width="662"/>
  <unicode hex="00A4"/>
  <outline>
    <contour>
      <point x="207" y="312" type="curve"/>
      <point x="207" y="390"/>
      <point x="253" y="441"/>
      <point x="332" y="441" type="curve"/>
      <point x="411" y="441"/>
      <point x="455" y="391"/>
      <point x="455" y="312" type="curve"/>
      <point x="455" y="232"/>
      <point x="414" y="177"/>
      <point x="336" y="177" type="curve"/>
      <point x="253" y="177"/>
      <point x="207" y="229"/>
      <point x="207" y="312" type="curve"/>
      <point x="147" y="312"/>
      <point x="208" y="312"/>
      <point x="148" y="312" type="curve"/>
      <point x="148" y="198"/>
      <point x="220" y="130"/>
      <point x="335" y="130" type="curve"/>
      <point x="447" y="130"/>
      <point x="515" y="202"/>
      <point x="515" y="314" type="curve"/>
      <point x="515" y="422"/>
      <point x="446" y="489"/>
      <point x="337" y="489" type="curve"/>
      <point x="222" y="489"/>
      <point x="148" y="424"/>
      <point x="148" y="312" type="curve"/>
      <point x="208" y="312"/>
      <point x="147" y="312"/>
    </contour>
    <contour>
      <point x="454" y="388" type="line"/>
      <point x="598" y="525" type="line"/>
      <point x="551" y="573" type="line"/>
      <point x="413" y="428" type="line"/>
    </contour>
    <contour>
      <point x="414" y="195" type="line"/>
      <point x="552" y="51" type="line"/>
      <point x="599" y="99" type="line"/>
      <point x="455" y="236" type="line"/>
    </contour>
    <contour>
      <point x="206" y="237" type="line"/>
      <point x="62" y="100" type="line"/>
      <point x="109" y="52" type="line"/>
      <point x="247" y="196" type="line"/>
    </contour>
    <contour>
      <point x="249" y="429" type="line"/>
      <point x="112" y="573" type="line"/>
      <point x="64" y="525" type="line"/>
      <point x="209" y="388" type="line"/>
    </contour>
  </outline>
</glyph>
<glyph name="yen" format="1">
  <advance width="653"/>
  <unicode hex="00A5"/>
  <outline>
    <contour>
      <point x="561" y="390" type="curve"/>
      <point x="488" y="390"/>
      <point x="414" y="390"/>
      <point x="341" y="390" type="curve"/>
      <point x="341" y="338"/>
      <point x="341" y="390"/>
      <point x="341" y="338" type="curve"/>
      <point x="414" y="338"/>
      <point x="488" y="338"/>
      <point x="561" y="338" type="curve"/>
      <point x="561" y="390"/>
      <point x="561" y="338"/>
    </contour>
    <contour>
      <point x="311" y="390" type="curve"/>
      <point x="239" y="390"/>
      <point x="166" y="390"/>
      <point x="95" y="390" type="curve"/>
      <point x="95" y="338"/>
      <point x="95" y="390"/>
      <point x="95" y="338" type="curve"/>
      <point x="166" y="338"/>
      <point x="239" y="338"/>
      <point x="311" y="338" type="curve"/>
      <point x="311" y="390"/>
      <point x="311" y="338"/>
    </contour>
    <contour>
      <point x="561" y="260" type="curve"/>
      <point x="406" y="260"/>
      <point x="250" y="260"/>
      <point x="95" y="260" type="curve"/>
      <point x="95" y="208"/>
      <point x="95" y="260"/>
      <point x="95" y="208" type="curve"/>
      <point x="250" y="208"/>
      <point x="406" y="208"/>
      <point x="561" y="208" type="curve"/>
      <point x="561" y="260"/>
      <point x="561" y="208"/>
    </contour>
    <contour>
      <point x="44" y="722" type="curve"/>
      <point x="124" y="596"/>
      <point x="212" y="463"/>
      <point x="292" y="337" type="curve"/>
      <point x="354" y="337"/>
      <point x="289" y="339"/>
      <point x="351" y="339" type="curve"/>
      <point x="271" y="467"/>
      <point x="192" y="594"/>
      <point x="111" y="722" type="curve"/>
      <point x="52" y="722"/>
      <point x="103" y="722"/>
    </contour>
    <contour>
      <point x="550" y="722" type="curve"/>
      <point x="464" y="594"/>
      <point x="380" y="467"/>
      <point x="295" y="339" type="curve"/>
      <point x="357" y="339"/>
      <point x="293" y="337"/>
      <point x="355" y="337" type="curve"/>
      <point x="440" y="463"/>
      <point x="529" y="596"/>
      <point x="614" y="722" type="curve"/>
      <point x="555" y="722"/>
      <point x="609" y="722"/>
    </contour>
    <contour>
      <point x="356" y="0" type="curve"/>
      <point x="356" y="115"/>
      <point x="356" y="230"/>
      <point x="356" y="345" type="curve"/>
      <point x="291" y="345"/>
      <point x="356" y="345"/>
      <point x="291" y="345" type="curve"/>
      <point x="291" y="230"/>
      <point x="291" y="115"/>
      <point x="291" y="0" type="curve"/>
      <point x="356" y="0"/>
      <point x="291" y="0"/>
    </contour>
  </outline>
</glyph>
<glyph name="section" format="1">
  <advance width="512"/>
  <unicode hex="00A7"/>
  <outline>
    <contour>
      <point x="418" y="707" type="curve"/>
      <point x="363" y="736"/>
      <point x="321" y="751"/>
      <point x="259" y="751" type="curve"/>
      <point x="160" y="751"/>
      <point x="93" y="705"/>
      <point x="93" y="617" type="curve"/>
      <point x="93" y="535"/>
      <point x="150" y="495"/>
      <point x="231" y="468" type="curve"/>
      <point x="313" y="441"/>
      <point x="399" y="434"/>
      <point x="399" y="360" type="curve"/>
      <point x="399" y="293"/>
      <point x="350" y="257"/>
      <point x="277" y="244" type="curve"/>
      <point x="313" y="206"/>
      <point x="277" y="244"/>
      <point x="313" y="206" type="curve"/>
      <point x="402" y="227"/>
      <point x="459" y="273"/>
      <point x="459" y="361" type="curve"/>
      <point x="458" y="463"/>
      <point x="364" y="482"/>
      <point x="261" y="513" type="curve"/>
      <point x="200" y="532"/>
      <point x="152" y="558"/>
      <point x="152" y="617" type="curve"/>
      <point x="152" y="673"/>
      <point x="192" y="703"/>
      <point x="255" y="703" type="curve"/>
      <point x="309" y="703"/>
      <point x="344" y="691"/>
      <point x="392" y="667" type="curve"/>
      <point x="418" y="707"/>
      <point x="392" y="667"/>
    </contour>
    <contour>
      <point x="198" y="517" type="curve"/>
      <point x="114" y="493"/>
      <point x="58" y="451"/>
      <point x="58" y="367" type="curve"/>
      <point x="58" y="270"/>
      <point x="140" y="242"/>
      <point x="238" y="212" type="curve"/>
      <point x="306" y="190"/>
      <point x="370" y="172"/>
      <point x="370" y="109" type="curve"/>
      <point x="370" y="50"/>
      <point x="324" y="19"/>
      <point x="259" y="19" type="curve"/>
      <point x="198" y="19"/>
      <point x="159" y="35"/>
      <point x="106" y="67" type="curve"/>
      <point x="75" y="31"/>
      <point x="106" y="67"/>
      <point x="75" y="31" type="curve"/>
      <point x="135" y="-10"/>
      <point x="185" y="-28"/>
      <point x="257" y="-28" type="curve"/>
      <point x="357" y="-28"/>
      <point x="429" y="15"/>
      <point x="429" y="110" type="curve"/>
      <point x="427" y="195"/>
      <point x="362" y="231"/>
      <point x="276" y="257" type="curve"/>
      <point x="196" y="283"/>
      <point x="118" y="296"/>
      <point x="118" y="369" type="curve"/>
      <point x="118" y="432"/>
      <point x="162" y="462"/>
      <point x="227" y="482" type="curve"/>
      <point x="198" y="517"/>
      <point x="227" y="482"/>
    </contour>
  </outline>
</glyph>
<glyph name="dieresis" format="1">
  <advance width="422"/>
  <unicode hex="00A8"/>
  <outline>
    <contour>
      <point x="158" y="654" type="curve"/>
      <point x="158" y="676"/>
      <point x="142" y="688"/>
      <point x="120" y="688" type="curve"/>
      <point x="98" y="688"/>
      <point x="84" y="675"/>
      <point x="84" y="654" type="curve"/>
      <point x="149" y="654"/>
      <point x="93" y="654"/>
      <point x="158" y="654" type="curve"/>
      <point x="158" y="632"/>
      <point x="142" y="621"/>
      <point x="120" y="621" type="curve"/>
      <point x="98" y="621"/>
      <point x="84" y="632"/>
      <point x="84" y="654" type="curve"/>
      <point x="149" y="654"/>
      <point x="93" y="654"/>
    </contour>
    <contour>
      <point x="311" y="654" type="curve"/>
      <point x="311" y="676"/>
      <point x="295" y="688"/>
      <point x="273" y="688" type="curve"/>
      <point x="251" y="688"/>
      <point x="236" y="675"/>
      <point x="236" y="654" type="curve"/>
      <point x="302" y="654"/>
      <point x="246" y="654"/>
      <point x="311" y="654" type="curve"/>
      <point x="311" y="632"/>
      <point x="295" y="621"/>
      <point x="273" y="621" type="curve"/>
      <point x="250" y="621"/>
      <point x="236" y="632"/>
      <point x="236" y="654" type="curve"/>
      <point x="302" y="654"/>
      <point x="246" y="654"/>
    </contour>
    <contour>
      <point x="197" y="623" type="move" name="_top"/>
    </contour>
  </outline>
</glyph>
<glyph name="copyright" format="1">
  <advance width="808"/>
  <unicode hex="00A9"/>
  <outline>
    <contour>
      <point x="114" y="321" type="curve"/>
      <point x="114" y="494"/>
      <point x="232" y="605"/>
      <point x="408" y="605" type="curve"/>
      <point x="579" y="605"/>
      <point x="694" y="492"/>
      <point x="694" y="319" type="curve"/>
      <point x="694" y="151"/>
      <point x="582" y="40"/>
      <point x="414" y="40" type="curve"/>
      <point x="239" y="40"/>
      <point x="114" y="146"/>
      <point x="114" y="321" type="curve"/>
      <point x="62" y="321"/>
      <point x="114" y="321"/>
      <point x="62" y="321" type="curve"/>
      <point x="62" y="122"/>
      <point x="208" y="-1"/>
      <point x="412" y="-1" type="curve"/>
      <point x="610" y="-1"/>
      <point x="745" y="125"/>
      <point x="745" y="321" type="curve"/>
      <point x="745" y="519"/>
      <point x="607" y="645"/>
      <point x="408" y="645" type="curve"/>
      <point x="205" y="645"/>
      <point x="62" y="520"/>
      <point x="62" y="321" type="curve"/>
      <point x="114" y="321"/>
      <point x="62" y="321"/>
    </contour>
    <contour>
      <point x="543" y="460" type="curve"/>
      <point x="503" y="488"/>
      <point x="464" y="501"/>
      <point x="414" y="501" type="curve"/>
      <point x="300" y="501"/>
      <point x="230" y="433"/>
      <point x="230" y="320" type="curve"/>
      <point x="230" y="212"/>
      <point x="292" y="144"/>
      <point x="400" y="144" type="curve"/>
      <point x="461" y="144"/>
      <point x="504" y="155"/>
      <point x="551" y="193" type="curve"/>
      <point x="523" y="223"/>
      <point x="551" y="193"/>
      <point x="523" y="223" type="curve"/>
      <point x="483" y="195"/>
      <point x="449" y="185"/>
      <point x="402" y="185" type="curve"/>
      <point x="322" y="185"/>
      <point x="280" y="240"/>
      <point x="280" y="322" type="curve"/>
      <point x="280" y="407"/>
      <point x="327" y="460"/>
      <point x="411" y="460" type="curve"/>
      <point x="448" y="460"/>
      <point x="478" y="453"/>
      <point x="516" y="432" type="curve"/>
      <point x="544" y="461"/>
      <point x="515" y="432"/>
    </contour>
  </outline>
</glyph>
<glyph name="ordfeminine" format="1">
  <advance width="421"/>
  <unicode hex="00AA"/>
  <outline>
    <contour>
      <point x="341" y="427" type="curve"/>
      <point x="341" y="517"/>
      <point x="341" y="587"/>
      <point x="341" y="677" type="curve"/>
      <point x="341" y="746"/>
      <point x="283" y="769"/>
      <point x="208" y="769" type="curve"/>
      <point x="153" y="769"/>
      <point x="108" y="749"/>
      <point x="75" y="719" type="curve"/>
      <point x="89" y="697"/>
      <point x="81" y="711"/>
      <point x="95" y="688" type="curve"/>
      <point x="120" y="710"/>
      <point x="156" y="732"/>
      <point x="202" y="732" type="curve"/>
      <point x="254" y="732"/>
      <point x="295" y="715"/>
      <point x="295" y="667" type="curve"/>
      <point x="295" y="581"/>
      <point x="295" y="514"/>
      <point x="295" y="427" type="curve"/>
      <point x="329" y="427"/>
      <point x="306" y="427"/>
    </contour>
    <contour>
      <point x="316" y="638" type="curve"/>
      <point x="265" y="632"/>
      <point x="231" y="630"/>
      <point x="180" y="624" type="curve"/>
      <point x="111" y="615"/>
      <point x="60" y="587"/>
      <point x="60" y="521" type="curve"/>
      <point x="60" y="455"/>
      <point x="108" y="423"/>
      <point x="178" y="423" type="curve"/>
      <point x="248" y="423"/>
      <point x="289" y="465"/>
      <point x="328" y="518" type="curve"/>
      <point x="312" y="532"/>
      <point x="322" y="524"/>
      <point x="306" y="538" type="curve"/>
      <point x="276" y="495"/>
      <point x="242" y="459"/>
      <point x="187" y="459" type="curve"/>
      <point x="139" y="459"/>
      <point x="105" y="479"/>
      <point x="105" y="523" type="curve"/>
      <point x="105" y="565"/>
      <point x="137" y="584"/>
      <point x="179" y="590" type="curve"/>
      <point x="231" y="597"/>
      <point x="266" y="600"/>
      <point x="318" y="606" type="curve"/>
      <point x="317" y="629"/>
      <point x="317" y="615"/>
    </contour>
  </outline>
</glyph>
<glyph name="guillemotleft" format="1">
  <advance width="599"/>
  <unicode hex="00AB"/>
  <outline>
    <contour>
      <point x="284" y="423" type="curve"/>
      <point x="267" y="413"/>
      <point x="64" y="317"/>
      <point x="47" y="307" type="curve"/>
      <point x="47" y="255"/>
      <point x="47" y="304"/>
      <point x="47" y="252" type="curve"/>
      <point x="64" y="262"/>
      <point x="267" y="360"/>
      <point x="284" y="370" type="curve"/>
      <point x="284" y="422"/>
      <point x="284" y="371"/>
    </contour>
    <contour>
      <point x="284" y="190" type="curve"/>
      <point x="267" y="200"/>
      <point x="64" y="297"/>
      <point x="47" y="307" type="curve"/>
      <point x="47" y="255"/>
      <point x="47" y="304"/>
      <point x="47" y="252" type="curve"/>
      <point x="64" y="242"/>
      <point x="267" y="147"/>
      <point x="284" y="137" type="curve"/>
      <point x="284" y="189"/>
      <point x="284" y="138"/>
    </contour>
    <contour>
      <point x="524" y="423" type="curve"/>
      <point x="507" y="413"/>
      <point x="304" y="317"/>
      <point x="287" y="307" type="curve"/>
      <point x="287" y="255"/>
      <point x="287" y="304"/>
      <point x="287" y="252" type="curve"/>
      <point x="304" y="262"/>
      <point x="507" y="360"/>
      <point x="524" y="370" type="curve"/>
      <point x="524" y="422"/>
      <point x="524" y="371"/>
    </contour>
    <contour>
      <point x="524" y="190" type="curve"/>
      <point x="508" y="200"/>
      <point x="304" y="297"/>
      <point x="287" y="307" type="curve"/>
      <point x="287" y="255"/>
      <point x="287" y="304"/>
      <point x="287" y="252" type="curve"/>
      <point x="304" y="242"/>
      <point x="508" y="147"/>
      <point x="524" y="137" type="curve"/>
      <point x="524" y="189"/>
      <point x="524" y="138"/>
    </contour>
  </outline>
</glyph>
<glyph name="logicalnot" format="1">
  <advance width="699"/>
  <unicode hex="00AC"/>
  <outline>
    <contour>
      <point x="83" y="284" type="curve"/>
      <point x="613" y="284" type="line"/>
      <point x="613" y="337"/>
      <point x="613" y="284"/>
      <point x="613" y="337" type="curve"/>
      <point x="83" y="337" type="line"/>
      <point x="83" y="284"/>
      <point x="83" y="337"/>
    </contour>
    <contour>
      <point x="613" y="149" type="curve"/>
      <point x="613" y="337" type="line"/>
      <point x="553" y="337"/>
      <point x="615" y="337"/>
      <point x="555" y="337" type="curve"/>
      <point x="555" y="149" type="line"/>
      <point x="615" y="149"/>
      <point x="553" y="149"/>
    </contour>
  </outline>
</glyph>
<glyph name="registered" format="1">
  <advance width="809"/>
  <unicode hex="00AE"/>
  <outline>
    <contour>
      <point x="111" y="320" type="curve"/>
      <point x="111" y="498"/>
      <point x="230" y="607"/>
      <point x="409" y="607" type="curve"/>
      <point x="584" y="607"/>
      <point x="699" y="495"/>
      <point x="699" y="319" type="curve"/>
      <point x="699" y="147"/>
      <point x="587" y="37"/>
      <point x="416" y="37" type="curve"/>
      <point x="236" y="37"/>
      <point x="111" y="142"/>
      <point x="111" y="320" type="curve"/>
      <point x="83" y="320"/>
      <point x="92" y="320"/>
      <point x="64" y="320" type="curve"/>
      <point x="64" y="119"/>
      <point x="207" y="-2"/>
      <point x="413" y="-2" type="curve"/>
      <point x="613" y="-2"/>
      <point x="746" y="123"/>
      <point x="746" y="321" type="curve"/>
      <point x="746" y="521"/>
      <point x="610" y="645"/>
      <point x="409" y="645" type="curve"/>
      <point x="204" y="645"/>
      <point x="64" y="523"/>
      <point x="64" y="320" type="curve"/>
      <point x="92" y="320"/>
      <point x="83" y="320"/>
    </contour>
    <contour>
      <point x="400" y="312" type="curve"/>
      <point x="414" y="285"/>
      <point x="483" y="173"/>
      <point x="497" y="147" type="curve"/>
      <point x="525" y="147"/>
      <point x="515" y="146"/>
      <point x="548" y="146" type="curve"/>
      <point x="534" y="173"/>
      <point x="467" y="283"/>
      <point x="453" y="310" type="curve"/>
      <point x="395" y="310"/>
      <point x="458" y="312"/>
    </contour>
    <contour>
      <point x="352" y="147" type="curve"/>
      <point x="352" y="256"/>
      <point x="352" y="386"/>
      <point x="352" y="496" type="curve"/>
      <point x="322" y="496"/>
      <point x="334" y="496"/>
      <point x="302" y="496" type="curve"/>
      <point x="302" y="386"/>
      <point x="302" y="256"/>
      <point x="302" y="147" type="curve"/>
      <point x="335" y="147"/>
      <point x="320" y="147"/>
    </contour>
    <contour>
      <point x="330" y="287" type="curve"/>
      <point x="351" y="287"/>
      <point x="372" y="287"/>
      <point x="393" y="287" type="curve"/>
      <point x="473" y="287"/>
      <point x="529" y="315"/>
      <point x="529" y="392" type="curve"/>
      <point x="529" y="461"/>
      <point x="478" y="496"/>
      <point x="406" y="496" type="curve"/>
      <point x="389" y="496"/>
      <point x="356" y="496"/>
      <point x="339" y="496" type="curve"/>
      <point x="302" y="460"/>
      <point x="354" y="496"/>
      <point x="302" y="455" type="curve"/>
      <point x="334" y="455"/>
      <point x="365" y="455"/>
      <point x="397" y="455" type="curve"/>
      <point x="445" y="455"/>
      <point x="479" y="435"/>
      <point x="479" y="389" type="curve"/>
      <point x="479" y="344"/>
      <point x="447" y="328"/>
      <point x="401" y="328" type="curve"/>
      <point x="377" y="328"/>
      <point x="353" y="328"/>
      <point x="330" y="328" type="curve"/>
      <point x="330" y="287"/>
      <point x="330" y="328"/>
    </contour>
  </outline>
</glyph>
<glyph name="macron" format="1">
  <advance width="341"/>
  <unicode hex="00AF"/>
  <outline>
    <contour>
      <point x="271" y="677" type="curve"/>
      <point x="193" y="677"/>
      <point x="115" y="677"/>
      <point x="37" y="677" type="curve"/>
      <point x="37" y="630"/>
      <point x="37" y="677"/>
      <point x="37" y="630" type="curve"/>
      <point x="115" y="630"/>
      <point x="193" y="630"/>
      <point x="271" y="630" type="curve"/>
      <point x="271" y="677"/>
      <point x="271" y="630"/>
    </contour>
    <contour>
      <point x="157" y="630" type="move" name="_top"/>
    </contour>
  </outline>
</glyph>
<glyph name="degree" format="1">
  <advance width="491"/>
  <unicode hex="00B0"/>
  <outline>
    <contour>
      <point x="429" y="465" type="curve"/>
      <point x="429" y="587"/>
      <point x="364" y="668"/>
      <point x="245" y="668" type="curve"/>
      <point x="127" y="668"/>
      <point x="63" y="587"/>
      <point x="63" y="466" type="curve"/>
      <point x="106" y="466"/>
      <point x="72" y="466"/>
      <point x="115" y="466" type="curve"/>
      <point x="115" y="557"/>
      <point x="155" y="622"/>
      <point x="243" y="622" type="curve"/>
      <point x="331" y="622"/>
      <point x="375" y="557"/>
      <point x="375" y="465" type="curve"/>
      <point x="375" y="370"/>
      <point x="335" y="301"/>
      <point x="246" y="301" type="curve"/>
      <point x="156" y="301"/>
      <point x="115" y="371"/>
      <point x="115" y="466" type="curve"/>
      <point x="72" y="466"/>
      <point x="106" y="466"/>
      <point x="63" y="466" type="curve"/>
      <point x="63" y="341"/>
      <point x="124" y="256"/>
      <point x="244" y="256" type="curve"/>
      <point x="365" y="256"/>
      <point x="429" y="340"/>
    </contour>
  </outline>
</glyph>
<glyph name="plusminus" format="1">
  <advance width="688"/>
  <unicode hex="00B1"/>
  <outline>
    <contour>
      <point x="64" y="23" type="line"/>
      <point x="624" y="23" type="line"/>
      <point x="624" y="75" type="line"/>
      <point x="64" y="75" type="line"/>
    </contour>
    <contour>
      <point x="64" y="284" type="curve"/>
      <point x="624" y="284" type="line"/>
      <point x="624" y="337"/>
      <point x="624" y="284"/>
      <point x="624" y="337" type="curve"/>
      <point x="64" y="337" type="line"/>
      <point x="64" y="284"/>
      <point x="64" y="337"/>
    </contour>
    <contour>
      <point x="371" y="23" type="curve"/>
      <point x="371" y="587" type="line"/>
      <point x="311" y="587"/>
      <point x="374" y="587"/>
      <point x="314" y="587" type="curve"/>
      <point x="314" y="23" type="line"/>
      <point x="374" y="23"/>
      <point x="311" y="23"/>
    </contour>
  </outline>
</glyph>
<glyph name="twosuperior" format="1">
  <advance width="477"/>
  <unicode hex="00B2"/>
  <outline>
    <contour>
      <point x="58" y="297" type="curve"/>
      <point x="185" y="297"/>
      <point x="300" y="297"/>
      <point x="410" y="297" type="curve"/>
      <point x="410" y="322"/>
      <point x="410" y="320"/>
      <point x="410" y="342" type="curve"/>
      <point x="297" y="342"/>
      <point x="172" y="342"/>
      <point x="58" y="342" type="curve"/>
      <point x="58" y="298"/>
      <point x="58" y="342"/>
    </contour>
    <contour>
      <point x="124" y="608" type="curve"/>
      <point x="152" y="650"/>
      <point x="184" y="676"/>
      <point x="236" y="676" type="curve"/>
      <point x="294" y="676"/>
      <point x="333" y="647"/>
      <point x="333" y="593" type="curve"/>
      <point x="333" y="543"/>
      <point x="298" y="520"/>
      <point x="260" y="487" type="curve"/>
      <point x="192" y="439"/>
      <point x="125" y="390"/>
      <point x="58" y="342" type="curve"/>
      <point x="66" y="298"/>
      <point x="59" y="342"/>
      <point x="67" y="298" type="curve"/>
      <point x="146" y="352"/>
      <point x="223" y="401"/>
      <point x="292" y="452" type="curve"/>
      <point x="344" y="496"/>
      <point x="388" y="528"/>
      <point x="388" y="595" type="curve"/>
      <point x="388" y="677"/>
      <point x="327" y="720"/>
      <point x="241" y="720" type="curve"/>
      <point x="168" y="720"/>
      <point x="117" y="693"/>
      <point x="83" y="630" type="curve"/>
      <point x="124" y="608"/>
      <point x="83" y="630"/>
    </contour>
    <contour>
      <point x="248" y="719" type="move" name="_top"/>
    </contour>
    <contour>
      <point x="228" y="297" type="move" name="_bottom"/>
    </contour>
  </outline>
</glyph>
<glyph name="threesuperior" format="1">
  <advance width="423"/>
  <unicode hex="00B3"/>
  <outline>
    <contour>
      <point x="95" y="634" type="curve"/>
      <point x="124" y="659"/>
      <point x="156" y="676"/>
      <point x="192" y="676" type="curve"/>
      <point x="249" y="676"/>
      <point x="291" y="656"/>
      <point x="291" y="604" type="curve"/>
      <point x="291" y="543"/>
      <point x="219" y="533"/>
      <point x="147" y="529" type="curve"/>
      <point x="147" y="491"/>
      <point x="147" y="529"/>
      <point x="147" y="491" type="curve"/>
      <point x="254" y="493"/>
      <point x="347" y="513"/>
      <point x="347" y="607" type="curve"/>
      <point x="347" y="687"/>
      <point x="284" y="719"/>
      <point x="198" y="719" type="curve"/>
      <point x="146" y="719"/>
      <point x="99" y="698"/>
      <point x="65" y="664" type="curve"/>
      <point x="95" y="634"/>
      <point x="65" y="664"/>
    </contour>
    <contour>
      <point x="60" y="327" type="curve"/>
      <point x="99" y="304"/>
      <point x="139" y="292"/>
      <point x="184" y="292" type="curve"/>
      <point x="286" y="289"/>
      <point x="365" y="320"/>
      <point x="363" y="412" type="curve"/>
      <point x="363" y="512"/>
      <point x="260" y="518"/>
      <point x="147" y="521" type="curve"/>
      <point x="147" y="488"/>
      <point x="147" y="521"/>
      <point x="147" y="488" type="curve"/>
      <point x="232" y="484"/>
      <point x="307" y="476"/>
      <point x="307" y="411" type="curve"/>
      <point x="307" y="352"/>
      <point x="256" y="333"/>
      <point x="189" y="334" type="curve"/>
      <point x="153" y="334"/>
      <point x="120" y="343"/>
      <point x="85" y="360" type="curve"/>
      <point x="60" y="327"/>
      <point x="85" y="360"/>
    </contour>
    <contour>
      <point x="212" y="719" type="move" name="_top"/>
    </contour>
    <contour>
      <point x="201" y="291" type="move" name="_bottom"/>
    </contour>
  </outline>
</glyph>
<glyph name="paragraph" format="1">
  <advance width="754"/>
  <unicode hex="00B6"/>
  <outline>
    <contour>
      <point x="449" y="674" type="curve"/>
      <point x="617" y="674"/>
      <point x="449" y="674"/>
      <point x="617" y="674" type="curve"/>
      <point x="617" y="722"/>
      <point x="617" y="674"/>
      <point x="617" y="722" type="curve"/>
      <point x="561" y="722"/>
      <point x="505" y="722"/>
      <point x="449" y="722" type="curve"/>
      <point x="449" y="674"/>
      <point x="449" y="722"/>
    </contour>
    <contour>
      <point x="438" y="359" type="curve"/>
      <point x="385" y="333"/>
      <point x="344" y="318"/>
      <point x="284" y="318" type="curve"/>
      <point x="175" y="318"/>
      <point x="102" y="380"/>
      <point x="102" y="487" type="curve"/>
      <point x="102" y="609"/>
      <point x="191" y="674"/>
      <point x="318" y="674" type="curve"/>
      <point x="361" y="674"/>
      <point x="404" y="674"/>
      <point x="446" y="674" type="curve"/>
      <point x="446" y="722"/>
      <point x="446" y="674"/>
      <point x="446" y="722" type="curve"/>
      <point x="401" y="722"/>
      <point x="356" y="722"/>
      <point x="310" y="722" type="curve"/>
      <point x="153" y="722"/>
      <point x="41" y="639"/>
      <point x="41" y="490" type="curve"/>
      <point x="41" y="347"/>
      <point x="143" y="273"/>
      <point x="289" y="271" type="curve"/>
      <point x="351" y="271"/>
      <point x="403" y="290"/>
      <point x="457" y="316" type="curve"/>
      <point x="438" y="358"/>
      <point x="457" y="317"/>
    </contour>
    <contour>
      <point x="481" y="0" type="curve"/>
      <point x="481" y="241"/>
      <point x="481" y="481"/>
      <point x="481" y="722" type="curve"/>
      <point x="420" y="722"/>
      <point x="481" y="722"/>
      <point x="420" y="722" type="curve"/>
      <point x="420" y="481"/>
      <point x="420" y="241"/>
      <point x="420" y="0" type="curve"/>
      <point x="481" y="0"/>
      <point x="420" y="0"/>
    </contour>
    <contour>
      <point x="665" y="0" type="curve"/>
      <point x="665" y="241"/>
      <point x="665" y="481"/>
      <point x="665" y="722" type="curve"/>
      <point x="604" y="722"/>
      <point x="665" y="722"/>
      <point x="604" y="722" type="curve"/>
      <point x="604" y="481"/>
      <point x="604" y="241"/>
      <point x="604" y="0" type="curve"/>
      <point x="665" y="0"/>
      <point x="604" y="0"/>
    </contour>
  </outline>
</glyph>
<glyph name="periodcentered" format="1">
  <advance width="218"/>
  <unicode hex="00B7"/>
  <outline>
    <contour>
      <point x="146" y="440" type="curve"/>
      <point x="146" y="462"/>
      <point x="130" y="474"/>
      <point x="108" y="474" type="curve"/>
      <point x="86" y="474"/>
      <point x="72" y="461"/>
      <point x="72" y="440" type="curve"/>
      <point x="137" y="440"/>
      <point x="81" y="440"/>
      <point x="146" y="440" type="curve"/>
      <point x="146" y="418"/>
      <point x="130" y="407"/>
      <point x="108" y="407" type="curve"/>
      <point x="86" y="407"/>
      <point x="72" y="418"/>
      <point x="72" y="440" type="curve"/>
      <point x="137" y="440"/>
      <point x="81" y="440"/>
    </contour>
  </outline>
</glyph>
<glyph name="cedilla" format="1">
  <advance width="322"/>
  <unicode hex="00B8"/>
  <outline>
    <contour>
      <point x="168" y="62" type="curve"/>
      <point x="153" y="36"/>
      <point x="124" y="-11"/>
      <point x="109" y="-36" type="curve"/>
      <point x="151" y="-75"/>
      <point x="109" y="-36"/>
      <point x="151" y="-75" type="curve"/>
      <point x="166" y="-47"/>
      <point x="198" y="2"/>
      <point x="214" y="29" type="curve"/>
      <point x="168" y="62"/>
      <point x="214" y="29"/>
    </contour>
    <contour>
      <point x="151" y="-75" type="curve"/>
      <point x="163" y="-67"/>
      <point x="174" y="-64"/>
      <point x="189" y="-64" type="curve"/>
      <point x="217" y="-64"/>
      <point x="233" y="-80"/>
      <point x="233" y="-108" type="curve"/>
      <point x="233" y="-139"/>
      <point x="208" y="-152"/>
      <point x="175" y="-152" type="curve"/>
      <point x="149" y="-152"/>
      <point x="128" y="-148"/>
      <point x="103" y="-134" type="curve"/>
      <point x="83" y="-171"/>
      <point x="103" y="-134"/>
      <point x="83" y="-171" type="curve"/>
      <point x="113" y="-187"/>
      <point x="138" y="-194"/>
      <point x="173" y="-194" type="curve"/>
      <point x="237" y="-194"/>
      <point x="284" y="-167"/>
      <point x="284" y="-107" type="curve"/>
      <point x="284" y="-51"/>
      <point x="246" y="-18"/>
      <point x="190" y="-18" type="curve"/>
      <point x="159" y="-18"/>
      <point x="138" y="-24"/>
      <point x="110" y="-37" type="curve"/>
      <point x="151" y="-75"/>
      <point x="110" y="-37"/>
    </contour>
    <contour>
      <point x="208" y="29" type="move" name="_bottom"/>
    </contour>
  </outline>
</glyph>
<glyph name="onesuperior" format="1">
  <advance width="300"/>
  <unicode hex="00B9"/>
  <outline>
    <contour>
      <point x="55" y="571" type="line"/>
      <point x="214" y="705" type="line"/>
      <point x="158" y="712" type="line"/>
      <point x="26" y="605" type="line"/>
    </contour>
    <contour>
      <point x="215" y="297" type="curve"/>
      <point x="215" y="712" type="line"/>
      <point x="158" y="712" type="line"/>
      <point x="158" y="297" type="line"/>
      <point x="199" y="297"/>
      <point x="179" y="297"/>
    </contour>
    <contour>
      <point x="184" y="710" type="move" name="_top"/>
    </contour>
    <contour>
      <point x="187" y="299" type="move" name="_bottom"/>
    </contour>
  </outline>
</glyph>
<glyph name="ordmasculine" format="1">
  <advance width="438"/>
  <unicode hex="00BA"/>
  <outline>
    <contour>
      <point x="99" y="602" type="curve"/>
      <point x="99" y="682"/>
      <point x="140" y="734"/>
      <point x="219" y="734" type="curve"/>
      <point x="296" y="734"/>
      <point x="338" y="681"/>
      <point x="338" y="600" type="curve"/>
      <point x="338" y="515"/>
      <point x="298" y="458"/>
      <point x="223" y="458" type="curve"/>
      <point x="141" y="458"/>
      <point x="99" y="516"/>
      <point x="99" y="602" type="curve"/>
      <point x="71" y="602"/>
      <point x="82" y="602"/>
      <point x="54" y="602" type="curve"/>
      <point x="54" y="491"/>
      <point x="114" y="420"/>
      <point x="221" y="420" type="curve"/>
      <point x="325" y="420"/>
      <point x="384" y="490"/>
      <point x="384" y="600" type="curve"/>
      <point x="384" y="705"/>
      <point x="325" y="771"/>
      <point x="221" y="771" type="curve"/>
      <point x="114" y="771"/>
      <point x="54" y="705"/>
      <point x="54" y="602" type="curve"/>
      <point x="82" y="602"/>
      <point x="71" y="602"/>
    </contour>
  </outline>
</glyph>
<glyph name="onequarter" format="1">
  <advance width="1007"/>
  <unicode hex="00BC"/>
  <outline>
    <contour>
      <point x="317" y="-76" type="line"/>
      <point x="762" y="742" type="line"/>
      <point x="703" y="742" type="line"/>
      <point x="259" y="-76" type="line"/>
    </contour>
    <contour>
      <point x="60" y="605" type="line"/>
      <point x="219" y="739" type="line"/>
      <point x="163" y="745" type="line"/>
      <point x="31" y="638" type="line"/>
    </contour>
    <contour>
      <point x="220" y="331" type="curve"/>
      <point x="220" y="745" type="line"/>
      <point x="163" y="745" type="line"/>
      <point x="163" y="331" type="line"/>
      <point x="204" y="331"/>
      <point x="184" y="331"/>
    </contour>
    <contour>
      <point x="971" y="82" type="line"/>
      <point x="583" y="82" type="line"/>
      <point x="583" y="39" type="line"/>
      <point x="971" y="39" type="line"/>
    </contour>
    <contour>
      <point x="603" y="43" type="line"/>
      <point x="861" y="346" type="line"/>
      <point x="815" y="357" type="line"/>
      <point x="583" y="82" type="line"/>
    </contour>
    <contour>
      <point x="870" y="-81" type="line"/>
      <point x="870" y="357" type="line"/>
      <point x="815" y="357" type="line"/>
      <point x="815" y="-81" type="line"/>
    </contour>
  </outline>
</glyph>
<glyph name="onehalf" format="1">
  <advance width="1061"/>
  <unicode hex="00BD"/>
  <outline>
    <contour>
      <point x="327" y="-76" type="line"/>
      <point x="772" y="742" type="line"/>
      <point x="713" y="742" type="line"/>
      <point x="268" y="-76" type="line"/>
    </contour>
    <contour>
      <point x="60" y="605" type="line"/>
      <point x="219" y="739" type="line"/>
      <point x="163" y="745" type="line"/>
      <point x="31" y="638" type="line"/>
    </contour>
    <contour>
      <point x="220" y="331" type="curve"/>
      <point x="220" y="745" type="line"/>
      <point x="163" y="745" type="line"/>
      <point x="163" y="331" type="line"/>
      <point x="204" y="331"/>
      <point x="184" y="331"/>
    </contour>
    <contour>
      <point x="667" y="-78" type="curve"/>
      <point x="794" y="-78"/>
      <point x="908" y="-78"/>
      <point x="1018" y="-78" type="curve"/>
      <point x="1018" y="-54"/>
      <point x="1018" y="-56"/>
      <point x="1018" y="-33" type="curve"/>
      <point x="905" y="-33"/>
      <point x="780" y="-33"/>
      <point x="667" y="-33" type="curve"/>
      <point x="667" y="-78"/>
      <point x="667" y="-33"/>
    </contour>
    <contour>
      <point x="732" y="233" type="curve"/>
      <point x="760" y="275"/>
      <point x="792" y="300"/>
      <point x="845" y="300" type="curve"/>
      <point x="903" y="300"/>
      <point x="941" y="272"/>
      <point x="941" y="218" type="curve"/>
      <point x="941" y="167"/>
      <point x="907" y="144"/>
      <point x="868" y="112" type="curve"/>
      <point x="801" y="64"/>
      <point x="734" y="15"/>
      <point x="667" y="-33" type="curve"/>
      <point x="674" y="-77"/>
      <point x="668" y="-33"/>
      <point x="675" y="-77" type="curve"/>
      <point x="754" y="-23"/>
      <point x="831" y="26"/>
      <point x="901" y="77" type="curve"/>
      <point x="953" y="121"/>
      <point x="996" y="153"/>
      <point x="996" y="220" type="curve"/>
      <point x="996" y="302"/>
      <point x="935" y="345"/>
      <point x="849" y="345" type="curve"/>
      <point x="777" y="345"/>
      <point x="726" y="318"/>
      <point x="692" y="255" type="curve"/>
      <point x="732" y="233"/>
      <point x="692" y="255"/>
    </contour>
  </outline>
</glyph>
<glyph name="threequarters" format="1">
  <advance width="1022"/>
  <unicode hex="00BE"/>
  <outline>
    <contour>
      <point x="338" y="-76" type="line"/>
      <point x="783" y="742" type="line"/>
      <point x="724" y="742" type="line"/>
      <point x="279" y="-76" type="line"/>
    </contour>
    <contour>
      <point x="82" y="658" type="curve"/>
      <point x="111" y="683"/>
      <point x="143" y="700"/>
      <point x="179" y="700" type="curve"/>
      <point x="236" y="700"/>
      <point x="278" y="680"/>
      <point x="278" y="628" type="curve"/>
      <point x="278" y="567"/>
      <point x="207" y="557"/>
      <point x="134" y="553" type="curve"/>
      <point x="134" y="515"/>
      <point x="134" y="553"/>
      <point x="134" y="515" type="curve"/>
      <point x="241" y="517"/>
      <point x="334" y="538"/>
      <point x="334" y="631" type="curve"/>
      <point x="334" y="711"/>
      <point x="271" y="743"/>
      <point x="185" y="743" type="curve"/>
      <point x="134" y="743"/>
      <point x="87" y="722"/>
      <point x="53" y="688" type="curve"/>
      <point x="82" y="658"/>
      <point x="53" y="688"/>
    </contour>
    <contour>
      <point x="48" y="351" type="curve"/>
      <point x="87" y="328"/>
      <point x="126" y="316"/>
      <point x="171" y="316" type="curve"/>
      <point x="274" y="313"/>
      <point x="353" y="345"/>
      <point x="351" y="437" type="curve"/>
      <point x="351" y="537"/>
      <point x="247" y="543"/>
      <point x="134" y="545" type="curve"/>
      <point x="134" y="512"/>
      <point x="134" y="545"/>
      <point x="134" y="512" type="curve"/>
      <point x="219" y="508"/>
      <point x="294" y="500"/>
      <point x="294" y="435" type="curve"/>
      <point x="294" y="377"/>
      <point x="244" y="357"/>
      <point x="177" y="359" type="curve"/>
      <point x="141" y="359"/>
      <point x="108" y="367"/>
      <point x="73" y="384" type="curve"/>
      <point x="48" y="351"/>
      <point x="73" y="384"/>
    </contour>
    <contour>
      <point x="989" y="82" type="line"/>
      <point x="601" y="82" type="line"/>
      <point x="601" y="39" type="line"/>
      <point x="989" y="39" type="line"/>
    </contour>
    <contour>
      <point x="621" y="43" type="line"/>
      <point x="878" y="346" type="line"/>
      <point x="832" y="357" type="line"/>
      <point x="601" y="82" type="line"/>
    </contour>
    <contour>
      <point x="888" y="-81" type="line"/>
      <point x="888" y="357" type="line"/>
      <point x="832" y="357" type="line"/>
      <point x="832" y="-81" type="line"/>
    </contour>
  </outline>
</glyph>
<glyph name="questiondown" format="1">
  <advance width="509"/>
  <unicode hex="00BF"/>
  <outline>
    <contour>
      <point x="314" y="364" type="curve"/>
      <point x="314" y="401"/>
      <point x="314" y="453"/>
      <point x="314" y="490" type="curve"/>
      <point x="255" y="490"/>
      <point x="314" y="490"/>
      <point x="255" y="490" type="curve"/>
      <point x="255" y="453"/>
      <point x="255" y="401"/>
      <point x="255" y="364" type="curve"/>
      <point x="314" y="364"/>
      <point x="255" y="364"/>
    </contour>
    <contour>
      <point x="423" y="102" type="line"/>
      <point x="390" y="67"/>
      <point x="341" y="39"/>
      <point x="279" y="39" type="curve"/>
      <point x="179" y="39"/>
      <point x="112" y="95"/>
      <point x="112" y="193" type="curve"/>
      <point x="112" y="302"/>
      <point x="191" y="364"/>
      <point x="308" y="364" type="curve"/>
      <point x="308" y="386"/>
      <point x="308" y="390"/>
      <point x="308" y="412" type="curve"/>
      <point x="158" y="412"/>
      <point x="54" y="332"/>
      <point x="54" y="193" type="curve"/>
      <point x="54" y="64"/>
      <point x="145" y="-11"/>
      <point x="276" y="-11" type="curve"/>
      <point x="354" y="-11"/>
      <point x="412" y="19"/>
      <point x="457" y="65" type="curve"/>
    </contour>
    <contour>
      <point x="249" y="692" type="curve"/>
      <point x="249" y="671"/>
      <point x="264" y="660"/>
      <point x="285" y="660" type="curve"/>
      <point x="306" y="660"/>
      <point x="320" y="673"/>
      <point x="320" y="692" type="curve"/>
      <point x="249" y="692"/>
      <point x="320" y="692"/>
      <point x="249" y="692" type="curve"/>
      <point x="249" y="714"/>
      <point x="264" y="724"/>
      <point x="285" y="724" type="curve"/>
      <point x="306" y="724"/>
      <point x="320" y="713"/>
      <point x="320" y="692" type="curve"/>
      <point x="249" y="692"/>
      <point x="320" y="692"/>
    </contour>
  </outline>
</glyph>
<glyph name="Acircumflex" format="1">
  <advance width="683"/>
  <unicode hex="00C2"/>
  <outline>
    <contour>
      <point x="519" y="285" type="curve"/>
      <point x="401" y="285"/>
      <point x="284" y="285"/>
      <point x="166" y="285" type="curve"/>
      <point x="141" y="235"/>
      <point x="166" y="285"/>
      <point x="141" y="235" type="curve"/>
      <point x="274" y="235"/>
      <point x="406" y="235"/>
      <point x="538" y="235" type="curve"/>
      <point x="519" y="285"/>
      <point x="538" y="235"/>
    </contour>
    <contour>
      <point x="662" y="0" type="curve"/>
      <point x="568" y="241"/>
      <point x="472" y="481"/>
      <point x="378" y="722" type="curve"/>
      <point x="323" y="722"/>
      <point x="378" y="722"/>
      <point x="323" y="722" type="curve"/>
      <point x="416" y="481"/>
      <point x="506" y="241"/>
      <point x="599" y="0" type="curve"/>
      <point x="662" y="0"/>
      <point x="599" y="0"/>
    </contour>
    <contour>
      <point x="69" y="0" type="curve"/>
      <point x="172" y="241"/>
      <point x="272" y="481"/>
      <point x="376" y="722" type="curve"/>
      <point x="321" y="722"/>
      <point x="376" y="722"/>
      <point x="321" y="722" type="curve"/>
      <point x="216" y="481"/>
      <point x="108" y="241"/>
      <point x="3" y="0" type="curve"/>
      <point x="69" y="0"/>
      <point x="3" y="0"/>
    </contour>
    <contour>
      <point x="232" y="812" type="line"/>
      <point x="377" y="978" type="line"/>
      <point x="297" y="978" type="line"/>
      <point x="171" y="812" type="line"/>
    </contour>
    <contour>
      <point x="526" y="812" type="line"/>
      <point x="399" y="978" type="line"/>
      <point x="319" y="978" type="line"/>
      <point x="464" y="812" type="line"/>
    </contour>
  </outline>
</glyph>
<glyph name="Atilde" format="1">
  <advance width="683"/>
  <unicode hex="00C3"/>
  <outline>
    <contour>
      <point x="519" y="285" type="curve"/>
      <point x="401" y="285"/>
      <point x="284" y="285"/>
      <point x="166" y="285" type="curve"/>
      <point x="141" y="235"/>
      <point x="166" y="285"/>
      <point x="141" y="235" type="curve"/>
      <point x="274" y="235"/>
      <point x="406" y="235"/>
      <point x="538" y="235" type="curve"/>
      <point x="519" y="285"/>
      <point x="538" y="235"/>
    </contour>
    <contour>
      <point x="662" y="0" type="curve"/>
      <point x="568" y="241"/>
      <point x="472" y="481"/>
      <point x="378" y="722" type="curve"/>
      <point x="323" y="722"/>
      <point x="378" y="722"/>
      <point x="323" y="722" type="curve"/>
      <point x="416" y="481"/>
      <point x="506" y="241"/>
      <point x="599" y="0" type="curve"/>
      <point x="662" y="0"/>
      <point x="599" y="0"/>
    </contour>
    <contour>
      <point x="69" y="0" type="curve"/>
      <point x="172" y="241"/>
      <point x="272" y="481"/>
      <point x="376" y="722" type="curve"/>
      <point x="321" y="722"/>
      <point x="376" y="722"/>
      <point x="321" y="722" type="curve"/>
      <point x="216" y="481"/>
      <point x="108" y="241"/>
      <point x="3" y="0" type="curve"/>
      <point x="69" y="0"/>
      <point x="3" y="0"/>
    </contour>
    <contour>
      <point x="513" y="953" type="curve"/>
      <point x="499" y="905"/>
      <point x="483" y="863"/>
      <point x="443" y="863" type="curve"/>
      <point x="405" y="863"/>
      <point x="383" y="879"/>
      <point x="357" y="906" type="curve"/>
      <point x="325" y="937"/>
      <point x="300" y="956"/>
      <point x="256" y="956" type="curve"/>
      <point x="186" y="956"/>
      <point x="155" y="904"/>
      <point x="136" y="832" type="curve"/>
      <point x="181" y="811"/>
      <point x="136" y="832"/>
      <point x="182" y="811" type="curve"/>
      <point x="196" y="865"/>
      <point x="216" y="903"/>
      <point x="261" y="903" type="curve"/>
      <point x="295" y="903"/>
      <point x="313" y="885"/>
      <point x="337" y="861" type="curve"/>
      <point x="372" y="828"/>
      <point x="399" y="809"/>
      <point x="447" y="809" type="curve"/>
      <point x="516" y="809"/>
      <point x="541" y="865"/>
      <point x="562" y="934" type="curve"/>
      <point x="513" y="953"/>
      <point x="562" y="934"/>
    </contour>
  </outline>
</glyph>
<glyph name="Adieresis" format="1">
  <advance width="683"/>
  <unicode hex="00C4"/>
  <outline>
    <contour>
      <point x="519" y="285" type="curve"/>
      <point x="401" y="285"/>
      <point x="284" y="285"/>
      <point x="166" y="285" type="curve"/>
      <point x="141" y="235"/>
      <point x="166" y="285"/>
      <point x="141" y="235" type="curve"/>
      <point x="274" y="235"/>
      <point x="406" y="235"/>
      <point x="538" y="235" type="curve"/>
      <point x="519" y="285"/>
      <point x="538" y="235"/>
    </contour>
    <contour>
      <point x="662" y="0" type="curve"/>
      <point x="568" y="241"/>
      <point x="472" y="481"/>
      <point x="378" y="722" type="curve"/>
      <point x="323" y="722"/>
      <point x="378" y="722"/>
      <point x="323" y="722" type="curve"/>
      <point x="416" y="481"/>
      <point x="506" y="241"/>
      <point x="599" y="0" type="curve"/>
      <point x="662" y="0"/>
      <point x="599" y="0"/>
    </contour>
    <contour>
      <point x="69" y="0" type="curve"/>
      <point x="172" y="241"/>
      <point x="272" y="481"/>
      <point x="376" y="722" type="curve"/>
      <point x="321" y="722"/>
      <point x="376" y="722"/>
      <point x="321" y="722" type="curve"/>
      <point x="216" y="481"/>
      <point x="108" y="241"/>
      <point x="3" y="0" type="curve"/>
      <point x="69" y="0"/>
      <point x="3" y="0"/>
    </contour>
    <contour>
      <point x="310" y="843" type="curve"/>
      <point x="310" y="865"/>
      <point x="294" y="877"/>
      <point x="272" y="877" type="curve"/>
      <point x="250" y="877"/>
      <point x="235" y="864"/>
      <point x="235" y="843" type="curve"/>
      <point x="301" y="843"/>
      <point x="245" y="843"/>
      <point x="310" y="843" type="curve"/>
      <point x="310" y="821"/>
      <point x="294" y="810"/>
      <point x="272" y="810" type="curve"/>
      <point x="249" y="810"/>
      <point x="235" y="822"/>
      <point x="235" y="843" type="curve"/>
      <point x="301" y="843"/>
      <point x="245" y="843"/>
    </contour>
    <contour>
      <point x="462" y="843" type="curve"/>
      <point x="462" y="865"/>
      <point x="447" y="877"/>
      <point x="424" y="877" type="curve"/>
      <point x="402" y="877"/>
      <point x="388" y="864"/>
      <point x="388" y="843" type="curve"/>
      <point x="453" y="843"/>
      <point x="397" y="843"/>
      <point x="462" y="843" type="curve"/>
      <point x="462" y="821"/>
      <point x="447" y="810"/>
      <point x="424" y="810" type="curve"/>
      <point x="402" y="810"/>
      <point x="388" y="822"/>
      <point x="388" y="843" type="curve"/>
      <point x="453" y="843"/>
      <point x="397" y="843"/>
    </contour>
  </outline>
</glyph>
<glyph name="Aring" format="1">
  <advance width="683"/>
  <unicode hex="00C5"/>
  <outline>
    <contour>
      <point x="519" y="285" type="curve"/>
      <point x="401" y="285"/>
      <point x="284" y="285"/>
      <point x="166" y="285" type="curve"/>
      <point x="141" y="235"/>
      <point x="166" y="285"/>
      <point x="141" y="235" type="curve"/>
      <point x="274" y="235"/>
      <point x="406" y="235"/>
      <point x="538" y="235" type="curve"/>
      <point x="519" y="285"/>
      <point x="538" y="235"/>
    </contour>
    <contour>
      <point x="662" y="0" type="curve"/>
      <point x="568" y="241"/>
      <point x="472" y="481"/>
      <point x="378" y="722" type="curve"/>
      <point x="323" y="722"/>
      <point x="378" y="722"/>
      <point x="323" y="722" type="curve"/>
      <point x="416" y="481"/>
      <point x="506" y="241"/>
      <point x="599" y="0" type="curve"/>
      <point x="662" y="0"/>
      <point x="599" y="0"/>
    </contour>
    <contour>
      <point x="69" y="0" type="curve"/>
      <point x="172" y="241"/>
      <point x="272" y="481"/>
      <point x="376" y="722" type="curve"/>
      <point x="321" y="722"/>
      <point x="376" y="722"/>
      <point x="321" y="722" type="curve"/>
      <point x="216" y="481"/>
      <point x="108" y="241"/>
      <point x="3" y="0" type="curve"/>
      <point x="69" y="0"/>
      <point x="3" y="0"/>
    </contour>
    <contour>
      <point x="214" y="936" type="curve"/>
      <point x="214" y="857"/>
      <point x="267" y="811"/>
      <point x="349" y="811" type="curve"/>
      <point x="432" y="811"/>
      <point x="487" y="855"/>
      <point x="487" y="936" type="curve"/>
      <point x="487" y="1017"/>
      <point x="431" y="1062"/>
      <point x="346" y="1062" type="curve"/>
      <point x="265" y="1062"/>
      <point x="214" y="1016"/>
      <point x="214" y="936" type="curve"/>
      <point x="266" y="936"/>
      <point x="212" y="936"/>
      <point x="265" y="936" type="curve"/>
      <point x="265" y="987"/>
      <point x="295" y="1019"/>
      <point x="346" y="1019" type="curve"/>
      <point x="401" y="1019"/>
      <point x="434" y="990"/>
      <point x="434" y="936" type="curve"/>
      <point x="434" y="884"/>
      <point x="402" y="854"/>
      <point x="349" y="854" type="curve"/>
      <point x="296" y="854"/>
      <point x="265" y="884"/>
      <point x="265" y="936" type="curve"/>
      <point x="212" y="936"/>
      <point x="266" y="936"/>
    </contour>
  </outline>
</glyph>
<glyph name="AE" format="1">
  <advance width="933"/>
  <unicode hex="00C6"/>
  <outline>
    <contour>
      <point x="441" y="265" type="curve"/>
      <point x="324" y="265"/>
      <point x="288" y="265"/>
      <point x="171" y="265" type="curve"/>
      <point x="146" y="214"/>
      <point x="171" y="265"/>
      <point x="146" y="214" type="curve"/>
      <point x="278" y="214"/>
      <point x="328" y="214"/>
      <point x="461" y="214" type="curve"/>
      <point x="441" y="265"/>
      <point x="461" y="214"/>
    </contour>
    <contour>
      <point x="61" y="0" type="curve"/>
      <point x="486" y="722" type="line"/>
      <point x="431" y="722"/>
      <point x="484" y="722"/>
      <point x="429" y="722" type="curve"/>
      <point x="-6" y="0" type="line"/>
      <point x="60" y="0"/>
      <point x="-5" y="0"/>
    </contour>
    <contour>
      <point x="465" y="350" type="curve"/>
      <point x="579" y="350"/>
      <point x="693" y="350"/>
      <point x="808" y="350" type="curve"/>
      <point x="808" y="398"/>
      <point x="808" y="350"/>
      <point x="808" y="398" type="curve"/>
      <point x="693" y="398"/>
      <point x="579" y="398"/>
      <point x="465" y="398" type="curve"/>
      <point x="465" y="350"/>
      <point x="465" y="398"/>
    </contour>
    <contour>
      <point x="449" y="674" type="curve"/>
      <point x="591" y="674"/>
      <point x="732" y="674"/>
      <point x="873" y="674" type="curve"/>
      <point x="873" y="722"/>
      <point x="873" y="674"/>
      <point x="873" y="722" type="curve"/>
      <point x="732" y="722"/>
      <point x="591" y="722"/>
      <point x="449" y="722" type="curve"/>
      <point x="449" y="674"/>
      <point x="449" y="722"/>
    </contour>
    <contour>
      <point x="489" y="0" type="curve"/>
      <point x="489" y="722" type="line"/>
      <point x="429" y="722"/>
      <point x="489" y="722"/>
      <point x="429" y="722" type="curve"/>
      <point x="429" y="481"/>
      <point x="429" y="241"/>
      <point x="429" y="0" type="curve"/>
      <point x="489" y="0"/>
      <point x="429" y="0"/>
    </contour>
    <contour>
      <point x="449" y="0" type="curve"/>
      <point x="603" y="0"/>
      <point x="755" y="0"/>
      <point x="909" y="0" type="curve"/>
      <point x="909" y="48"/>
      <point x="909" y="0"/>
      <point x="909" y="48" type="curve"/>
      <point x="755" y="48"/>
      <point x="603" y="48"/>
      <point x="449" y="48" type="curve"/>
      <point x="449" y="0"/>
      <point x="449" y="48"/>
    </contour>
  </outline>
</glyph>
<glyph name="Ccedilla" format="1">
  <advance width="704"/>
  <unicode hex="00C7"/>
  <outline>
    <contour>
      <point x="661" y="655" type="curve"/>
      <point x="588" y="696"/>
      <point x="507" y="727"/>
      <point x="416" y="727" type="curve"/>
      <point x="186" y="727"/>
      <point x="62" y="581"/>
      <point x="62" y="344" type="curve"/>
      <point x="62" y="127"/>
      <point x="179" y="-5"/>
      <point x="393" y="-5" type="curve"/>
      <point x="512" y="-5"/>
      <point x="588" y="28"/>
      <point x="676" y="95" type="curve"/>
      <point x="646" y="134"/>
      <point x="676" y="95"/>
      <point x="645" y="134" type="curve"/>
      <point x="565" y="74"/>
      <point x="497" y="47"/>
      <point x="395" y="47" type="curve"/>
      <point x="216" y="47"/>
      <point x="122" y="162"/>
      <point x="122" y="346" type="curve"/>
      <point x="122" y="547"/>
      <point x="221" y="677"/>
      <point x="413" y="677" type="curve"/>
      <point x="493" y="677"/>
      <point x="565" y="653"/>
      <point x="632" y="616" type="curve"/>
      <point x="661" y="655"/>
      <point x="632" y="616"/>
    </contour>
    <contour>
      <point x="364" y="33" type="curve"/>
      <point x="349" y="8"/>
      <point x="320" y="-40"/>
      <point x="305" y="-65" type="curve"/>
      <point x="346" y="-104"/>
      <point x="305" y="-65"/>
      <point x="346" y="-104" type="curve"/>
      <point x="362" y="-76"/>
      <point x="394" y="-27"/>
      <point x="410" y="0" type="curve"/>
      <point x="364" y="33"/>
      <point x="410" y="0"/>
    </contour>
    <contour>
      <point x="346" y="-104" type="curve"/>
      <point x="359" y="-96"/>
      <point x="369" y="-93"/>
      <point x="384" y="-93" type="curve"/>
      <point x="412" y="-93"/>
      <point x="428" y="-109"/>
      <point x="428" y="-137" type="curve"/>
      <point x="428" y="-168"/>
      <point x="404" y="-181"/>
      <point x="371" y="-181" type="curve"/>
      <point x="344" y="-181"/>
      <point x="324" y="-177"/>
      <point x="298" y="-163" type="curve"/>
      <point x="278" y="-199"/>
      <point x="298" y="-163"/>
      <point x="278" y="-199" type="curve"/>
      <point x="308" y="-215"/>
      <point x="333" y="-223"/>
      <point x="368" y="-223" type="curve"/>
      <point x="432" y="-223"/>
      <point x="479" y="-196"/>
      <point x="479" y="-136" type="curve"/>
      <point x="479" y="-79"/>
      <point x="442" y="-47"/>
      <point x="385" y="-47" type="curve"/>
      <point x="355" y="-47"/>
      <point x="333" y="-53"/>
      <point x="305" y="-66" type="curve"/>
      <point x="346" y="-104"/>
      <point x="305" y="-66"/>
    </contour>
  </outline>
</glyph>
<glyph name="Egrave" format="1">
  <advance width="616"/>
  <unicode hex="00C8"/>
  <outline>
    <contour>
      <point x="149" y="350" type="curve"/>
      <point x="262" y="350"/>
      <point x="377" y="350"/>
      <point x="491" y="350" type="curve"/>
      <point x="491" y="398"/>
      <point x="491" y="350"/>
      <point x="491" y="398" type="curve"/>
      <point x="377" y="398"/>
      <point x="262" y="398"/>
      <point x="149" y="398" type="curve"/>
      <point x="149" y="350"/>
      <point x="149" y="398"/>
    </contour>
    <contour>
      <point x="133" y="674" type="curve"/>
      <point x="274" y="674"/>
      <point x="415" y="674"/>
      <point x="557" y="674" type="curve"/>
      <point x="557" y="722"/>
      <point x="557" y="674"/>
      <point x="557" y="722" type="curve"/>
      <point x="415" y="722"/>
      <point x="274" y="722"/>
      <point x="133" y="722" type="curve"/>
      <point x="133" y="674"/>
      <point x="133" y="722"/>
    </contour>
    <contour>
      <point x="173" y="0" type="curve"/>
      <point x="173" y="722" type="line"/>
      <point x="112" y="722"/>
      <point x="173" y="722"/>
      <point x="112" y="722" type="curve"/>
      <point x="112" y="481"/>
      <point x="112" y="241"/>
      <point x="112" y="0" type="curve"/>
      <point x="173" y="0"/>
      <point x="112" y="0"/>
    </contour>
    <contour>
      <point x="133" y="0" type="curve"/>
      <point x="286" y="0"/>
      <point x="439" y="0"/>
      <point x="592" y="0" type="curve"/>
      <point x="592" y="48"/>
      <point x="592" y="0"/>
      <point x="592" y="48" type="curve"/>
      <point x="439" y="48"/>
      <point x="286" y="48"/>
      <point x="133" y="48" type="curve"/>
      <point x="133" y="0"/>
      <point x="133" y="48"/>
    </contour>
    <contour>
      <point x="342" y="812" type="line"/>
      <point x="215" y="978" type="line"/>
      <point x="135" y="978" type="line"/>
      <point x="280" y="812" type="line"/>
    </contour>
  </outline>
</glyph>
<glyph name="Ecircumflex" format="1">
  <advance width="604"/>
  <unicode hex="00CA"/>
  <outline>
    <contour>
      <point x="140" y="350" type="curve"/>
      <point x="254" y="350"/>
      <point x="368" y="350"/>
      <point x="483" y="350" type="curve"/>
      <point x="483" y="398"/>
      <point x="483" y="350"/>
      <point x="483" y="398" type="curve"/>
      <point x="368" y="398"/>
      <point x="254" y="398"/>
      <point x="140" y="398" type="curve"/>
      <point x="140" y="350"/>
      <point x="140" y="398"/>
    </contour>
    <contour>
      <point x="124" y="674" type="curve"/>
      <point x="266" y="674"/>
      <point x="407" y="674"/>
      <point x="548" y="674" type="curve"/>
      <point x="548" y="722"/>
      <point x="548" y="674"/>
      <point x="548" y="722" type="curve"/>
      <point x="407" y="722"/>
      <point x="266" y="722"/>
      <point x="124" y="722" type="curve"/>
      <point x="124" y="674"/>
      <point x="124" y="722"/>
    </contour>
    <contour>
      <point x="164" y="0" type="curve"/>
      <point x="164" y="722" type="line"/>
      <point x="104" y="722"/>
      <point x="164" y="722"/>
      <point x="104" y="722" type="curve"/>
      <point x="104" y="481"/>
      <point x="104" y="241"/>
      <point x="104" y="0" type="curve"/>
      <point x="164" y="0"/>
      <point x="104" y="0"/>
    </contour>
    <contour>
      <point x="124" y="0" type="curve"/>
      <point x="278" y="0"/>
      <point x="430" y="0"/>
      <point x="584" y="0" type="curve"/>
      <point x="584" y="48"/>
      <point x="584" y="0"/>
      <point x="584" y="48" type="curve"/>
      <point x="430" y="48"/>
      <point x="278" y="48"/>
      <point x="124" y="48" type="curve"/>
      <point x="124" y="0"/>
      <point x="124" y="48"/>
    </contour>
    <contour>
      <point x="183" y="812" type="line"/>
      <point x="328" y="978" type="line"/>
      <point x="248" y="978" type="line"/>
      <point x="121" y="812" type="line"/>
    </contour>
    <contour>
      <point x="477" y="812" type="line"/>
      <point x="350" y="978" type="line"/>
      <point x="270" y="978" type="line"/>
      <point x="415" y="812" type="line"/>
    </contour>
  </outline>
</glyph>
<glyph name="Edieresis" format="1">
  <advance width="613"/>
  <unicode hex="00CB"/>
  <outline>
    <contour>
      <point x="146" y="350" type="curve"/>
      <point x="259" y="350"/>
      <point x="374" y="350"/>
      <point x="488" y="350" type="curve"/>
      <point x="488" y="398"/>
      <point x="488" y="350"/>
      <point x="488" y="398" type="curve"/>
      <point x="374" y="398"/>
      <point x="259" y="398"/>
      <point x="146" y="398" type="curve"/>
      <point x="146" y="350"/>
      <point x="146" y="398"/>
    </contour>
    <contour>
      <point x="130" y="674" type="curve"/>
      <point x="271" y="674"/>
      <point x="412" y="674"/>
      <point x="554" y="674" type="curve"/>
      <point x="554" y="722"/>
      <point x="554" y="674"/>
      <point x="554" y="722" type="curve"/>
      <point x="412" y="722"/>
      <point x="271" y="722"/>
      <point x="130" y="722" type="curve"/>
      <point x="130" y="674"/>
      <point x="130" y="722"/>
    </contour>
    <contour>
      <point x="170" y="0" type="curve"/>
      <point x="170" y="722" type="line"/>
      <point x="109" y="722"/>
      <point x="170" y="722"/>
      <point x="109" y="722" type="curve"/>
      <point x="109" y="481"/>
      <point x="109" y="241"/>
      <point x="109" y="0" type="curve"/>
      <point x="170" y="0"/>
      <point x="109" y="0"/>
    </contour>
    <contour>
      <point x="130" y="0" type="curve"/>
      <point x="283" y="0"/>
      <point x="436" y="0"/>
      <point x="589" y="0" type="curve"/>
      <point x="589" y="48"/>
      <point x="589" y="0"/>
      <point x="589" y="48" type="curve"/>
      <point x="436" y="48"/>
      <point x="283" y="48"/>
      <point x="130" y="48" type="curve"/>
      <point x="130" y="0"/>
      <point x="130" y="48"/>
    </contour>
    <contour>
      <point x="266" y="843" type="curve"/>
      <point x="266" y="865"/>
      <point x="250" y="877"/>
      <point x="228" y="877" type="curve"/>
      <point x="206" y="877"/>
      <point x="191" y="864"/>
      <point x="191" y="843" type="curve"/>
      <point x="256" y="843"/>
      <point x="200" y="843"/>
      <point x="266" y="843" type="curve"/>
      <point x="266" y="821"/>
      <point x="250" y="810"/>
      <point x="227" y="810" type="curve"/>
      <point x="205" y="810"/>
      <point x="191" y="822"/>
      <point x="191" y="843" type="curve"/>
      <point x="256" y="843"/>
      <point x="200" y="843"/>
    </contour>
    <contour>
      <point x="418" y="843" type="curve"/>
      <point x="418" y="865"/>
      <point x="402" y="877"/>
      <point x="380" y="877" type="curve"/>
      <point x="358" y="877"/>
      <point x="344" y="864"/>
      <point x="344" y="843" type="curve"/>
      <point x="409" y="843"/>
      <point x="353" y="843"/>
      <point x="418" y="843" type="curve"/>
      <point x="418" y="821"/>
      <point x="402" y="810"/>
      <point x="380" y="810" type="curve"/>
      <point x="358" y="810"/>
      <point x="344" y="822"/>
      <point x="344" y="843" type="curve"/>
      <point x="409" y="843"/>
      <point x="353" y="843"/>
    </contour>
  </outline>
</glyph>
<glyph name="Igrave" format="1">
  <advance width="295"/>
  <unicode hex="00CC"/>
  <outline>
    <contour>
      <point x="180" y="0" type="curve"/>
      <point x="180" y="241"/>
      <point x="180" y="481"/>
      <point x="180" y="722" type="curve"/>
      <point x="120" y="722"/>
      <point x="180" y="722"/>
      <point x="120" y="722" type="curve"/>
      <point x="120" y="481"/>
      <point x="120" y="241"/>
      <point x="120" y="0" type="curve"/>
      <point x="180" y="0"/>
      <point x="120" y="0"/>
    </contour>
    <contour>
      <point x="186" y="812" type="line"/>
      <point x="59" y="978" type="line"/>
      <point x="-21" y="978" type="line"/>
      <point x="124" y="812" type="line"/>
    </contour>
  </outline>
</glyph>
<glyph name="Iacute" format="1">
  <advance width="291"/>
  <unicode hex="00CD"/>
  <outline>
    <contour>
      <point x="173" y="0" type="curve"/>
      <point x="173" y="241"/>
      <point x="173" y="481"/>
      <point x="173" y="722" type="curve"/>
      <point x="112" y="722"/>
      <point x="173" y="722"/>
      <point x="112" y="722" type="curve"/>
      <point x="112" y="481"/>
      <point x="112" y="241"/>
      <point x="112" y="0" type="curve"/>
      <point x="173" y="0"/>
      <point x="112" y="0"/>
    </contour>
    <contour>
      <point x="171" y="812" type="line"/>
      <point x="316" y="978" type="line"/>
      <point x="236" y="978" type="line"/>
      <point x="110" y="812" type="line"/>
    </contour>
  </outline>
</glyph>
<glyph name="Icircumflex" format="1">
  <advance width="295"/>
  <unicode hex="00CE"/>
  <outline>
    <contour>
      <point x="183" y="0" type="curve"/>
      <point x="183" y="241"/>
      <point x="183" y="481"/>
      <point x="183" y="722" type="curve"/>
      <point x="123" y="722"/>
      <point x="183" y="722"/>
      <point x="123" y="722" type="curve"/>
      <point x="123" y="481"/>
      <point x="123" y="241"/>
      <point x="123" y="0" type="curve"/>
      <point x="183" y="0"/>
      <point x="123" y="0"/>
    </contour>
    <contour>
      <point x="37" y="812" type="line"/>
      <point x="183" y="978" type="line"/>
      <point x="102" y="978" type="line"/>
      <point x="-24" y="812" type="line"/>
    </contour>
    <contour>
      <point x="332" y="812" type="line"/>
      <point x="204" y="978" type="line"/>
      <point x="124" y="978" type="line"/>
      <point x="270" y="812" type="line"/>
    </contour>
  </outline>
</glyph>
<glyph name="Idieresis" format="1">
  <advance width="264"/>
  <unicode hex="00CF"/>
  <outline>
    <contour>
      <point x="164" y="0" type="curve"/>
      <point x="164" y="241"/>
      <point x="164" y="481"/>
      <point x="164" y="722" type="curve"/>
      <point x="103" y="722"/>
      <point x="164" y="722"/>
      <point x="103" y="722" type="curve"/>
      <point x="103" y="481"/>
      <point x="103" y="241"/>
      <point x="103" y="0" type="curve"/>
      <point x="164" y="0"/>
      <point x="103" y="0"/>
    </contour>
    <contour>
      <point x="96" y="843" type="curve"/>
      <point x="96" y="865"/>
      <point x="80" y="877"/>
      <point x="58" y="877" type="curve"/>
      <point x="36" y="877"/>
      <point x="21" y="864"/>
      <point x="21" y="843" type="curve"/>
      <point x="87" y="843"/>
      <point x="31" y="843"/>
      <point x="96" y="843" type="curve"/>
      <point x="96" y="821"/>
      <point x="80" y="810"/>
      <point x="58" y="810" type="curve"/>
      <point x="35" y="810"/>
      <point x="21" y="822"/>
      <point x="21" y="843" type="curve"/>
      <point x="87" y="843"/>
      <point x="31" y="843"/>
    </contour>
    <contour>
      <point x="248" y="843" type="curve"/>
      <point x="248" y="865"/>
      <point x="233" y="877"/>
      <point x="210" y="877" type="curve"/>
      <point x="188" y="877"/>
      <point x="174" y="864"/>
      <point x="174" y="843" type="curve"/>
      <point x="239" y="843"/>
      <point x="183" y="843"/>
      <point x="248" y="843" type="curve"/>
      <point x="248" y="821"/>
      <point x="233" y="810"/>
      <point x="210" y="810" type="curve"/>
      <point x="188" y="810"/>
      <point x="174" y="822"/>
      <point x="174" y="843" type="curve"/>
      <point x="239" y="843"/>
      <point x="183" y="843"/>
    </contour>
  </outline>
</glyph>
<glyph name="Ntilde" format="1">
  <advance width="849"/>
  <unicode hex="00D1"/>
  <outline>
    <contour>
      <point x="738" y="0" type="curve"/>
      <point x="552" y="241"/>
      <point x="367" y="481"/>
      <point x="181" y="722" type="curve"/>
      <point x="111" y="722"/>
      <point x="180" y="722"/>
      <point x="110" y="722" type="curve"/>
      <point x="296" y="481"/>
      <point x="481" y="241"/>
      <point x="667" y="0" type="curve"/>
      <point x="737" y="0"/>
      <point x="668" y="0"/>
    </contour>
    <contour>
      <point x="679" y="722" type="curve"/>
      <point x="679" y="481"/>
      <point x="679" y="241"/>
      <point x="679" y="0" type="curve"/>
      <point x="739" y="0"/>
      <point x="679" y="0"/>
      <point x="739" y="0" type="curve"/>
      <point x="739" y="241"/>
      <point x="739" y="481"/>
      <point x="739" y="722" type="curve"/>
      <point x="679" y="722"/>
      <point x="739" y="722"/>
    </contour>
    <contour>
      <point x="171" y="0" type="curve"/>
      <point x="171" y="241"/>
      <point x="171" y="481"/>
      <point x="171" y="722" type="curve"/>
      <point x="110" y="722"/>
      <point x="171" y="722"/>
      <point x="110" y="722" type="curve"/>
      <point x="110" y="481"/>
      <point x="110" y="241"/>
      <point x="110" y="0" type="curve"/>
      <point x="171" y="0"/>
      <point x="110" y="0"/>
    </contour>
    <contour>
      <point x="597" y="953" type="curve"/>
      <point x="583" y="905"/>
      <point x="567" y="863"/>
      <point x="527" y="863" type="curve"/>
      <point x="489" y="863"/>
      <point x="467" y="879"/>
      <point x="440" y="906" type="curve"/>
      <point x="408" y="937"/>
      <point x="384" y="956"/>
      <point x="340" y="956" type="curve"/>
      <point x="270" y="956"/>
      <point x="238" y="904"/>
      <point x="219" y="832" type="curve"/>
      <point x="265" y="811"/>
      <point x="220" y="832"/>
      <point x="265" y="811" type="curve"/>
      <point x="280" y="865"/>
      <point x="300" y="903"/>
      <point x="345" y="903" type="curve"/>
      <point x="379" y="903"/>
      <point x="397" y="885"/>
      <point x="421" y="861" type="curve"/>
      <point x="455" y="828"/>
      <point x="483" y="809"/>
      <point x="530" y="809" type="curve"/>
      <point x="599" y="809"/>
      <point x="625" y="865"/>
      <point x="645" y="934" type="curve"/>
      <point x="597" y="953"/>
      <point x="645" y="934"/>
    </contour>
  </outline>
</glyph>
<glyph name="Ograve" format="1">
  <advance width="785"/>
  <unicode hex="00D2"/>
  <outline>
    <contour>
      <point x="123" y="360" type="curve" name="FullCurve"/>
      <point x="123" y="545"/>
      <point x="211" y="677"/>
      <point x="390" y="677" type="curve" name="FullCurve"/>
      <point x="569" y="677"/>
      <point x="662" y="548"/>
      <point x="662" y="363" type="curve" name="FullCurve"/>
      <point x="662" y="178"/>
      <point x="574" y="46"/>
      <point x="394" y="46" type="curve" name="FullCurve"/>
      <point x="214" y="46"/>
      <point x="123" y="174"/>
      <point x="123" y="360" type="curve" name="FullCurve"/>
      <point x="62" y="360"/>
      <point x="123" y="360"/>
      <point x="62" y="360" type="curve" name="FullCurve"/>
      <point x="62" y="141"/>
      <point x="179" y="-5"/>
      <point x="392" y="-5" type="curve" name="FullCurve"/>
      <point x="606" y="-5"/>
      <point x="723" y="143"/>
      <point x="723" y="363" type="curve" name="FullCurve"/>
      <point x="723" y="580"/>
      <point x="606" y="727"/>
      <point x="394" y="727" type="curve" name="FullCurve"/>
      <point x="179" y="727"/>
      <point x="62" y="579"/>
      <point x="62" y="360" type="curve" name="FullCurve"/>
      <point x="123" y="360"/>
      <point x="62" y="360"/>
    </contour>
    <contour>
      <point x="427" y="812" type="line"/>
      <point x="300" y="978" type="line"/>
      <point x="220" y="978" type="line"/>
      <point x="365" y="812" type="line"/>
    </contour>
  </outline>
</glyph>
<glyph name="Otilde" format="1">
  <advance width="785"/>
  <unicode hex="00D5"/>
  <outline>
    <contour>
      <point x="123" y="360" type="curve" name="FullCurve"/>
      <point x="123" y="545"/>
      <point x="211" y="677"/>
      <point x="390" y="677" type="curve" name="FullCurve"/>
      <point x="569" y="677"/>
      <point x="662" y="548"/>
      <point x="662" y="363" type="curve" name="FullCurve"/>
      <point x="662" y="178"/>
      <point x="574" y="46"/>
      <point x="394" y="46" type="curve" name="FullCurve"/>
      <point x="214" y="46"/>
      <point x="123" y="174"/>
      <point x="123" y="360" type="curve" name="FullCurve"/>
      <point x="62" y="360"/>
      <point x="123" y="360"/>
      <point x="62" y="360" type="curve" name="FullCurve"/>
      <point x="62" y="141"/>
      <point x="179" y="-5"/>
      <point x="392" y="-5" type="curve" name="FullCurve"/>
      <point x="606" y="-5"/>
      <point x="723" y="143"/>
      <point x="723" y="363" type="curve" name="FullCurve"/>
      <point x="723" y="580"/>
      <point x="606" y="727"/>
      <point x="394" y="727" type="curve" name="FullCurve"/>
      <point x="179" y="727"/>
      <point x="62" y="579"/>
      <point x="62" y="360" type="curve" name="FullCurve"/>
      <point x="123" y="360"/>
      <point x="62" y="360"/>
    </contour>
    <contour>
      <point x="557" y="953" type="curve"/>
      <point x="543" y="905"/>
      <point x="527" y="863"/>
      <point x="487" y="863" type="curve"/>
      <point x="449" y="863"/>
      <point x="427" y="879"/>
      <point x="401" y="906" type="curve"/>
      <point x="369" y="937"/>
      <point x="344" y="956"/>
      <point x="300" y="956" type="curve"/>
      <point x="230" y="956"/>
      <point x="199" y="904"/>
      <point x="180" y="832" type="curve"/>
      <point x="225" y="811"/>
      <point x="180" y="832"/>
      <point x="226" y="811" type="curve"/>
      <point x="241" y="865"/>
      <point x="260" y="903"/>
      <point x="305" y="903" type="curve"/>
      <point x="340" y="903"/>
      <point x="357" y="885"/>
      <point x="381" y="861" type="curve"/>
      <point x="416" y="828"/>
      <point x="443" y="809"/>
      <point x="491" y="809" type="curve"/>
      <point x="560" y="809"/>
      <point x="585" y="865"/>
      <point x="606" y="934" type="curve"/>
      <point x="557" y="953"/>
      <point x="606" y="934"/>
    </contour>
  </outline>
</glyph>
<glyph name="Odieresis" format="1">
  <advance width="785"/>
  <unicode hex="00D6"/>
  <outline>
    <contour>
      <point x="123" y="360" type="curve" name="FullCurve"/>
      <point x="123" y="545"/>
      <point x="211" y="677"/>
      <point x="390" y="677" type="curve" name="FullCurve"/>
      <point x="569" y="677"/>
      <point x="662" y="548"/>
      <point x="662" y="363" type="curve" name="FullCurve"/>
      <point x="662" y="178"/>
      <point x="574" y="46"/>
      <point x="394" y="46" type="curve" name="FullCurve"/>
      <point x="214" y="46"/>
      <point x="123" y="174"/>
      <point x="123" y="360" type="curve" name="FullCurve"/>
      <point x="62" y="360"/>
      <point x="123" y="360"/>
      <point x="62" y="360" type="curve" name="FullCurve"/>
      <point x="62" y="141"/>
      <point x="179" y="-5"/>
      <point x="392" y="-5" type="curve" name="FullCurve"/>
      <point x="606" y="-5"/>
      <point x="723" y="143"/>
      <point x="723" y="363" type="curve" name="FullCurve"/>
      <point x="723" y="580"/>
      <point x="606" y="727"/>
      <point x="394" y="727" type="curve" name="FullCurve"/>
      <point x="179" y="727"/>
      <point x="62" y="579"/>
      <point x="62" y="360" type="curve" name="FullCurve"/>
      <point x="123" y="360"/>
      <point x="62" y="360"/>
    </contour>
    <contour>
      <point x="354" y="843" type="curve"/>
      <point x="354" y="865"/>
      <point x="338" y="877"/>
      <point x="316" y="877" type="curve"/>
      <point x="294" y="877"/>
      <point x="279" y="864"/>
      <point x="279" y="843" type="curve"/>
      <point x="345" y="843"/>
      <point x="289" y="843"/>
      <point x="354" y="843" type="curve"/>
      <point x="354" y="821"/>
      <point x="338" y="810"/>
      <point x="316" y="810" type="curve"/>
      <point x="293" y="810"/>
      <point x="279" y="822"/>
      <point x="279" y="843" type="curve"/>
      <point x="345" y="843"/>
      <point x="289" y="843"/>
    </contour>
    <contour>
      <point x="506" y="843" type="curve"/>
      <point x="506" y="865"/>
      <point x="491" y="877"/>
      <point x="468" y="877" type="curve"/>
      <point x="446" y="877"/>
      <point x="432" y="864"/>
      <point x="432" y="843" type="curve"/>
      <point x="497" y="843"/>
      <point x="441" y="843"/>
      <point x="506" y="843" type="curve"/>
      <point x="506" y="821"/>
      <point x="491" y="810"/>
      <point x="468" y="810" type="curve"/>
      <point x="446" y="810"/>
      <point x="432" y="822"/>
      <point x="432" y="843" type="curve"/>
      <point x="497" y="843"/>
      <point x="441" y="843"/>
    </contour>
  </outline>
</glyph>
<glyph name="multiply" format="1">
  <advance width="549"/>
  <unicode hex="00D7"/>
  <outline>
    <contour>
      <point x="98" y="95" type="line"/>
      <point x="486" y="486" type="line"/>
      <point x="450" y="523" type="line"/>
      <point x="61" y="132" type="line"/>
    </contour>
    <contour>
      <point x="489" y="130" type="line"/>
      <point x="98" y="524" type="line"/>
      <point x="62" y="487" type="line"/>
      <point x="452" y="94" type="line"/>
    </contour>
  </outline>
</glyph>
<glyph name="Ucircumflex" format="1">
  <advance width="783"/>
  <unicode hex="00DB"/>
  <outline>
    <contour>
      <point x="101" y="721" type="curve"/>
      <point x="101" y="564"/>
      <point x="101" y="430"/>
      <point x="101" y="273" type="curve"/>
      <point x="101" y="84"/>
      <point x="199" y="-5"/>
      <point x="392" y="-5" type="curve"/>
      <point x="583" y="-5"/>
      <point x="681" y="84"/>
      <point x="681" y="271" type="curve"/>
      <point x="681" y="429"/>
      <point x="681" y="564"/>
      <point x="681" y="721" type="curve"/>
      <point x="631" y="721"/>
      <point x="676" y="721"/>
      <point x="626" y="721" type="curve"/>
      <point x="626" y="560"/>
      <point x="626" y="425"/>
      <point x="626" y="264" type="curve"/>
      <point x="626" y="119"/>
      <point x="546" y="48"/>
      <point x="397" y="48" type="curve"/>
      <point x="236" y="48"/>
      <point x="157" y="123"/>
      <point x="157" y="282" type="curve"/>
      <point x="157" y="436"/>
      <point x="157" y="568"/>
      <point x="157" y="721" type="curve"/>
      <point x="107" y="721"/>
      <point x="151" y="721"/>
    </contour>
    <contour>
      <point x="279" y="812" type="line"/>
      <point x="424" y="978" type="line"/>
      <point x="344" y="978" type="line"/>
      <point x="217" y="812" type="line"/>
    </contour>
    <contour>
      <point x="573" y="812" type="line"/>
      <point x="446" y="978" type="line"/>
      <point x="366" y="978" type="line"/>
      <point x="511" y="812" type="line"/>
    </contour>
  </outline>
</glyph>
<glyph name="Udieresis" format="1">
  <advance width="783"/>
  <unicode hex="00DC"/>
  <outline>
    <contour>
      <point x="101" y="721" type="curve"/>
      <point x="101" y="564"/>
      <point x="101" y="430"/>
      <point x="101" y="273" type="curve"/>
      <point x="101" y="84"/>
      <point x="199" y="-5"/>
      <point x="392" y="-5" type="curve"/>
      <point x="583" y="-5"/>
      <point x="681" y="84"/>
      <point x="681" y="271" type="curve"/>
      <point x="681" y="429"/>
      <point x="681" y="564"/>
      <point x="681" y="721" type="curve"/>
      <point x="631" y="721"/>
      <point x="676" y="721"/>
      <point x="626" y="721" type="curve"/>
      <point x="626" y="560"/>
      <point x="626" y="425"/>
      <point x="626" y="264" type="curve"/>
      <point x="626" y="119"/>
      <point x="546" y="48"/>
      <point x="397" y="48" type="curve"/>
      <point x="236" y="48"/>
      <point x="157" y="123"/>
      <point x="157" y="282" type="curve"/>
      <point x="157" y="436"/>
      <point x="157" y="568"/>
      <point x="157" y="721" type="curve"/>
      <point x="107" y="721"/>
      <point x="151" y="721"/>
    </contour>
    <contour>
      <point x="357" y="843" type="curve"/>
      <point x="357" y="865"/>
      <point x="341" y="877"/>
      <point x="319" y="877" type="curve"/>
      <point x="297" y="877"/>
      <point x="283" y="864"/>
      <point x="283" y="843" type="curve"/>
      <point x="348" y="843"/>
      <point x="292" y="843"/>
      <point x="357" y="843" type="curve"/>
      <point x="357" y="821"/>
      <point x="341" y="810"/>
      <point x="319" y="810" type="curve"/>
      <point x="297" y="810"/>
      <point x="283" y="822"/>
      <point x="283" y="843" type="curve"/>
      <point x="348" y="843"/>
      <point x="292" y="843"/>
    </contour>
    <contour>
      <point x="510" y="843" type="curve"/>
      <point x="510" y="865"/>
      <point x="494" y="877"/>
      <point x="472" y="877" type="curve"/>
      <point x="450" y="877"/>
      <point x="435" y="864"/>
      <point x="435" y="843" type="curve"/>
      <point x="501" y="843"/>
      <point x="444" y="843"/>
      <point x="510" y="843" type="curve"/>
      <point x="510" y="821"/>
      <point x="494" y="810"/>
      <point x="471" y="810" type="curve"/>
      <point x="449" y="810"/>
      <point x="435" y="822"/>
      <point x="435" y="843" type="curve"/>
      <point x="501" y="843"/>
      <point x="444" y="843"/>
    </contour>
  </outline>
</glyph>
<glyph name="Thorn" format="1">
  <advance width="589"/>
  <unicode hex="00DE"/>
  <outline>
    <contour>
      <point x="133" y="225" type="curve"/>
      <point x="190" y="198"/>
      <point x="244" y="180"/>
      <point x="309" y="180" type="curve"/>
      <point x="449" y="182"/>
      <point x="546" y="255"/>
      <point x="546" y="394" type="curve"/>
      <point x="546" y="536"/>
      <point x="436" y="615"/>
      <point x="280" y="615" type="curve"/>
      <point x="235" y="615"/>
      <point x="190" y="615"/>
      <point x="145" y="615" type="curve"/>
      <point x="145" y="568"/>
      <point x="145" y="615"/>
      <point x="145" y="568" type="curve"/>
      <point x="187" y="568"/>
      <point x="230" y="568"/>
      <point x="272" y="568" type="curve"/>
      <point x="398" y="568"/>
      <point x="486" y="506"/>
      <point x="486" y="391" type="curve"/>
      <point x="486" y="288"/>
      <point x="414" y="227"/>
      <point x="307" y="227" type="curve"/>
      <point x="247" y="227"/>
      <point x="206" y="242"/>
      <point x="153" y="267" type="curve"/>
      <point x="133" y="226"/>
      <point x="153" y="267"/>
    </contour>
    <contour>
      <point x="170" y="0" type="curve"/>
      <point x="170" y="241"/>
      <point x="170" y="481"/>
      <point x="170" y="722" type="curve"/>
      <point x="110" y="722"/>
      <point x="170" y="722"/>
      <point x="110" y="722" type="curve"/>
      <point x="110" y="481"/>
      <point x="110" y="241"/>
      <point x="110" y="0" type="curve"/>
      <point x="170" y="0"/>
      <point x="110" y="0"/>
    </contour>
  </outline>
</glyph>
<glyph name="germandbls" format="1">
  <advance width="596"/>
  <unicode hex="00DF"/>
  <outline>
    <contour>
      <point x="153" y="0" type="curve"/>
      <point x="153" y="204"/>
      <point x="153" y="406"/>
      <point x="153" y="609" type="curve"/>
      <point x="93" y="609"/>
      <point x="153" y="609"/>
      <point x="93" y="609" type="curve"/>
      <point x="93" y="406"/>
      <point x="93" y="204"/>
      <point x="93" y="0" type="curve"/>
      <point x="153" y="0"/>
      <point x="93" y="0"/>
    </contour>
    <contour>
      <point x="153" y="609" type="curve"/>
      <point x="153" y="699"/>
      <point x="209" y="754"/>
      <point x="299" y="754" type="curve"/>
      <point x="393" y="754"/>
      <point x="460" y="709"/>
      <point x="460" y="617" type="curve"/>
      <point x="460" y="525"/>
      <point x="385" y="478"/>
      <point x="285" y="478" type="curve"/>
      <point x="285" y="438"/>
      <point x="285" y="478"/>
      <point x="285" y="438" type="curve"/>
      <point x="418" y="438"/>
      <point x="517" y="494"/>
      <point x="517" y="619" type="curve"/>
      <point x="517" y="740"/>
      <point x="430" y="802"/>
      <point x="303" y="802" type="curve"/>
      <point x="176" y="802"/>
      <point x="93" y="732"/>
      <point x="93" y="609" type="curve"/>
      <point x="153" y="609"/>
      <point x="93" y="609"/>
    </contour>
    <contour>
      <point x="387" y="83" type="curve"/>
      <point x="488" y="106"/>
      <point x="552" y="165"/>
      <point x="552" y="277" type="curve"/>
      <point x="552" y="414"/>
      <point x="445" y="478"/>
      <point x="285" y="478" type="curve"/>
      <point x="285" y="438"/>
      <point x="285" y="478"/>
      <point x="285" y="438" type="curve"/>
      <point x="394" y="438"/>
      <point x="495" y="390"/>
      <point x="495" y="276" type="curve"/>
      <point x="495" y="193"/>
      <point x="441" y="150"/>
      <point x="372" y="131" type="curve"/>
      <point x="387" y="83"/>
      <point x="372" y="131"/>
    </contour>
  </outline>
</glyph>
